<!-- Generated by IcoMoon.io -->
<svg version="1.1" xmlns="http://www.w3.org/2000/svg" width="512" height="512" viewBox="0 0 512 512">
<g id="icomoon-ignore">
</g>
<path d="M278.371 278.202v-94.419c0-6.155-2.010-11.294-6.031-15.42-4.019-4.13-9.075-6.194-15.162-6.194s-11.14 2.050-15.161 6.15c-4.016 4.101-6.024 9.262-6.024 15.482v102.593c0 3.197 0.544 6.151 1.632 8.862 1.089 2.706 2.823 5.243 5.206 7.611l68.928 70.3c4.152 4.28 9.126 6.397 14.918 6.349 5.79-0.051 10.756-2.197 14.893-6.435 4.198-4.241 6.297-9.32 6.297-15.236 0-5.913-2.099-10.991-6.297-15.233l-63.2-64.407zM255.965 512c-30.582 0-59.368-5.916-86.357-17.747-26.994-11.834-50.508-28.005-70.541-48.511-20.037-20.507-35.908-44.479-47.614-71.921-11.705-27.436-17.557-56.874-17.557-88.311 0-31.191 5.852-60.55 17.558-88.077 11.705-27.531 27.576-51.566 47.614-72.106 20.034-20.54 43.547-36.741 70.541-48.605 26.99-11.868 55.776-17.802 86.357-17.802s59.369 5.934 86.364 17.802c26.988 11.864 50.554 28.066 70.692 48.605s36.024 44.574 47.661 72.106c11.634 27.527 17.45 56.886 17.45 88.077 0 31.465-5.816 60.911-17.45 88.337-11.637 27.423-27.523 51.388-47.661 71.894s-43.704 36.677-70.692 48.511c-26.996 11.832-55.784 17.747-86.365 17.747zM5.995 109.821c-4.157-4.232-6.146-9.28-5.964-15.142 0.182-5.858 2.342-10.927 6.479-15.21l73.926-73.752c4.138-3.943 9.143-5.848 15.016-5.711 5.873 0.141 10.74 2.192 14.603 6.157 4.202 4.24 6.234 9.294 6.097 15.16-0.133 5.866-2.299 10.919-6.498 15.16l-73.932 73.751c-4.157 4.010-9.18 5.945-15.065 5.804-5.889-0.136-10.777-2.209-14.664-6.219zM505.945 109.821c-3.888 4.010-8.775 6.082-14.665 6.219-5.885 0.141-10.907-1.794-15.065-5.804l-73.933-73.751c-4.198-3.964-6.366-8.95-6.505-14.956-0.133-6.002 1.899-11.123 6.098-15.364 3.868-3.964 8.745-6.008 14.635-6.132 5.89-0.119 10.923 1.813 15.101 5.798l73.963 73.783c4.134 3.977 6.267 8.951 6.399 14.925 0.138 5.974-1.872 11.067-6.029 15.284z"></path>
</svg>
