<!-- Generated by IcoMoon.io -->
<svg version="1.1" xmlns="http://www.w3.org/2000/svg" width="32" height="32" viewBox="0 0 32 32">
<title>analytics</title>
<path d="M3.368 20.632c1.279 0 2.316 1.037 2.316 2.316v6.737c0 1.279-1.037 2.316-2.316 2.316s-2.316-1.037-2.316-2.316v-6.737c0-1.279 1.037-2.316 2.316-2.316zM11.579 15.579c1.395 0 2.526 1.131 2.526 2.526v11.368c0 1.395-1.131 2.526-2.526 2.526s-2.526-1.131-2.526-2.526v-11.368c0-1.395 1.131-2.526 2.526-2.526zM28.21 0c1.512 0 2.737 1.225 2.737 2.737v26.526c0 1.512-1.225 2.737-2.737 2.737s-2.737-1.225-2.737-2.737v-26.526c0-1.512 1.225-2.737 2.737-2.737zM19.789 10.526c1.512 0 2.737 1.225 2.737 2.737v16c0 1.512-1.225 2.737-2.737 2.737s-2.737-1.225-2.737-2.737v-16c0-1.511 1.225-2.737 2.737-2.737z"></path>
</svg>
