<!-- Generated by IcoMoon.io -->
<svg version="1.1" xmlns="http://www.w3.org/2000/svg" width="32" height="32" viewBox="0 0 32 32">
<title>angle-double-down</title>
<path d="M2.432 0.685c0.948-0.897 2.413-0.909 3.373-0.062l0.164 0.158 10.028 10.591 10.032-10.591c0.95-1.003 2.534-1.047 3.538-0.096s1.047 2.534 0.096 3.538l-13.664 14.431-13.664-14.431c-0.95-1.004-0.907-2.587 0.096-3.538zM2.432 14.032c0.948-0.897 2.413-0.909 3.373-0.062l0.164 0.158 10.028 10.591 10.032-10.591c0.95-1.003 2.534-1.047 3.538-0.096s1.047 2.534 0.096 3.538l-13.664 14.431-13.664-14.431c-0.95-1.004-0.907-2.587 0.096-3.538z"></path>
</svg>
