<!-- Generated by IcoMoon.io -->
<svg version="1.1" xmlns="http://www.w3.org/2000/svg" width="32" height="32" viewBox="0 0 32 32">
<title>angle-double-right</title>
<path d="M0.685 2.432c-0.897 0.948-0.909 2.413-0.062 3.373l0.158 0.164 10.591 10.028-10.591 10.032c-1.003 0.95-1.047 2.534-0.096 3.538s2.534 1.047 3.538 0.097l14.431-13.664-14.431-13.664c-1.004-0.95-2.587-0.907-3.538 0.097zM14.032 2.432c-0.897 0.948-0.909 2.413-0.062 3.373l0.158 0.164 10.591 10.028-10.591 10.032c-1.003 0.95-1.047 2.534-0.096 3.538s2.534 1.047 3.538 0.097l14.431-13.664-14.431-13.664c-1.004-0.95-2.587-0.907-3.538 0.097z"></path>
</svg>
