<!-- Generated by IcoMoon.io -->
<svg version="1.1" xmlns="http://www.w3.org/2000/svg" width="512" height="512" viewBox="0 0 512 512">
<g id="icomoon-ignore">
</g>
<path d="M255.936 401.599c2.253 0 4.447-0.437 6.579-1.313 2.134-0.873 4.16-2.165 6.080-3.88 7.087-6.272 15.724-14.263 25.906-23.974 10.18-9.707 20.012-20.182 29.495-31.426 9.485-11.244 17.598-22.767 24.34-34.571 6.738-11.805 10.106-22.959 10.106-33.457 0-15.322-5.214-28.132-15.644-38.433-10.43-10.302-23.491-15.453-39.185-15.453-9.072 0-17.728 2.149-25.973 6.442-8.243 4.292-15.479 9.672-21.706 16.143-5.959-6.471-13.195-11.851-21.706-16.142-8.506-4.293-17.297-6.442-26.372-6.442-15.558 0-28.52 5.151-38.887 15.453-10.362 10.3-15.543 23.111-15.543 38.433 0 10.498 3.369 21.652 10.107 33.457 6.743 11.803 14.856 23.327 24.339 34.571 9.485 11.244 19.35 21.719 29.595 31.426 10.248 9.712 18.849 17.702 25.806 23.974 1.918 1.715 3.944 3.008 6.078 3.88 2.134 0.876 4.327 1.313 6.579 1.313zM110.27 473.6c-12.114 0-22.337-4.154-30.669-12.462-8.328-8.305-12.492-18.496-12.492-30.577v-207.68l-33.779 25.543c-4.489 3.486-9.577 4.826-15.262 4.018s-10.278-3.5-13.778-8.071c-3.497-4.343-4.856-9.348-4.077-15.018 0.774-5.669 3.52-10.249 8.236-13.739l222.904-168.292c3.953-2.789 8.070-4.974 12.348-6.555 4.279-1.577 8.806-2.365 13.583-2.365 4.709 0 9.209 0.838 13.504 2.514 4.296 1.68 8.417 3.914 12.366 6.703l220.729 166.907c4.517 3.623 7.156 8.234 7.914 13.835 0.759 5.602-0.611 10.643-4.107 15.12-3.694 4.504-8.245 7.119-13.652 7.845-5.409 0.724-10.37-0.656-14.889-4.144l-31.598-23.901v207.281c0 12.082-4.198 22.272-12.594 30.577-8.395 8.307-18.615 12.462-30.661 12.462h-294.027z"></path>
</svg>
