<!-- Generated by IcoMoon.io -->
<svg version="1.1" xmlns="http://www.w3.org/2000/svg" width="32" height="32" viewBox="0 0 32 32">
<title>apple</title>
<path d="M10.17 7.792c3.184-0.811 3.798 1.37 5.761 1.37 0.842 0 1.761-0.236 2.689-0.512l0.619-0.188c1.754-0.539 3.487-1.070 4.74-0.281 1.308 0.824 2.408 1.764 3.287 2.84-1.466 1.783-3.287 5.108-3.287 6.082 0.291 3.982 3.287 5.185 5.014 6.104-1.441 3.99-5.014 8.794-8.822 8.794-1.256 0-2.314-1.567-3.625-1.567-1.101 0-3.555 1.567-4.614 1.567-3.031 0-8.926-7.048-8.926-13.341 0-5.431 2.183-9.598 7.163-10.866zM22.285 0c0 4.122-2.095 6.659-6.285 7.612 0.578-5.074 2.673-7.612 6.285-7.612z"></path>
</svg>
