<!-- Generated by IcoMoon.io -->
<svg version="1.1" xmlns="http://www.w3.org/2000/svg" width="32" height="32" viewBox="0 0 32 32">
<title>arrow-exit</title>
<path d="M16.012 0c0.736 0 1.465 0.275 2.024 0.834 0.561 0.562 0.843 1.298 0.843 2.036s-0.281 1.474-0.843 2.036v0l-8.208 8.211h19.294c0.808 0 1.523 0.324 2.039 0.84s0.84 1.231 0.84 2.039-0.324 1.523-0.84 2.039c-0.516 0.516-1.231 0.84-2.039 0.84v0h-19.294l8.208 8.211c0.561 0.562 0.843 1.263 0.843 2.036s-0.281 1.474-0.843 2.036c-0.562 0.562-1.299 0.843-2.036 0.843s-1.474-0.281-2.036-0.843v0l-13.121-13.126c-0.706-0.706-1.123-1.991-0.624-3.024v0l13.749-14.177c0.557-0.543 1.302-0.831 2.045-0.831z"></path>
</svg>
