<!-- Generated by IcoMoon.io -->
<svg version="1.1" xmlns="http://www.w3.org/2000/svg" width="32" height="32" viewBox="0 0 32 32">
<title>arrow-right</title>
<path d="M15.988 32c-0.736 0-1.465-0.275-2.024-0.834-0.561-0.562-0.843-1.298-0.843-2.036s0.281-1.474 0.843-2.036v0l8.208-8.211h-19.294c-0.808 0-1.523-0.324-2.039-0.84s-0.84-1.231-0.84-2.039 0.324-1.523 0.84-2.039c0.516-0.516 1.231-0.84 2.039-0.84v0h19.294l-8.208-8.211c-0.561-0.562-0.843-1.263-0.843-2.036s0.281-1.474 0.843-2.036c0.562-0.562 1.299-0.843 2.036-0.843s1.474 0.281 2.036 0.843v0l13.121 13.126c0.706 0.706 1.123 1.991 0.624 3.024v0l-13.749 14.177c-0.557 0.543-1.302 0.831-2.045 0.831z"></path>
</svg>
