<!-- Generated by IcoMoon.io -->
<svg version="1.1" xmlns="http://www.w3.org/2000/svg" width="512" height="512" viewBox="0 0 512 512">
<g id="icomoon-ignore">
</g>
<path d="M0.002 142.1c0-7.375 2.355-13.701 7.066-18.981s10.834-7.919 18.368-7.919h460.236c7.848 0 14.198 2.659 19.051 7.978s7.279 11.684 7.279 19.097c0 1.786-2.825 7.876-8.474 18.272l-220.237 224.281c-3.743 3.812-8.014 6.761-12.81 8.845-4.805 2.087-9.715 3.128-14.728 3.128-5.023 0-9.928-1.042-14.715-3.128-4.787-2.084-9.052-5.033-12.795-8.845l-220.309-224.296c-2.588-2.625-4.554-5.458-5.901-8.499-1.354-3.041-2.033-6.351-2.033-9.932z"></path>
</svg>
