<!-- Generated by IcoMoon.io -->
<svg version="1.1" xmlns="http://www.w3.org/2000/svg" width="512" height="512" viewBox="0 0 512 512">
<g id="icomoon-ignore">
</g>
<path d="M96.754 391.388c24.687-16.51 49.969-29.119 75.847-37.829 25.878-8.714 53.661-13.071 83.349-13.071s57.599 4.413 83.733 13.241c26.138 8.832 51.433 21.401 75.885 37.709 16.966-20.94 29.318-42.492 37.053-64.657 7.736-22.169 11.601-45.746 11.601-70.731 0-58.637-20.053-108.008-60.153-148.113-40.101-40.106-89.468-60.158-148.101-60.158s-108.006 20.052-148.119 60.158c-40.114 40.106-60.17 89.476-60.17 148.113 0 24.947 3.912 48.496 11.737 70.649 7.825 22.149 20.27 43.712 37.338 64.689zM255.874 278.184c-24.77 0-45.591-8.458-62.462-25.375-16.874-16.916-25.311-37.735-25.311-62.455 0-24.725 8.463-45.543 25.387-62.455s37.77-25.368 62.537-25.368c24.77 0 45.591 8.481 62.462 25.444 16.874 16.967 25.312 37.812 25.312 62.537 0 24.72-8.462 45.511-25.387 62.373-16.925 16.866-37.771 25.299-62.537 25.299zM255.78 512c-35.364 0-68.633-6.712-99.806-20.135-31.173-13.414-58.319-31.731-81.436-54.946-23.117-23.217-41.32-50.363-54.608-81.435s-19.931-64.284-19.931-99.636c0-35.347 6.717-68.564 20.151-99.648s31.75-58.154 54.947-81.209c23.197-23.059 50.334-41.322 81.41-54.79 31.081-13.467 64.297-20.201 99.649-20.201 35.356 0 68.572 6.734 99.649 20.201 31.080 13.468 58.149 31.731 81.203 54.79 23.057 23.055 41.322 50.143 54.788 81.266 13.47 31.123 20.202 64.35 20.202 99.68s-6.733 68.526-20.202 99.585c-13.466 31.056-31.731 58.182-54.788 81.38-23.055 23.198-50.163 41.51-81.322 54.946s-64.462 20.151-99.906 20.151z"></path>
</svg>
