<!-- Generated by IcoMoon.io -->
<svg version="1.1" xmlns="http://www.w3.org/2000/svg" width="32" height="32" viewBox="0 0 32 32">
<title>back</title>
<path d="M29.058 0.819c-0.78 0-1.529 0.31-2.081 0.862l-9.689 9.689v-7.305c0-1.625-1.317-2.942-2.942-2.942-0.81 0-1.584 0.334-2.14 0.923l-11.403 12.087c-1.069 1.134-1.069 2.905 0 4.038l11.403 12.087c1.115 1.182 2.977 1.236 4.16 0.121 0.589-0.556 0.923-1.33 0.923-2.14v-8.042l9.689 9.69c1.149 1.149 3.012 1.149 4.161 0 0.552-0.552 0.862-1.3 0.862-2.081v-24.045c0-1.625-1.317-2.942-2.942-2.942z"></path>
</svg>
