<!-- Generated by IcoMoon.io -->
<svg version="1.1" xmlns="http://www.w3.org/2000/svg" width="512" height="512" viewBox="0 0 512 512">
<g id="icomoon-ignore">
</g>
<path d="M192.686 256.243l205.183 189.363c7.625 7.477 11.533 16.675 11.725 27.595 0.195 10.92-3.75 20.226-11.836 27.916-8.245 7.256-18.284 10.883-30.118 10.883-11.837 0-21.709-3.664-29.612-10.993l-215.311-198.837c-7.093-6.55-12.253-13.685-15.482-21.406-3.224-7.725-4.837-15.882-4.837-24.469 0-8.583 1.612-16.755 4.837-24.514 3.229-7.76 8.389-14.919 15.482-21.476l215.78-198.715c7.932-7.617 17.634-11.48 29.102-11.588 11.473-0.108 21.563 3.682 30.269 11.368 7.625 7.544 11.475 16.779 11.548 27.703 0.080 10.92-3.781 20.127-11.584 27.619l-205.148 189.552z"></path>
</svg>
