<!-- Generated by IcoMoon.io -->
<svg version="1.1" xmlns="http://www.w3.org/2000/svg" width="32" height="32" viewBox="0 0 32 32">
<title>booking-day</title>
<path d="M9.6 0v3.2h12.799l0.001-3.2h3.2v3.2h2.017c1.537 0 2.783 1.246 2.783 2.783v23.235c0 1.537-1.246 2.783-2.783 2.783h-23.235c-1.537 0-2.783-1.246-2.783-2.783v-23.235c0-1.537 1.246-2.783 2.783-2.783h2.016l0.001-3.2h3.2zM25.809 11.2h-19.617c-0.768 0-1.391 0.623-1.391 1.391v0 14.817c0 0.768 0.623 1.391 1.391 1.391v0h19.617c0.768 0 1.391-0.623 1.391-1.391v0-14.817c0-0.768-0.623-1.391-1.391-1.391v0zM11.2 14.4v3.2h-3.2v-3.2h3.2zM17.6 14.4v3.2h-3.2v-3.2h3.2zM24 14.4v3.2h-3.2v-3.2h3.2z"></path>
</svg>
