<!-- Generated by IcoMoon.io -->
<svg version="1.1" xmlns="http://www.w3.org/2000/svg" width="32" height="32" viewBox="0 0 32 32">
<title>calendar</title>
<path d="M28.138 32h-24.276c-1.218 0-2.207-0.989-2.207-2.207v-24.276c0-1.219 0.989-2.207 2.207-2.207h2.207v1.103c0 1.828 1.482 3.31 3.31 3.31s3.31-1.482 3.31-3.31v-1.103h6.621v1.103c0 1.828 1.483 3.31 3.31 3.31s3.31-1.482 3.31-3.31v-1.103h2.207c1.218 0 2.207 0.988 2.207 2.207v24.276c0 1.218-0.989 2.207-2.207 2.207zM28.138 11.034h-24.276v18.759h24.276v-18.759zM9.379 16.552h-3.31v-3.31h3.31v3.31zM9.379 22.069h-3.31v-3.31h3.31v3.31zM9.379 27.586h-3.31v-3.31h3.31v3.31zM14.897 16.552h-3.31v-3.31h3.31v3.31zM14.897 22.069h-3.31v-3.31h3.31v3.31zM14.897 27.586h-3.31v-3.31h3.31v3.31zM20.414 16.552h-3.31v-3.31h3.31v3.31zM20.414 22.069h-3.31v-3.31h3.31v3.31zM20.414 27.586h-3.31v-3.31h3.31v3.31zM25.931 16.552h-3.31v-3.31h3.31v3.31zM25.931 22.069h-3.31v-3.31h3.31v3.31zM25.931 27.586h-3.31v-3.31h3.31v3.31zM22.587 6.621c-1.201 0-2.173-0.973-2.173-2.173v-2.275c0-1.201 0.972-2.173 2.173-2.173s2.173 0.972 2.173 2.173v2.275c0 1.199-0.972 2.173-2.173 2.173zM9.345 6.621c-1.201 0-2.173-0.973-2.173-2.173v-2.275c0-1.201 0.972-2.173 2.173-2.173s2.173 0.972 2.173 2.173v2.275c0 1.199-0.973 2.173-2.173 2.173z"></path>
</svg>
