<!-- Generated by IcoMoon.io -->
<svg version="1.1" xmlns="http://www.w3.org/2000/svg" width="512" height="512" viewBox="0 0 512 512">
<g id="icomoon-ignore">
</g>
<path d="M47.59 512c-12.982 0-24.16-4.695-33.532-14.085-9.373-9.389-14.059-20.587-14.059-33.593v-374.592c0-13.031 4.686-24.25 14.059-33.657 9.372-9.41 20.549-14.116 33.532-14.116h59.691v-18.685c0-6.524 2.261-12.033 6.784-16.526 4.519-4.497 10.023-6.747 16.515-6.747 6.613 0 12.186 2.249 16.722 6.747 4.54 4.494 6.81 10.002 6.81 16.526v18.685h203.678v-18.685c0-6.524 2.262-12.033 6.784-16.526 4.519-4.497 10.024-6.747 16.514-6.747 6.608 0 12.182 2.249 16.722 6.747 4.539 4.494 6.81 10.002 6.81 16.526v18.685h59.69c13.008 0 24.207 4.706 33.601 14.116 9.394 9.407 14.090 20.625 14.090 33.657v374.592c0 13.005-4.697 24.204-14.090 33.592-9.394 9.39-20.593 14.085-33.601 14.085h-416.719zM47.59 464.323h416.719v-262.817h-416.719v262.817zM255.963 307.399c-7.4 0-13.606-2.507-18.619-7.522-5.012-5.012-7.518-11.226-7.518-18.64s2.502-13.631 7.506-18.654c5.004-5.022 11.206-7.533 18.606-7.533s13.608 2.507 18.62 7.521c5.012 5.012 7.519 11.226 7.519 18.64s-2.503 13.631-7.507 18.654c-5.004 5.021-11.206 7.533-18.606 7.533zM155.456 307.399c-7.4 0-13.606-2.507-18.619-7.522-5.013-5.012-7.519-11.226-7.519-18.64s2.502-13.631 7.506-18.654c5.005-5.022 11.207-7.533 18.607-7.533s13.606 2.507 18.619 7.521c5.012 5.012 7.519 11.226 7.519 18.64s-2.504 13.631-7.507 18.654c-5.004 5.021-11.206 7.533-18.606 7.533zM356.471 307.399c-7.262 0-13.435-2.507-18.519-7.522-5.079-5.012-7.618-11.226-7.618-18.64s2.536-13.631 7.611-18.654c5.075-5.022 11.267-7.533 18.575-7.533 7.313 0 13.485 2.507 18.519 7.521 5.029 5.012 7.543 11.226 7.543 18.64s-2.502 13.631-7.506 18.654c-5.004 5.021-11.206 7.533-18.606 7.533zM255.963 408.092c-7.4 0-13.606-2.543-18.619-7.629-5.012-5.084-7.518-11.288-7.518-18.608 0-7.327 2.502-13.51 7.506-18.553 5.004-5.040 11.206-7.559 18.606-7.559s13.608 2.507 18.62 7.522c5.012 5.012 7.519 11.226 7.519 18.64 0 7.276-2.503 13.459-7.507 18.553-5.004 5.089-11.206 7.634-18.606 7.634zM155.456 408.092c-7.4 0-13.606-2.543-18.619-7.629-5.013-5.084-7.519-11.288-7.519-18.608 0-7.327 2.502-13.51 7.506-18.553 5.005-5.040 11.207-7.559 18.607-7.559s13.606 2.507 18.619 7.522c5.012 5.012 7.519 11.226 7.519 18.64 0 7.276-2.504 13.459-7.507 18.553-5.004 5.089-11.206 7.634-18.606 7.634zM356.471 408.092c-7.262 0-13.435-2.543-18.519-7.629-5.079-5.084-7.618-11.288-7.618-18.608 0-7.327 2.536-13.51 7.611-18.553 5.075-5.040 11.267-7.559 18.575-7.559 7.313 0 13.485 2.507 18.519 7.522 5.029 5.012 7.543 11.226 7.543 18.64 0 7.276-2.502 13.459-7.506 18.553-5.004 5.089-11.206 7.634-18.606 7.634z"></path>
</svg>
