<!-- Generated by IcoMoon.io -->
<svg version="1.1" xmlns="http://www.w3.org/2000/svg" width="32" height="32" viewBox="0 0 32 32">
<title>cancel</title>
<path d="M21.751 16.001l9.773 9.773c0.635 0.635 0.635 1.666 0 2.301l-3.448 3.448c-0.635 0.635-1.664 0.635-2.301 0l-9.775-9.773-9.775 9.773c-0.635 0.635-1.664 0.635-2.299 0l-3.45-3.448c-0.635-0.635-0.635-1.664 0-2.301l9.775-9.773-9.775-9.775c-0.635-0.635-0.635-1.666 0-2.301l3.452-3.449c0.635-0.635 1.664-0.635 2.299 0l9.773 9.775 9.775-9.775c0.635-0.635 1.664-0.635 2.301 0l3.448 3.45c0.635 0.635 0.635 1.664 0 2.301l-9.773 9.773z"></path>
</svg>
