<!-- Generated by IcoMoon.io -->
<svg version="1.1" xmlns="http://www.w3.org/2000/svg" width="32" height="32" viewBox="0 0 32 32">
<title>cart-1</title>
<path d="M5.758 1.501c2.093 0 3.052 2.189 3.151 2.686v0l0.472 2.283h21.117c0.454 0 0.878 0.209 1.164 0.574s0.398 0.839 0.307 1.3v0l-2.101 10.684c-0.143 0.721-0.762 1.597-1.471 1.597v0h-15.868l0.442 1.994h15.287c0.415 0 0.725 0 0.725 1.441 0 0.211-0.007 0.394-0.019 0.552 0.86 0.574 1.427 1.556 1.427 2.668 0 1.775-1.444 3.22-3.22 3.22s-3.22-1.444-3.22-3.22c0-0.608 0.169-1.176 0.463-1.662h-10.586c0.294 0.485 0.463 1.054 0.463 1.662 0 1.775-1.444 3.22-3.22 3.22s-3.22-1.444-3.22-3.22c0-1.249 0.715-2.335 1.758-2.868l-0.009-0.037-3.634-19.080-3.698 0c-0.732-0.003-2.268-0.098-2.268-1.846 0-1.923 1.868-1.948 2.461-1.948z"></path>
</svg>
