<!-- Generated by IcoMoon.io -->
<svg version="1.1" xmlns="http://www.w3.org/2000/svg" width="32" height="32" viewBox="0 0 32 32">
<title>cart-2</title>
<path d="M11.461 25.906c1.68 0 3.047 1.367 3.047 3.047s-1.367 3.047-3.047 3.047-3.047-1.367-3.047-3.047c0-1.68 1.367-3.047 3.047-3.047zM25.203 25.906c1.68 0 3.047 1.367 3.047 3.047s-1.367 3.047-3.047 3.047-3.047-1.367-3.047-3.047c0-1.68 1.367-3.047 3.047-3.047zM11.461 27.607c-0.742 0-1.346 0.604-1.346 1.346s0.604 1.346 1.346 1.346c0.742 0 1.346-0.604 1.346-1.346s-0.604-1.346-1.346-1.346zM25.203 27.607c-0.742 0-1.346 0.604-1.346 1.346s0.604 1.346 1.346 1.346c0.742 0 1.346-0.604 1.346-1.346s-0.604-1.346-1.346-1.346zM4.47 0c0.47 0.205 0.812 0.629 0.915 1.134v0l0.495 1.997h24.53c0.476 0 0.921 0.213 1.221 0.584s0.418 0.853 0.322 1.321v0l-2.203 10.721c-0.15 0.733-0.799 1.265-1.543 1.265v0h-19.476l0.776 4.239h18.554c0.435 0 0.746 0.547 0.746 0.984s-0.311 0.965-0.746 0.965v0h-18.866c-0.744 0-1.393-0.532-1.543-1.265v0l-3.81-20.063-2.753-0c-0.399 0-1.076-0.097-1.076-0.939s0.677-0.943 1.076-0.943v0zM11.355 4.947l-5.038 0.001 1.909 10.184 3.129-0.001v-10.184zM17.637 4.947h-4.58v10.184h4.58v-10.184zM23.747 4.947h-4.408v10.184h4.408v-10.184zM30.1 4.948l-4.652-0.001v10.184l2.645 0.001 2.006-10.184z"></path>
</svg>
