<!-- Generated by IcoMoon.io -->
<svg version="1.1" xmlns="http://www.w3.org/2000/svg" width="32" height="32" viewBox="0 0 32 32">
<title>cart</title>
<path d="M12.522 25.044c1.534 0 2.783 1.248 2.783 2.783s-1.248 2.783-2.783 2.783c-1.534 0-2.783-1.248-2.783-2.783s1.248-2.783 2.783-2.783zM25.043 25.044c1.534 0 2.783 1.248 2.783 2.783s-1.248 2.783-2.783 2.783c-1.534 0-2.783-1.248-2.783-2.783s1.248-2.783 2.783-2.783zM12.522 27.27c-0.307 0-0.557 0.25-0.557 0.557s0.25 0.557 0.557 0.557c0.307 0 0.557-0.25 0.557-0.557s-0.25-0.557-0.557-0.557zM25.043 27.27c-0.307 0-0.557 0.25-0.557 0.557s0.25 0.557 0.557 0.557c0.307 0 0.557-0.25 0.557-0.557s-0.25-0.557-0.557-0.557zM0.022 2.455c0.131-0.705 0.815-1.172 1.53-1.042v0l5.258 0.159c0.531 0.096 0.948 0.502 1.053 1.024v0l1.195 4.439h21.627c0.401 0 0.779 0.18 1.029 0.49s0.342 0.714 0.252 1.099v0l-3.067 14.022c-0.138 0.589-0.669 1.006-1.281 1.006v0h-17.013c-0.627 0-1.168-0.438-1.29-1.046v0l-3.858-18.642h-4.379c-0.714-0.129-1.187-0.805-1.056-1.51zM29.173 9.679h-19.595l2.106 11.246h15.029l2.46-11.246z"></path>
</svg>
