<!-- Generated by IcoMoon.io -->
<svg version="1.1" xmlns="http://www.w3.org/2000/svg" width="32" height="32" viewBox="0 0 32 32">
<title>chart-reduced</title>
<path d="M2.828 6.851l8.913 8.406 5.466-4.9c0.643-0.577 1.614-0.568 2.245 0.006l0.071 0.069 8.878 9.212-0.161-3.514c-0.233-0.864 0.254-1.753 1.095-2.029l0.088-0.026c0.864-0.233 1.753 0.254 2.029 1.095l0.026 0.088 0.462 8.234c0.333 1.235-0.781 2.361-2.005 2.068l-0.082-0.022-8.073-0.325c-0.889-0.259-1.401-1.189-1.142-2.078 0.25-0.86 1.128-1.366 1.989-1.166l0.089 0.023h3.29l-7.755-8.067-5.42 4.86c-0.624 0.56-1.56 0.57-2.195 0.038l-0.075-0.066-10.035-9.465c-0.674-0.635-0.705-1.697-0.069-2.371 0.613-0.65 1.622-0.702 2.297-0.135l0.074 0.066z"></path>
</svg>
