<!-- Generated by IcoMoon.io -->
<svg version="1.1" xmlns="http://www.w3.org/2000/svg" width="32" height="32" viewBox="0 0 32 32">
<title>chat</title>
<path d="M4.044 10.64c-0.147 0.81-0.223 1.643-0.223 2.494 0 3.962 1.661 7.552 4.355 10.15 2.675 2.579 6.368 4.178 10.451 4.178 1.408 0 2.769-0.19 4.059-0.545-2.315 2.872-5.946 4.723-10.029 4.723-1.931 0-3.76-0.414-5.397-1.154-0.979-0.442-5.166 1.811-5.988 1.154-0.459-0.367-0.135-1.412 0.251-2.51l0.194-0.551c0.353-1.007 0.657-1.971 0.355-2.411-1.31-1.909-2.072-4.193-2.072-6.647 0-3.466 1.52-6.592 3.956-8.801zM18.627 0.239c7.386 0 13.373 5.774 13.373 12.896 0 2.612-0.805 5.043-2.19 7.073-0.725 1.063 1.855 5.009 0.845 5.822-0.868 0.699-5.292-1.699-6.326-1.228-1.73 0.788-3.663 1.228-5.703 1.228-7.386 0-13.373-5.773-13.373-12.896s5.987-12.896 13.373-12.896z"></path>
</svg>
