<!-- Generated by IcoMoon.io -->
<svg version="1.1" xmlns="http://www.w3.org/2000/svg" width="32" height="32" viewBox="0 0 32 32">
<title>check</title>
<path d="M29.34 3.862c0.671-0.009 1.346 0.233 1.865 0.73 0.495 0.474 0.76 1.093 0.792 1.723 0.025 0.488-0.089 0.982-0.344 1.418v0l-19.216 19.62c-0.486 0.493-1.122 0.754-1.767 0.782-0.498 0.021-1.001-0.096-1.444-0.354v0l-8.457-8.224c-0.512-0.505-0.767-1.166-0.767-1.828s0.256-1.323 0.769-1.827c0.488-0.481 1.121-0.732 1.76-0.755 0.493-0.017 0.991 0.102 1.429 0.358v0l6.568 6.367 16.971-17.226c0.504-0.512 1.171-0.774 1.843-0.784z"></path>
</svg>
