<!-- Generated by IcoMoon.io -->
<svg version="1.1" xmlns="http://www.w3.org/2000/svg" width="32" height="32" viewBox="0 0 32 32">
<title>check-circle</title>
<path d="M16 0c8.837 0 16 7.163 16 16s-7.163 16-16 16c-8.837 0-16-7.163-16-16s7.163-16 16-16zM24.191 8.458l-0.219 0.014c-0.507 0.057-0.982 0.284-1.343 0.653l-9.367 10.757-4.213-4.502-0.173-0.124-0.154-0.079c-0.348-0.155-0.687-0.219-1.026-0.207-0.56 0.020-1.092 0.245-1.492 0.642-0.415 0.411-0.638 0.958-0.638 1.524s0.223 1.112 0.637 1.523l5.817 6.084 0.176 0.126 0.155 0.079c0.352 0.155 0.694 0.218 1.037 0.204 0.565-0.024 1.1-0.258 1.498-0.665l11.16-12.656 0.12-0.169 0.078-0.154c0.147-0.337 0.205-0.664 0.188-0.99-0.027-0.538-0.257-1.051-0.658-1.437-0.373-0.359-0.855-0.572-1.363-0.614l-0.22-0.007z"></path>
</svg>
