<!-- Generated by IcoMoon.io -->
<svg version="1.1" xmlns="http://www.w3.org/2000/svg" width="32" height="32" viewBox="0 0 32 32">
<title>check-circle-outline</title>
<path d="M16 0c8.837 0 16 7.163 16 16s-7.163 16-16 16c-8.837 0-16-7.163-16-16s7.163-16 16-16zM16 2.56c-7.477 0-13.538 6.017-13.538 13.44s6.061 13.44 13.538 13.44c7.477 0 13.538-6.017 13.538-13.44s-6.061-13.44-13.538-13.44zM22.556 9.458c0.33-0.005 0.661 0.126 0.916 0.393 0.243 0.255 0.373 0.589 0.389 0.929 0.009 0.197-0.020 0.396-0.088 0.583l-0.081 0.182-9.444 10.575c-0.239 0.266-0.551 0.406-0.868 0.421-0.196 0.009-0.393-0.030-0.576-0.116l-0.134-0.074-4.156-4.433c-0.252-0.272-0.377-0.629-0.377-0.985s0.126-0.713 0.378-0.985c0.24-0.259 0.551-0.395 0.865-0.407 0.194-0.007 0.389 0.032 0.57 0.119l0.132 0.074 3.228 3.432 8.34-9.285c0.248-0.276 0.576-0.417 0.906-0.423z"></path>
</svg>
