<!-- Generated by IcoMoon.io -->
<svg version="1.1" xmlns="http://www.w3.org/2000/svg" width="32" height="32" viewBox="0 0 32 32">
<title>checked</title>
<path d="M23.086 2c3.818 0 6.914 3.095 6.914 6.914v14.173c0 3.818-3.095 6.914-6.914 6.914h-14.173c-3.818 0-6.914-3.095-6.914-6.914v-14.173c0-3.818 3.095-6.914 6.914-6.914h14.173zM22.154 11.148c-0.675-0.675-1.769-0.675-2.444 0v0l-5.934 5.934-1.565-1.565-0.062-0.059c-0.678-0.615-1.727-0.595-2.382 0.059-0.675 0.675-0.675 1.769 0 2.444v0l2.787 2.787 0.062 0.059c0.678 0.615 1.727 0.595 2.382-0.059v0l7.216-7.219c0.615-0.678 0.595-1.727-0.059-2.382z"></path>
</svg>
