<!-- Generated by IcoMoon.io -->
<svg version="1.1" xmlns="http://www.w3.org/2000/svg" width="512" height="512" viewBox="0 0 512 512">
<g id="icomoon-ignore">
</g>
<path d="M218.909 306.214l-56.599-56.81c-4.572-4.432-10.082-6.648-16.526-6.648-6.45 0-12.072 2.369-16.866 7.108-4.599 4.671-6.889 10.225-6.871 16.66 0.017 6.438 2.323 11.848 6.917 16.232l73.567 73.996c4.598 4.774 10.032 7.159 16.302 7.159s11.827-2.386 16.667-7.159l146.449-146.552c4.808-4.743 7.212-10.311 7.212-16.707 0-6.393-2.404-12.058-7.212-16.994-4.883-4.458-10.62-6.615-17.21-6.475-6.586 0.141-12.106 2.411-16.56 6.815l-129.27 129.372zM255.963 512c-35.2 0-68.373-6.731-99.519-20.193-31.147-13.457-58.279-31.766-81.398-54.929-23.123-23.164-41.411-50.3-54.865-81.404-13.454-31.108-20.18-64.244-20.18-99.41 0-35.483 6.731-68.799 20.193-99.946 13.457-31.142 31.763-58.241 54.916-81.296s50.284-41.288 81.392-54.699c31.113-13.415 64.253-20.122 99.422-20.122 35.493 0 68.815 6.707 99.966 20.122 31.155 13.415 58.259 31.665 81.309 54.75 23.047 23.085 41.274 50.188 54.685 81.309 13.411 31.117 20.117 64.407 20.117 99.87 0 35.207-6.709 68.385-20.128 99.531s-31.678 58.276-54.776 81.386c-23.093 23.115-50.195 41.399-81.302 54.853-31.104 13.454-64.382 20.18-99.832 20.18z"></path>
</svg>
