<?xml version="1.0" encoding="UTF-8"?>
<svg xmlns="http://www.w3.org/2000/svg" xmlns:xlink="http://www.w3.org/1999/xlink" width="32px" height="32px" viewBox="0 0 32 32" version="1.1">
<g id="surface1">
<path style=" stroke:none;fill-rule:nonzero;fill:rgb(0%,0%,0%);fill-opacity:1;" d="M 11.382812 5.695312 L 16.570312 11.003906 L 21.695312 5.71875 C 22.679688 4.703125 24.300781 4.679688 25.316406 5.664062 C 25.328125 5.675781 25.339844 5.6875 25.355469 5.703125 L 27.527344 7.902344 C 28.472656 8.855469 28.515625 10.378906 27.632812 11.386719 L 22.71875 17.007812 L 27.46875 21.992188 C 28.429688 23.003906 28.40625 24.597656 27.414062 25.578125 L 25.359375 27.617188 C 24.351562 28.609375 22.734375 28.601562 21.738281 27.597656 C 21.730469 27.589844 21.722656 27.582031 21.714844 27.574219 L 16.570312 22.246094 L 11.363281 27.59375 C 10.378906 28.605469 8.757812 28.628906 7.746094 27.640625 C 7.742188 27.636719 7.734375 27.632812 7.730469 27.628906 L 5.730469 25.652344 C 4.726562 24.660156 4.714844 23.039062 5.707031 22.03125 C 5.722656 22.019531 5.738281 22.003906 5.75 21.992188 L 10.90625 17.007812 L 5.5625 11.398438 C 4.601562 10.394531 4.621094 8.8125 5.597656 7.828125 L 7.734375 5.679688 C 8.730469 4.679688 10.351562 4.671875 11.355469 5.671875 C 11.363281 5.679688 11.371094 5.6875 11.382812 5.695312 Z M 11.382812 5.695312 "/>
</g>
</svg>
