<!-- Generated by IcoMoon.io -->
<svg version="1.1" xmlns="http://www.w3.org/2000/svg" width="32" height="32" viewBox="0 0 32 32">
<title>close</title>
<path d="M3.248 0c-0.742 0.026-1.465 0.378-2.097 0.982-0.612 0.585-0.991 1.314-1.078 2.068l-0.018 0.229c-0.023 0.608 0.15 1.177 0.536 1.597l11.111 11.191-10.988 11.030-0.167 0.203c-0.329 0.48-0.446 1.024-0.392 1.584 0.070 0.727 0.425 1.434 1.007 2.015 0.621 0.62 1.37 0.997 2.133 1.035l0.232 0c0.614-0.030 1.183-0.303 1.605-0.789l10.886-10.851 10.927 11.026c0.476 0.461 1.052 0.678 1.666 0.678 0.772 0 1.548-0.322 2.15-0.869 0.607-0.552 1.012-1.388 1.111-2.234l0.021-0.226c0.043-0.661-0.096-1.182-0.582-1.569l-10.978-11.036 11.19-11.168 0.158-0.202c0.293-0.496 0.309-0.962 0.206-1.587-0.134-0.818-0.528-1.597-1.114-2.104-0.609-0.528-1.369-0.855-2.111-0.883l-0.211 0.001c-0.556 0.025-1.049 0.241-1.395 0.688l-11.047 10.987-11.050-11.165c-0.447-0.385-0.952-0.598-1.484-0.631l-0.229-0.003z"></path>
</svg>
