<!-- Generated by IcoMoon.io -->
<svg version="1.1" xmlns="http://www.w3.org/2000/svg" width="32" height="32" viewBox="0 0 32 32">
<title>cloud-down</title>
<path d="M18.8 17.314v5.98h2.696l-5.731 6.147-5.048-6.147h2.682v-5.98h5.4zM14.863 3.84c3.968 0 6.593 2.096 7.874 6.288 4.576 0.828 6.865 2.907 6.865 6.235s-2.288 4.993-6.865 4.993l-2.595-0 0-4.109c0-0.656-0.494-1.197-1.131-1.271l-0.149-0.009h-5.501c-0.707 0-1.28 0.573-1.28 1.28v0l-0.001 4.109-4.007 0c-2.714 0-6.794-1.21-6.794-6.552 0-3.561 2.011-5.628 6.032-6.199 1.065-3.177 3.582-4.765 7.55-4.765z"></path>
</svg>
