<!-- Generated by IcoMoon.io -->
<svg version="1.1" xmlns="http://www.w3.org/2000/svg" width="32" height="32" viewBox="0 0 32 32">
<title>cloud-download</title>
<path d="M19.472 8.701c2.056-1.163 3.972-1.043 5.747 0.358 2.662 2.102 1.535 5.452 1.535 5.956 1.865-0.354 5.247 1.901 5.247 5.895 0 2.662-1.559 4.745-4.677 6.25h-22.087c-3.491-1.052-5.237-3.395-5.237-7.028 0-5.45 3.572-6.17 4.643-6.899l0-0.2c0.010-1.691 0.244-6.637 5.92-7.91 3.947-0.885 6.916 0.308 8.909 3.578zM15.565 11.298h-2.959c-0.24 0-0.435 0.195-0.435 0.435v5.841h-3.81c-0.24 0-0.435 0.195-0.435 0.435 0 0.111 0.043 0.218 0.119 0.299l5.8 6.131c0.165 0.175 0.441 0.182 0.615 0.017 0.006-0.006 0.012-0.011 0.017-0.017l5.8-6.131c0.165-0.175 0.158-0.45-0.017-0.615-0.081-0.076-0.188-0.119-0.299-0.119h-3.96v-5.841c0-0.24-0.195-0.435-0.435-0.435z"></path>
</svg>
