<!-- Generated by IcoMoon.io -->
<svg version="1.1" xmlns="http://www.w3.org/2000/svg" width="32" height="32" viewBox="0 0 32 32">
<title>confirmed-doi</title>
<path d="M0.292 13.175l11.372 7.766c0.65 0.444 1.507 0.437 2.149-0.017l5.476-3.869c1.411 1.427 3.345 2.337 5.491 2.418l0 5.971c0 1.040-0.843 1.884-1.884 1.884h-20.72c-1.040 0-1.884-0.843-1.884-1.884v-12.268zM18.582 16.238l-5.186 3.665c-0.431 0.305-1.007 0.307-1.44 0.006v0l-11.956-8.289 16.937 0c0.064 1.731 0.667 3.324 1.646 4.617zM25.093 4.674c3.814 0 6.907 2.973 6.907 6.641s-3.092 6.641-6.907 6.641c-3.814 0-6.907-2.973-6.907-6.641s3.092-6.641 6.907-6.641zM29.603 10.505c-0.245-0.246-0.642-0.247-0.888-0.002v0l-3.353 3.336-1.152-1.082-0.061-0.050c-0.252-0.184-0.608-0.155-0.827 0.078-0.238 0.253-0.225 0.65 0.027 0.888v0l1.594 1.499 0.059 0.049c0.246 0.18 0.592 0.159 0.814-0.062v0l3.784-3.765 0.052-0.059c0.192-0.246 0.176-0.602-0.050-0.829zM26.464 7.366c-0.245-0.246-0.642-0.247-0.888-0.002v0l-3.358 3.341-1.462-1.34-0.061-0.050c-0.254-0.181-0.609-0.148-0.826 0.088-0.234 0.256-0.217 0.653 0.038 0.887v0l1.904 1.746 0.059 0.048c0.246 0.176 0.588 0.153 0.808-0.066v0l3.784-3.765 0.052-0.059c0.192-0.246 0.176-0.602-0.050-0.829z"></path>
</svg>
