<!-- Generated by IcoMoon.io -->
<svg version="1.1" xmlns="http://www.w3.org/2000/svg" width="32" height="32" viewBox="0 0 32 32">
<title>connect</title>
<path d="M29.486 1.12h-27.017c-1.36 0.009-2.46 1.109-2.469 2.468v18.866c0.99-0.853 2.331-2.072 3.672-3.291-0.388-0.543-0.622-1.219-0.625-1.95v-0.001c0-1.894 1.535-3.429 3.429-3.429s3.429 1.535 3.429 3.429v0c-0.005 0.3-0.044 0.588-0.112 0.864l0.006-0.026 4.282 2.408c0.618-0.601 1.461-0.973 2.392-0.975h0c0.002 0 0.004 0 0.006 0 0.46 0 0.898 0.095 1.295 0.267l-0.021-0.008c2.59-4.678 4.312-7.695 5.486-9.6-0.479-0.586-0.771-1.34-0.777-2.162v-0.001c0-1.894 1.535-3.429 3.429-3.429s3.429 1.535 3.429 3.429v0c-0.006 0.434-0.089 0.847-0.237 1.228l0.008-0.024c0.899 0.716 1.89 1.524 2.804 2.286v1.966l-3.657-2.971c-0.605 0.58-1.426 0.939-2.33 0.945h-0.001c-0.515-0.001-1.002-0.119-1.437-0.329l0.020 0.009c-1.417 2.362-3.444 5.928-5.455 9.539 0.548 0.601 0.884 1.404 0.884 2.286v0c0 1.894-1.535 3.429-3.429 3.429s-3.429-1.535-3.429-3.429v0c0-0.416 0.079-0.814 0.221-1.18l-0.008 0.022-4.13-2.347c-0.63 0.753-1.57 1.23-2.62 1.234h-0.001c-0.003 0-0.007 0-0.010 0-0.651 0-1.258-0.187-1.771-0.511l0.014 0.008c-1.707 1.524-3.672 3.352-4.754 4.251v4.008c0 0 0 0 0 0 0 1.366 1.103 2.475 2.468 2.484h27.018c0.014 0 0.030 0 0.046 0 1.363 0 2.469-1.105 2.469-2.469 0-0.006-0-0.011-0-0.017v0.001-24.808c0-0 0-0 0-0 0-1.363-1.105-2.469-2.469-2.469-0.016 0-0.032 0-0.048 0l0.002-0z"></path>
</svg>
