<!-- Generated by IcoMoon.io -->
<svg version="1.1" xmlns="http://www.w3.org/2000/svg" width="32" height="32" viewBox="0 0 32 32">
<title>cookie</title>
<path d="M5.207 4.023c3.152-2.833 6.683-4.169 10.593-4.010 1.197 5.107 3.95 7.66 8.259 7.66 0.391 7.492 2.992 6.583 7.601 8.327 0.658 11.499-9.576 14.774-12.448 15.732s-9.097-0.958-9.995-0.958c-0.898 0-5.985-5.326-7.361-7.481-0.918-1.436-1.433-4.849-1.545-10.238 0.582-2.207 2.215-5.218 4.897-9.033zM10.466 18.614c-1.309 0-2.371 1.062-2.371 2.371s1.062 2.371 2.371 2.371c1.309 0 2.371-1.062 2.371-2.371s-1.062-2.371-2.371-2.371zM22.913 16.835c-1.309 0-2.371 1.062-2.371 2.371s1.062 2.371 2.371 2.371c1.309 0 2.371-1.062 2.371-2.371s-1.062-2.371-2.371-2.371zM12.837 8.537c-1.309 0-2.371 1.062-2.371 2.371s1.062 2.371 2.371 2.371c1.309 0 2.371-1.062 2.371-2.371s-1.062-2.371-2.371-2.371z"></path>
</svg>
