<!-- Generated by IcoMoon.io -->
<svg version="1.1" xmlns="http://www.w3.org/2000/svg" width="32" height="32" viewBox="0 0 32 32">
<title>copy</title>
<path d="M27.76 9.275c2.215 0 4.010 1.795 4.010 4.010v0 14.704c0 2.215-1.795 4.010-4.010 4.010v0h-14.704c-2.215 0-4.010-1.795-4.010-4.010v0-14.704c0-2.215 1.795-4.010 4.010-4.010v0zM27.76 13.285h-14.704v14.704h14.704v-14.704zM19.098 0c2.164 0 3.928 1.715 4.008 3.86l0.003 0.15v2.879c0 1.107-0.898 2.005-2.005 2.005-1.068 0-1.941-0.835-2.002-1.887l-0.003-0.118v-2.879h-14.858v14.932h2.534c1.107 0 2.005 0.898 2.005 2.005 0 1.068-0.835 1.941-1.887 2.002l-0.118 0.003h-2.534c-2.164 0-3.928-1.715-4.008-3.86l-0.003-0.15v-14.932c0-2.164 1.715-3.928 3.86-4.008l0.15-0.003h14.858z"></path>
</svg>
