<!-- Generated by IcoMoon.io -->
<svg version="1.1" xmlns="http://www.w3.org/2000/svg" width="32" height="32" viewBox="0 0 32 32">
<title>date-circle</title>
<path d="M16 0c8.837 0 16 7.163 16 16s-7.163 16-16 16c-8.837 0-16-7.163-16-16s7.163-16 16-16zM18.537 9.353h-5.077l0.001 0.458-0.011 0.186c-0.043 0.367-0.209 0.695-0.457 0.943-0.289 0.289-0.688 0.468-1.129 0.468s-0.84-0.179-1.129-0.468c-0.248-0.248-0.414-0.576-0.457-0.943v0l-0.011-0.186-0.001-0.458-1.858 0.001c-0.485 0-0.878 0.589-0.878 1.316v0 12.428c0 0.726 0.393 1.315 0.878 1.315v0h15.185c0.485 0 0.878-0.589 0.878-1.315v0-12.428c0-0.726-0.393-1.316-0.878-1.316v0l-1.86-0.001 0.001 0.458-0.011 0.186c-0.043 0.367-0.209 0.695-0.457 0.943-0.289 0.289-0.688 0.468-1.129 0.468s-0.84-0.179-1.129-0.468c-0.248-0.248-0.414-0.576-0.457-0.943v0l-0.011-0.186-0.001-0.458zM21.872 13.031c0.377 0 0.683 0.321 0.683 0.718v0 6.779l-0.011 0.129c-0.058 0.335-0.337 0.588-0.672 0.588v0l-11.933-0.012c-0.319-0.061-0.56-0.354-0.56-0.706v0-6.779l0.011-0.129c0.058-0.335 0.337-0.589 0.672-0.589v0zM17.055 15.404h-1.197l-0.079 0.009c-0.152 0.036-0.264 0.171-0.264 0.334v0 1.197l0.009 0.079c0.036 0.152 0.172 0.264 0.334 0.264v0h1.197l0.079-0.009c0.151-0.036 0.264-0.171 0.264-0.334v0-1.197l-0.009-0.079c-0.036-0.151-0.172-0.264-0.334-0.264v0zM20.819 15.404h-1.197l-0.079 0.009c-0.151 0.036-0.264 0.171-0.264 0.334v0 1.197l0.009 0.079c0.036 0.152 0.172 0.264 0.334 0.264v0h1.197l0.079-0.009c0.151-0.036 0.264-0.171 0.264-0.334v0-1.197l-0.009-0.079c-0.036-0.151-0.172-0.264-0.334-0.264v0zM11.865 7.529c-0.63 0-1.141 0.511-1.141 1.141v0 1.141c0 0.63 0.511 1.141 1.141 1.141s1.141-0.511 1.141-1.141v0-1.141c0-0.63-0.511-1.141-1.141-1.141zM20.135 7.529c-0.63 0-1.141 0.511-1.141 1.141v0 1.141c0 0.63 0.511 1.141 1.141 1.141s1.141-0.511 1.141-1.141v0-1.141c0-0.63-0.511-1.141-1.141-1.141z"></path>
</svg>
