<!-- Generated by IcoMoon.io -->
<svg version="1.1" xmlns="http://www.w3.org/2000/svg" width="32" height="32" viewBox="0 0 32 32">
<title>desktop</title>
<path d="M32 4.496v18.559c-0.085 1.527-0.922 2.29-2.51 2.29h-9.392c0 2.203 0.859 3.304 2.576 3.304v0.911h-13.357v-0.911c1.611 0 2.416-1.101 2.416-3.304h-9.679c-1.37 0.1-2.054-0.664-2.054-2.29v-18.559c0.113-1.362 0.798-2.044 2.054-2.044h27.436c1.673-0.119 2.51 0.562 2.51 2.044zM15.961 20.925c-0.588 0-1.065 0.477-1.065 1.065s0.477 1.065 1.065 1.065c0.588 0 1.065-0.477 1.065-1.065s-0.477-1.065-1.065-1.065zM28.63 6.012h-25.337c-0.651 0-1.179 0.528-1.179 1.179v0 11.489c0 0.651 0.528 1.179 1.179 1.179v0h25.337c0.651 0 1.179-0.528 1.179-1.179v0-11.489c0-0.651-0.528-1.179-1.179-1.179v0z"></path>
</svg>
