<svg width="500" height="500" viewBox="0 0 500 500" fill="none" xmlns="http://www.w3.org/2000/svg">
<path d="M7.00355 413.152C7.00355 396.655 7.16902 380.158 7.00355 363.66C6.83807 348.153 12.4641 335.285 23.3853 324.396C95.2005 252.797 167.016 181.033 238.665 109.27C241.975 105.97 243.464 106.135 246.773 109.27C294.761 157.442 342.913 205.615 391.231 253.622C394.044 256.427 394.706 257.912 391.397 261.046C319.25 332.975 247.104 404.904 175.124 476.998C164.368 487.721 151.461 493 136.238 493C102.316 493 68.5594 493 34.6375 493C17.5938 493 7.16903 482.772 7.16903 465.779C7.00356 448.127 7.00355 430.64 7.00355 413.152Z" fill="#A0A0B1"/>
<path d="M492.995 138.134C493.16 151.827 488.362 163.705 478.93 173.274C464.037 188.616 448.648 203.629 433.59 218.807C431.274 221.116 429.95 220.951 427.799 218.642C379.15 169.974 330.335 121.307 281.521 72.6393C279.204 70.3296 278.708 69.0098 281.355 66.5352C296.413 51.8525 310.975 36.6748 326.199 22.1571C347.048 2.03021 377.164 1.86523 397.848 22.1571C424.82 48.553 451.296 75.4438 477.937 102.17C487.865 111.903 492.995 123.946 492.995 138.134Z" fill="#A0A0B1"/>
</svg>
