<!-- Generated by IcoMoon.io -->
<svg version="1.1" xmlns="http://www.w3.org/2000/svg" width="32" height="32" viewBox="0 0 32 32">
<title>ellipsis-v</title>
<path d="M16 25.043c1.921 0 3.478 1.557 3.478 3.478s-1.557 3.478-3.478 3.478c-1.921 0-3.478-1.557-3.478-3.478s1.557-3.478 3.478-3.478zM16 12.522c1.921 0 3.478 1.557 3.478 3.478s-1.557 3.478-3.478 3.478c-1.921 0-3.478-1.557-3.478-3.478s1.557-3.478 3.478-3.478zM16 0c1.921 0 3.478 1.557 3.478 3.478s-1.557 3.478-3.478 3.478c-1.921 0-3.478-1.557-3.478-3.478s1.557-3.478 3.478-3.478z"></path>
</svg>
