<!-- Generated by IcoMoon.io -->
<svg version="1.1" xmlns="http://www.w3.org/2000/svg" width="32" height="32" viewBox="0 0 32 32">
<title>email-send</title>
<path d="M0.013 9.098c0.048 0.31 0.221 0.589 0.483 0.77v0l11.872 8.182 11.737-8.18c0.261-0.182 0.433-0.462 0.481-0.772 0.009 0.078 0.013 0.158 0.013 0.239v6.854l-4.224 0c-0.566 0-1.025 0.459-1.025 1.025v2.125c0 0.566 0.459 1.025 1.025 1.025l4.224-0v2.296c0 1.132-0.918 2.050-2.050 2.050h-20.5c-1.132 0-2.050-0.918-2.050-2.050v-13.325l0.006-0.153zM25.784 13.95l6.216 4.1-6.128 4.371v-2.831h-5.334c-0.283 0-0.512-0.229-0.512-0.512v0-1.624c0-0.283 0.229-0.512 0.512-0.512v0h5.247v-2.991zM22.55 7.288c0.905 0 1.672 0.586 1.944 1.399-0.107-0.093-0.267-0.107-0.389-0.022v0l-11.787 8.181-11.823-8.181c-0.053-0.037-0.115-0.056-0.18-0.056-0.081 0-0.155 0.030-0.211 0.081 0.271-0.814 1.040-1.401 1.945-1.401h20.5z"></path>
</svg>
