<!-- Generated by IcoMoon.io -->
<svg version="1.1" xmlns="http://www.w3.org/2000/svg" width="32" height="32" viewBox="0 0 32 32">
<title>email</title>
<path d="M0 24.758v-15.829c0-0.546 0.207-1.050 0.553-1.451l13.396 9.877c1.082 0.794 3.052 0.785 4.113 0.008l13.427-9.835c0.321 0.389 0.511 0.874 0.511 1.4v15.829c0 1.293-1.159 2.347-2.586 2.347h-26.829c-1.427 0-2.585-1.054-2.585-2.347z"></path>
<path d="M14.075 14.914l-12.45-9.182c0.44-0.508 1.123-0.836 1.889-0.836h24.935c0.788 0 1.49 0.35 1.928 0.883l-12.479 9.139c-0.985 0.725-2.818 0.734-3.823-0.004z"></path>
</svg>
