<!-- Generated by IcoMoon.io -->
<svg version="1.1" xmlns="http://www.w3.org/2000/svg" width="32" height="32" viewBox="0 0 32 32">
<title>email-circle</title>
<path d="M16 0c8.837 0 16 7.163 16 16s-7.163 16-16 16c-8.837 0-16-7.163-16-16s7.163-16 16-16zM23.785 9.412h-14.864c-0.768 0-1.391 0.623-1.391 1.391v0 11.335c0 0.768 0.623 1.391 1.391 1.391v0h14.864c0.768 0 1.391-0.623 1.391-1.391v0-11.335c0-0.768-0.623-1.391-1.391-1.391v0zM23.529 11.294v1.882l-7.020 3.938-7.098-3.938v-1.882l7.098 3.938 7.020-3.938z"></path>
</svg>
