<?xml version="1.0" encoding="UTF-8"?>
<svg xmlns="http://www.w3.org/2000/svg" xmlns:xlink="http://www.w3.org/1999/xlink" width="32px" height="32px" viewBox="0 0 32 32" version="1.1">
<g id="surface1">
<path style=" stroke:none;fill-rule:nonzero;fill:rgb(0%,0%,0%);fill-opacity:1;" d="M 16.503906 25.601562 L 15.496094 25.601562 C 14.433594 25.601562 13.566406 24.734375 13.566406 23.671875 L 13.3125 2.117188 C 13.3125 1.054688 14.175781 0.191406 15.238281 0.191406 L 16.761719 0.191406 C 17.824219 0.191406 18.6875 1.054688 18.6875 2.117188 L 18.433594 23.671875 C 18.433594 24.734375 17.566406 25.601562 16.503906 25.601562 Z M 16.503906 25.601562 "/>
<path style=" stroke:none;fill-rule:nonzero;fill:rgb(0%,0%,0%);fill-opacity:1;" d="M 16.503906 31.808594 L 15.496094 31.808594 C 14.433594 31.808594 13.566406 30.945312 13.566406 29.882812 L 13.566406 28.871094 C 13.566406 27.808594 14.433594 26.945312 15.496094 26.945312 L 16.503906 26.945312 C 17.566406 26.945312 18.433594 27.808594 18.433594 28.871094 L 18.433594 29.882812 C 18.433594 30.945312 17.566406 31.808594 16.503906 31.808594 Z M 16.503906 31.808594 "/>
</g>
</svg>
