<!-- Generated by IcoMoon.io -->
<svg version="1.1" xmlns="http://www.w3.org/2000/svg" width="32" height="32" viewBox="0 0 32 32">
<title>exit-fullscreen</title>
<path d="M25.747 12.434c-1.428 0-2.862 0-4.29 0-1.191 0-1.914-0.736-1.914-1.921 0-2.881 0-5.749 0-8.624 0-1.114 0.749-1.889 1.78-1.889 1.037-0.006 1.786 0.775 1.786 1.882 0.013 2.19 0.013 4.392-0.013 6.582 0 0.333 0.090 0.41 0.41 0.41 2.196-0.013 4.392-0.013 6.581 0 1.357 0.013 2.228 1.191 1.793 2.388-0.256 0.711-0.915 1.159-1.703 1.165-1.492 0.006-2.958 0.006-4.43 0.006z"></path>
<path d="M1.816 12.433c-0.794-0.013-1.447-0.455-1.703-1.165-0.435-1.204 0.435-2.382 1.793-2.388 2.196-0.013 4.392-0.013 6.581 0 0.32 0 0.41-0.077 0.41-0.41-0.019-2.19-0.019-4.392-0.013-6.582 0-1.114 0.749-1.889 1.78-1.889 1.037 0 1.78 0.781 1.78 1.889 0 2.881 0 5.749 0 8.624 0 1.191-0.723 1.921-1.914 1.921-1.428 0-2.862 0-4.289 0-1.46 0-2.932 0-4.424 0z"></path>
<path d="M30.184 19.567c0.794 0.013 1.447 0.455 1.703 1.165 0.435 1.204-0.435 2.382-1.793 2.388-2.196 0.013-4.392 0.013-6.581 0-0.32 0-0.41 0.077-0.41 0.41 0.019 2.19 0.019 4.392 0.013 6.582 0 1.114-0.749 1.889-1.78 1.889-1.037 0-1.78-0.781-1.78-1.889 0-2.881 0-5.749 0-8.624 0-1.191 0.723-1.921 1.914-1.921 1.428 0 2.862 0 4.289 0 1.466 0 2.932 0 4.424 0z"></path>
<path d="M6.253 19.567c1.428 0 2.862 0 4.289 0 1.191 0 1.914 0.736 1.914 1.921 0 2.881 0 5.749 0 8.624 0 1.114-0.749 1.889-1.78 1.889-1.037 0-1.78-0.781-1.78-1.889-0.013-2.19-0.013-4.392 0.013-6.582 0-0.333-0.090-0.41-0.41-0.41-2.196 0.013-4.392 0.013-6.582 0-1.357-0.013-2.228-1.191-1.793-2.388 0.256-0.711 0.915-1.159 1.703-1.165 1.485 0 2.951 0 4.424 0z"></path>
</svg>
