<!-- Generated by IcoMoon.io -->
<svg version="1.1" xmlns="http://www.w3.org/2000/svg" width="512" height="512" viewBox="0 0 512 512">
<g id="icomoon-ignore">
</g>
<path d="M313.923 268.319c-4.729 22.591-22.329 40.192-44.659 45.185-9.72 1.313-17.074 9.456-17.074 19.44 0 10.771 8.931 19.702 19.702 19.702 1.313 0 2.627 0 3.94-0.526 38.617-7.88 68.565-38.091 76.445-76.443 0.262-1.315 0.524-2.627 0.524-3.94 0-11.034-8.931-19.703-19.702-19.703-9.72 0-17.601 7.094-19.44 16.287h0.262z"></path>
<path d="M452.368 151.94c-7.88-7.618-20.49-7.093-27.846 0.788-7.618 7.881-7.092 20.49 0.788 27.846 32.837 30.999 47.286 60.157 47.286 75.657 0 42.295-93.784 145.797-216.727 145.797-19.175 0-39.142-2.625-58.581-7.88-10.508-2.889-21.279 3.416-24.168 13.924-2.889 10.507 3.415 21.279 13.923 24.168 23.117 6.304 46.235 9.456 68.827 9.456 136.341 0 256.13-115.325 256.13-185.202 0-29.947-22.329-68.827-59.894-104.028l0.262-0.525z"></path>
<path d="M480.212 59.732c7.618-7.618 7.618-20.227 0-27.846s-20.228-7.618-27.844 0l-70.93 70.928c-39.93-20.49-83.012-32.050-125.307-32.050-136.34 0-256.13 115.325-256.13 185.202 0 40.192 39.93 94.308 95.623 132.663l-63.573 63.572c-7.619 7.618-7.619 20.228 0 27.846 3.941 3.94 8.932 5.779 13.923 5.779s9.983-1.839 13.923-5.779l420.317-420.317zM197.024 255.968c0-32.575 26.533-59.107 59.106-59.107 8.932 0 17.601 2.101 25.219 6.042l-78.546 78.546c-3.678-7.88-6.042-16.286-6.042-25.219l0.262-0.262zM39.405 255.968c0-42.294 93.784-145.798 216.726-145.798 38.091 0 70.928 10.245 96.147 21.542l-42.031 42.031c-16.026-10.508-34.676-16.287-54.379-16.287-54.379 0-98.512 44.133-98.512 98.512 0 19.702 5.78 38.355 16.287 54.379l-49.912 49.913c-55.167-35.727-84.852-82.225-84.852-104.030l0.526-0.262z"></path>
</svg>
