<!-- Generated by IcoMoon.io -->
<svg version="1.1" xmlns="http://www.w3.org/2000/svg" width="512" height="512" viewBox="0 0 512 512">
<g id="icomoon-ignore">
</g>
<path d="M256 153.6c-56.576 0-102.4 45.824-102.4 102.4s45.824 102.4 102.4 102.4c56.576 0 102.4-45.824 102.4-102.4s-45.824-102.4-102.4-102.4zM256 320c-35.328 0-64-28.672-64-64s28.672-64 64-64c35.328 0 64 28.672 64 64s-28.672 64-64 64z"></path>
<path d="M256 76.8c-141.312 0-256 119.552-256 179.2s114.688 179.2 256 179.2c141.312 0 256-119.552 256-179.2s-114.688-179.2-256-179.2zM256 396.8c-124.928 0-217.6-107.776-217.6-140.8s92.672-140.8 217.6-140.8c124.928 0 217.6 107.776 217.6 140.8s-92.672 140.8-217.6 140.8z"></path>
</svg>
