<!-- Generated by IcoMoon.io -->
<svg version="1.1" xmlns="http://www.w3.org/2000/svg" width="32" height="32" viewBox="0 0 32 32">
<title>eye1</title>
<path d="M16.002 4.87c3.012 0.023 5.947 0.952 8.418 2.664 2.888 2.028 5.308 4.643 7.101 7.672l0.48 0.794-0.48 0.795c-1.793 3.029-4.213 5.644-7.101 7.672-2.471 1.712-5.406 2.64-8.418 2.664-3.032-0.022-5.986-0.95-8.48-2.664-2.895-2.002-5.301-4.624-7.042-7.672l-0.48-0.795 0.48-0.794c1.793-3.029 4.213-5.644 7.101-7.672 2.472-1.713 5.408-2.641 8.421-2.664zM16 10.435c-3.458 0-6.261 2.803-6.261 6.261s2.803 6.261 6.261 6.261c1.66 0 3.253-0.66 4.427-1.834s1.834-2.767 1.834-4.427c0-3.458-2.803-6.261-6.261-6.261zM16 11.826c2.689 0 4.87 2.18 4.87 4.87 0 1.291-0.513 2.53-1.426 3.443s-2.152 1.426-3.443 1.426c-2.689 0-4.87-2.18-4.87-4.87s2.18-4.87 4.87-4.87z"></path>
</svg>
