<!-- Generated by IcoMoon.io -->
<svg version="1.1" xmlns="http://www.w3.org/2000/svg" width="512" height="512" viewBox="0 0 512 512">
<g id="icomoon-ignore">
</g>
<path d="M81.144 512c-7.198 0-13.316-2.568-18.355-7.707-5.039-5.134-7.559-11.426-7.559-18.875v-200.622h-29.289c-7.248 0-13.383-2.575-18.403-7.728-5.025-5.154-7.538-11.464-7.538-18.932 0-7.399 2.513-13.659 7.538-18.779 5.021-5.119 11.155-7.678 18.403-7.678h110.172c7.248 0 13.382 2.614 18.403 7.847 5.025 5.232 7.538 11.546 7.538 18.939 0 7.474-2.512 13.73-7.538 18.77-5.020 5.041-11.155 7.56-18.403 7.56h-29.172v200.791c0 7.45-2.519 13.713-7.558 18.791-5.039 5.082-11.118 7.623-18.239 7.623zM81.144 187.139c-7.198 0-13.316-2.569-18.355-7.708-5.039-5.133-7.559-11.388-7.559-18.763v-134.255c0-7.291 2.547-13.514 7.641-18.672 5.089-5.162 11.235-7.743 18.437-7.743 7.12 0 13.172 2.581 18.156 7.743 4.984 5.157 7.477 11.381 7.477 18.672v134.31c0 7.45-2.519 13.713-7.558 18.791-5.039 5.083-11.118 7.624-18.239 7.624zM200.778 167.919c-7.175 0-13.273-2.576-18.294-7.729-5.026-5.153-7.538-11.428-7.538-18.827 0-7.469 2.54-13.763 7.62-18.882 5.076-5.12 11.201-7.68 18.375-7.68h29.118v-88.331c0-7.215 2.509-13.43 7.524-18.643 5.016-5.218 11.126-7.827 18.328-7.827 7.197 0 13.316 2.609 18.355 7.827 5.038 5.213 7.559 11.428 7.559 18.643v88.331h29.397c7.175 0 13.272 2.614 18.294 7.841 5.026 5.233 7.538 11.547 7.538 18.946 0 7.469-2.512 13.723-7.538 18.763-5.021 5.045-11.119 7.567-18.294 7.567h-110.445zM255.748 512c-7.198 0-13.278-2.568-18.239-7.707-4.966-5.134-7.45-11.426-7.45-18.875v-246.256c0-7.369 2.509-13.663 7.524-18.882 5.016-5.214 11.126-7.82 18.328-7.82 7.197 0 13.315 2.606 18.355 7.82 5.038 5.219 7.559 11.513 7.559 18.882v246.256c0 7.45-2.548 13.742-7.64 18.875-5.089 5.139-11.235 7.707-18.437 7.707zM430.856 512c-7.271 0-13.389-2.568-18.355-7.707-4.962-5.134-7.441-11.426-7.441-18.875v-85.871h-29.174c-7.248 0-13.382-2.615-18.403-7.848-5.024-5.228-7.536-11.578-7.536-19.051 0-7.24 2.512-13.418 7.536-18.538 5.021-5.12 11.155-7.68 18.403-7.68h110.281c7.176 0 13.272 2.616 18.294 7.849 5.026 5.228 7.538 11.461 7.538 18.7 0 7.472-2.512 13.769-7.538 18.889-5.021 5.12-11.117 7.678-18.294 7.678h-29.397v86.040c0 7.45-2.519 13.713-7.559 18.791-5.034 5.082-11.153 7.623-18.355 7.623zM430.856 301.892c-7.271 0-13.389-2.582-18.355-7.743-4.962-5.158-7.441-11.459-7.441-18.904v-248.83c0-7.291 2.507-13.514 7.523-18.672 5.016-5.162 11.161-7.743 18.437-7.743 7.199 0 13.29 2.581 18.274 7.743 4.985 5.157 7.477 11.381 7.477 18.672v248.83c0 7.446-2.519 13.747-7.559 18.904-5.034 5.161-11.153 7.743-18.355 7.743z"></path>
</svg>
