<!-- Generated by IcoMoon.io -->
<svg version="1.1" xmlns="http://www.w3.org/2000/svg" width="32" height="32" viewBox="0 0 32 32">
<title>finger</title>
<path d="M10.991 24.365c-1.698-4.131-3.538-7.026-5.519-8.685-2.971-2.489-0.681-5.997 4.574-4.197 0-3.167 0-1.75 0-7.312s5.551-5.562 5.551 0c0 2.208 0 3.774 0 4.696 8.164-0.043 12.247 1.941 12.247 5.952 0 6.017-2.474 6.719-3.095 9.545-3.216 0-7.802 0-13.758 0zM11.050 25.873h13.786v4.596c0 0.846-0.686 1.532-1.532 1.532h-10.723c-0.846 0-1.532-0.686-1.532-1.532v-4.596zM21.39 29.702c0.634 0 1.149-0.514 1.149-1.149s-0.514-1.149-1.149-1.149c-0.634 0-1.149 0.514-1.149 1.149s0.514 1.149 1.149 1.149z"></path>
</svg>
