<!-- Generated by IcoMoon.io -->
<svg version="1.1" xmlns="http://www.w3.org/2000/svg" width="32" height="32" viewBox="0 0 32 32">
<title>fire</title>
<path d="M16.181 12.717c0.356 1.037 0.561 2.231 0.561 3.473 0 2.343-0.73 4.516-1.976 6.302l0.024-0.036c-0.139-0.111-0.125-0.264-0.153-0.417-0.096-1.084-0.283-2.078-0.556-3.035l0.028 0.114c-0.27-0.777-0.599-1.448-0.997-2.070l0.023 0.039c0-0.083-0.097-0.223-0.223-0.167s0 0.153 0 0.25c-0.069 1.972-0.518 3.823-1.275 5.504l0.037-0.092c-0.495 1.035-0.785 2.25-0.785 3.533 0 1.669 0.49 3.223 1.333 4.527l-0.020-0.033 0.779 1.308h-0.097c-2.989-0.903-5.447-2.797-7.052-5.292l-0.030-0.050c-0.83-1.35-1.388-2.954-1.555-4.671l-0.004-0.046c-0.041-0.366-0.065-0.789-0.065-1.219 0-2.051 0.54-3.977 1.486-5.642l-0.030 0.057c0.94-1.76 1.632-3.807 1.962-5.974l0.013-0.106c0-0.125 0-0.32 0.167-0.348s0.167 0.167 0.223 0.278c0.599 0.952 1.077 2.056 1.374 3.232l0.017 0.080c0.181 0 0.209-0.125 0.278-0.209 1.884-2.594 3.201-5.72 3.701-9.111l0.014-0.114c0.111-0.821 0.167-1.656 0.209-2.477 0-0.376 0.083-0.417 0.403-0.209 3.79 2.286 6.519 6.004 7.453 10.386l0.019 0.105v0.153s0 0 0 0.153c0.522-0.646 0.873-1.45 0.972-2.331l0.002-0.021c0.083-0.849 0-1.697 0.083-2.532 0.012-0.002 0.025-0.004 0.039-0.004 0.070 0 0.131 0.034 0.169 0.087l0 0.001c2.015 2.34 3.499 5.196 4.231 8.34l0.026 0.133c0.286 1.114 0.45 2.392 0.45 3.709 0 2.332-0.514 4.545-1.436 6.529l0.040-0.096c-1.244 2.616-3.208 4.719-5.637 6.1l-0.068 0.035-1.962 1.155c-0.083-0.195 0-0.306 0.097-0.403 0.76-1.18 1.423-2.536 1.921-3.97l0.041-0.135c0.427-1.271 0.673-2.735 0.673-4.256 0-3.56-1.349-6.805-3.564-9.251l0.011 0.012c-0.395-0.492-0.849-0.915-1.356-1.266l-0.021-0.014z"></path>
</svg>
