<!-- Generated by IcoMoon.io -->
<svg version="1.1" xmlns="http://www.w3.org/2000/svg" width="32" height="32" viewBox="0 0 32 32">
<title>forbidden</title>
<path d="M16.64 3.84c7.069 0 12.8 5.731 12.8 12.8s-5.731 12.8-12.8 12.8c-7.069 0-12.8-5.731-12.8-12.8s5.731-12.8 12.8-12.8zM7.040 16.64c0 5.302 4.298 9.6 9.6 9.6 2.081 0 4.008-0.662 5.581-1.788l-13.192-13.663c-1.247 1.62-1.989 3.649-1.989 5.851zM16.64 7.040c-1.945 0-3.754 0.578-5.266 1.572l13.105 13.571c1.109-1.566 1.761-3.478 1.761-5.543 0-5.302-4.298-9.6-9.6-9.6z"></path>
</svg>
