<!-- Generated by IcoMoon.io -->
<svg version="1.1" xmlns="http://www.w3.org/2000/svg" width="32" height="32" viewBox="0 0 32 32">
<title>free-place</title>
<path d="M2.8 19.914v7.022c0 0.582 0.472 1.054 1.054 1.054h1.599v2.621h2.606v-2.621h15.93v2.621h2.79v-2.621h1.453c0.582 0 1.054-0.472 1.054-1.054v-7.022c1.809-0.831 2.713-2.139 2.713-3.925 0-2.679-1.899-4.084-3.972-4.084s-4.039 1.194-4.039 4.084c0 1.927 0 4.056 0 6.388-0.376-0.704-0.784-1.056-1.226-1.056-0.662 0-12.868 0-13.503 0-0.423 0-0.823 0.352-1.202 1.056 0-2.963 0-5.092 0-6.388 0-1.944-1.466-4.084-3.951-4.084s-4.108 1.604-4.108 4.084c0 1.654 0.933 2.962 2.8 3.925zM20.439 1.39c3.508 0 6.352 2.844 6.352 6.352l-0.001 2.927c-0.977 0.236-1.881 0.713-2.571 1.412-1.022 1.033-1.636 2.19-1.636 4.065v0l0 3.769h-13.118l-0-3.927c0-1.385-0.557-2.845-1.582-3.905-0.662-0.684-1.513-1.208-2.532-1.446l-0-2.897c0-3.508 2.844-6.352 6.352-6.352h8.736zM18.883 10.704c-0.776 0-1.406 0.629-1.406 1.406s0.629 1.406 1.406 1.406c0.776 0 1.406-0.629 1.406-1.406s-0.629-1.406-1.406-1.406zM13.259 10.704c-0.776 0-1.406 0.629-1.406 1.406s0.629 1.406 1.406 1.406c0.776 0 1.406-0.629 1.406-1.406s-0.629-1.406-1.406-1.406zM13.259 6.486c-0.776 0-1.406 0.629-1.406 1.406s0.629 1.406 1.406 1.406c0.776 0 1.406-0.629 1.406-1.406s-0.629-1.406-1.406-1.406zM18.883 6.486c-0.776 0-1.406 0.629-1.406 1.406s0.629 1.406 1.406 1.406c0.776 0 1.406-0.629 1.406-1.406s-0.629-1.406-1.406-1.406z"></path>
</svg>
