<!-- Generated by IcoMoon.io -->
<svg version="1.1" xmlns="http://www.w3.org/2000/svg" width="32" height="32" viewBox="0 0 32 32">
<title>fullscreen</title>
<path d="M7.101 16.002c0-2.289 0-4.579 0-6.868 0-1.311 0.713-2.023 2.038-2.023 4.565 0 9.131 0 13.707 0 1.347 0 2.049 0.711 2.049 2.067 0 4.556 0 9.101 0 13.658 0 1.367-0.701 2.067-2.082 2.067-4.543 0-9.075 0-13.618 0-1.392 0-2.082-0.7-2.082-2.1-0.011-2.278-0.011-4.534-0.011-6.801z"></path>
<path d="M32 25.781c0 1.434 0 2.856 0 4.29 0 1.189-0.735 1.922-1.915 1.922-2.873 0-5.746 0-8.619 0-1.102 0-1.893-0.745-1.893-1.778s0.779-1.778 1.882-1.789c2.194-0.011 4.387-0.011 6.581 0 0.323 0 0.412-0.067 0.412-0.4-0.011-2.189-0.011-4.39-0.011-6.579 0-1.356 1.18-2.234 2.394-1.789 0.713 0.256 1.169 0.9 1.169 1.7 0 1.478 0 2.956 0 4.423z"></path>
<path d="M6.211 0c1.448 0 2.884 0 4.332 0 1.113 0 1.893 0.733 1.893 1.778 0 1.033-0.779 1.778-1.882 1.789-2.194 0.011-4.387 0.011-6.581 0-0.323 0-0.412 0.067-0.412 0.4 0.011 2.189 0.011 4.39 0.011 6.579-0.011 1.356-1.18 2.234-2.394 1.789-0.679-0.244-1.158-0.889-1.169-1.622-0.011-3.001-0.011-6.001 0-9.001 0-0.967 0.791-1.711 1.782-1.711 1.481 0 2.951 0 4.421 0z"></path>
<path d="M6.21 31.995c-1.425 0-2.862 0-4.287 0-1.18 0-1.915-0.733-1.915-1.923 0-2.856 0-5.723 0-8.579 0-1.145 0.735-1.934 1.782-1.922 1.047 0 1.782 0.789 1.782 1.934 0 2.178 0.011 4.356-0.011 6.534 0 0.333 0.1 0.4 0.412 0.4 2.194-0.011 4.387-0.011 6.581 0 1.347 0.011 2.227 1.2 1.782 2.4-0.256 0.711-0.913 1.156-1.704 1.156-1.481 0.011-2.951 0-4.421 0z"></path>
<path d="M25.787 0c1.425 0 2.862 0 4.287 0 1.192 0 1.915 0.733 1.915 1.923 0 2.878 0 5.745 0 8.624 0 1.111-0.746 1.889-1.782 1.889s-1.782-0.778-1.782-1.889c-0.011-2.189-0.011-4.39 0.011-6.579 0-0.333-0.089-0.411-0.412-0.411-2.194 0.011-4.387 0.011-6.581 0-1.358-0.011-2.227-1.189-1.793-2.389 0.256-0.711 0.913-1.156 1.704-1.167 1.492 0 2.962 0 4.432 0z"></path>
</svg>
