<!-- Generated by IcoMoon.io -->
<svg version="1.1" xmlns="http://www.w3.org/2000/svg" width="32" height="32" viewBox="0 0 32 32">
<title>google</title>
<path d="M16 32c-4.005 0-7.786-1.481-10.703-4.107-3.347-3.014-5.297-7.299-5.297-11.893 0-8.837 7.163-16 16-16 2.996 0 6.009 1.069 9.023 3.134l0.565 0.399-3.134 4.315c-2.349-1.706-4.493-2.514-6.453-2.514-5.891 0-10.667 4.776-10.667 10.667 0 3.066 1.297 5.917 3.532 7.93 1.946 1.753 4.46 2.737 7.134 2.737 4.804 0 8.866-3.175 10.202-7.542l0.129-0.458h-10.331v-5.333h16v2.667c0 8.837-7.163 16-16 16z"></path>
</svg>
