<!-- Generated by IcoMoon.io -->
<svg version="1.1" xmlns="http://www.w3.org/2000/svg" width="512" height="512" viewBox="0 0 512 512">
<g id="icomoon-ignore">
</g>
<path d="M42.64 512c-11.882 0-21.96-4.279-30.235-12.837-8.27-8.558-12.405-18.952-12.405-31.181v-55.745l113.788-104.028v203.79h-71.149zM141.982 512v-117.279h228.036v117.279h-228.036zM398.211 512v-240.389l-121.629-111.549 86.041-78.147 135.139 123.92c4.668 4.541 8.207 9.609 10.615 15.204 2.414 5.593 3.623 11.553 3.623 17.879v229.078c0 12.2-4.151 22.584-12.454 31.152-8.308 8.567-18.365 12.851-30.171 12.851h-71.164zM0.001 372.844v-134.090c0-6.232 1.226-12.251 3.679-18.055s5.972-10.758 10.557-14.864l213.232-194.988c4.043-3.741 8.547-6.485 13.511-8.232 4.969-1.742 9.97-2.613 15.006-2.613s10.035 0.871 14.999 2.613c4.969 1.747 9.485 4.491 13.546 8.232l56.897 52.080-341.428 309.919z"></path>
</svg>
