<svg version="1.1" xmlns="http://www.w3.org/2000/svg" width="512" height="512" viewBox="0 0 512 512">
<path d="M87.311 480.522v0c0-13.829 8.978-25.595 21.364-29.723 4.541-54.389 22.293-106.404 52.737-143.971 63.161-78.126 156.871-64.709 209.093 29.826 18.68 33.851 29.517 73.585 32.923 114.248 12.385 4.231 21.26 15.894 21.26 29.723v0c0 17.339-14.036 31.375-31.375 31.375h-274.526c-17.442 0-31.477-14.139-31.477-31.478z"></path>
<path d="M393.212-0.001h-274.526c-17.338 0-31.374 14.036-31.374 31.271v0c0 13.726 8.978 25.491 21.364 29.62 4.541 54.183 22.292 106.095 52.737 143.558 63.161 77.92 156.872 64.607 209.093-29.723 18.68-33.748 29.517-73.379 32.923-113.938 12.385-4.231 21.26-15.894 21.26-29.62v0c-0.103-17.132-14.139-31.168-31.478-31.168zM336.551 160.278c-33.129 67.29-105.992 74.101-148.202 21.054-23.738-29.826-39.631-75.133-39.733-118.582h215.079c0 33.954-11.868 69.457-27.143 97.528z"></path>
</svg>
