<!-- Generated by IcoMoon.io -->
<svg version="1.1" xmlns="http://www.w3.org/2000/svg" width="512" height="512" viewBox="0 0 512 512">
<path d="M231.035 511.995l-9.222-51.928c-12.984-2.178-25.722-5.596-38.052-10.209l-34.154 40.252-43.213-24.95 17.961-49.536c-10.13-8.394-19.428-17.738-27.77-27.906l-49.813 17.824-24.945-43.216 40.638-34.19c-4.478-12.221-7.789-24.839-9.892-37.686l-52.572-9.565v-49.901l52.592-9.337c2.26-12.722 5.721-25.201 10.328-37.274l-41.035-34.814 24.951-43.214 51.179 18.558c8.151-9.631 17.169-18.491 26.945-26.473l-18.5-51.703 43.213-24.951 35.656 42.389c11.687-4.206 23.729-7.348 35.976-9.385l9.728-54.776h49.896l9.96 54.712c12.124 2.185 24.023 5.455 35.567 9.77l35.935-42.727 43.212 24.948-18.855 52.697c9.428 7.856 18.139 16.539 26.016 25.946l52.462-19.025 24.945 43.218-42.509 36.069c4.301 11.574 7.55 23.513 9.714 35.673l54.62 9.697v49.901l-54.046 9.834c-2.123 12.371-5.373 24.52-9.707 36.299l41.997 35.327-24.951 43.216-51.022-18.259c-8.13 9.875-17.162 18.969-26.986 27.168l18.391 50.709-43.212 24.95-34.454-40.608c-12.178 4.673-24.774 8.177-37.615 10.467l-9.462 52.007h-49.895zM243.207 328.504l20.733-12.718c10.383-6.368 27.252-16.714 37.635-23.082l20.726-12.72c22.029-13.511 21.934-35.287-0.219-48.602l-20.815-12.507c-10.445-6.275-27.395-16.466-37.84-22.738l-20.815-12.512c-22.153-13.313-40.045-3.137-39.942 22.706l0.123 27.846c0.054 12.185 0.137 31.966 0.185 44.151l0.123 27.841c0.102 25.844 18.077 35.855 40.106 22.337z"></path>
</svg>
