<svg width="500" height="500" viewBox="0 0 500 500" fill="none" xmlns="http://www.w3.org/2000/svg">
<g clip-path="url(#clip0_188_80)">
<path d="M41.8224 194.795C34.5863 194.795 28.7335 194.795 22.9872 194.795C9.792 194.682 0.321218 185.657 0.321218 172.91C0.214805 160.05 9.57917 150.8 22.668 150.687C36.9274 150.574 51.2931 150.574 65.5525 150.8C69.277 150.913 71.2988 149.672 73.0014 146.062C79.8119 130.946 86.9416 116.055 93.9649 101.165C106.096 75.6703 125.676 62.5846 152.811 62.5846C217.617 62.4718 282.316 62.4718 347.122 62.5846C373.938 62.5846 393.412 75.5575 405.543 100.714C412.566 115.153 419.483 129.705 425.974 144.37C428.102 149.108 430.443 151.138 435.658 150.913C449.491 150.462 463.432 150.687 477.265 150.8C490.248 150.913 499.718 160.389 499.506 173.136C499.293 185.657 490.035 194.682 477.265 194.795C471.306 194.908 465.241 194.795 458.004 194.795C465.56 205.399 471.732 215.551 479.181 224.576C494.611 243.415 501.527 264.848 499.718 289.891C498.867 301.511 499.506 313.355 499.612 324.975C499.718 340.768 494.079 353.515 481.841 362.765C479.394 364.683 478.755 366.601 478.649 369.534C478.329 380.476 479.819 391.644 477.691 402.473C473.647 422.666 457.366 436.992 437.892 437.331C423.633 437.556 409.267 437.556 395.008 437.331C372.342 436.992 354.464 417.928 353.932 393.9C353.826 388.372 353.507 382.845 354.039 377.43C354.571 372.015 352.549 371.226 347.973 371.226C291.042 371.451 234.005 371.338 177.074 371.338C168.241 371.338 159.303 371.564 150.47 371.226C146.639 371.113 145.894 372.466 145.894 376.189C145.894 384.875 146.746 393.674 145.043 402.248C140.787 422.779 124.612 437.105 104.713 437.331C90.666 437.556 76.5131 437.556 62.4665 437.331C39.3749 436.992 21.4974 417.928 21.1782 393.449C21.1782 390.516 20.9654 387.47 21.1782 384.537C21.8167 373.482 21.8167 363.555 11.2818 356.109C4.25851 351.146 1.17252 341.557 0.746872 332.533C-0.104434 310.987 -0.423674 289.327 0.853284 267.781C1.59818 255.711 6.49319 244.881 13.41 235.067C22.668 221.981 31.8195 209.009 41.8224 194.795ZM249.328 194.795C292.851 194.795 336.374 194.682 380.004 194.908C386.388 194.908 391.815 193.216 397.03 189.493C399.477 187.688 399.903 186.56 398.413 183.514C388.517 163.209 378.833 142.678 369.362 122.147C364.467 111.543 357.125 106.467 345.845 106.467C281.891 106.692 218.043 106.692 154.088 106.467C143.021 106.467 135.679 111.092 130.89 121.583C122.271 140.309 113.332 158.922 104.606 177.535C99.7112 187.914 101.307 191.411 112.374 194.118C115.035 194.795 117.908 194.795 120.781 194.795C163.453 194.795 206.444 194.795 249.328 194.795ZM83.3235 327.005C100.35 327.118 114.396 312.453 114.609 294.517C114.822 276.129 100.882 261.126 83.5364 260.9C66.6167 260.787 52.3573 275.565 52.2509 293.389C52.1445 311.889 66.0846 327.005 83.3235 327.005ZM416.397 327.005C433.423 327.005 447.363 312.227 447.576 294.291C447.682 276.016 433.742 261.013 416.397 260.9C399.477 260.787 385.324 275.678 385.218 293.614C385.111 312.115 399.158 327.118 416.397 327.005Z" fill="#A0A0B1"/>
</g>
<defs>
<clipPath id="clip0_188_80">
<rect width="500" height="500" fill="white"/>
</clipPath>
</defs>
</svg>
