<!-- Generated by IcoMoon.io -->
<svg version="1.1" xmlns="http://www.w3.org/2000/svg" width="512" height="512" viewBox="0 0 512 512">
<g id="icomoon-ignore">
</g>
<path d="M54.901 398.519c-15.139 0-28.074-5.401-38.807-16.204-10.729-10.8-16.093-23.788-16.093-38.955 0-15.269 5.397-28.39 16.191-39.368 10.798-10.979 23.688-16.466 38.669-16.466 2.908 0 5.636 0.315 8.184 0.95 2.549 0.639 5.918 1.339 10.11 2.103l84.268-84.503c-0.894-3.909-1.5-7.231-1.816-9.966-0.317-2.739-0.476-5.519-0.476-8.339 0-15.501 5.5-28.638 16.5-39.409s24.102-16.156 39.305-16.156c15.203 0 28.235 5.452 39.094 16.357 10.859 10.909 16.288 24.018 16.288 39.329 0 4.012-0.892 9.457-2.677 16.334l43.954 44.131c3.558-0.764 6.545-1.4 8.966-1.909s4.937-0.762 7.547-0.762c2.611 0 5.221 0.254 7.834 0.762 2.611 0.508 5.755 1.144 9.433 1.909l62.685-62.105c-0.889-3.554-1.559-6.7-2.005-9.44s-0.67-5.504-0.67-8.293c0-15.357 5.462-28.369 16.39-39.036 10.93-10.668 24.035-16.002 39.313-16.002 15.274 0 28.247 5.34 38.915 16.020 10.665 10.679 15.996 23.657 15.996 38.933 0 15.28-5.377 28.376-16.127 39.288-10.757 10.916-23.687 16.374-38.79 16.374-2.995 0-5.832-0.254-8.507-0.762-2.675-0.512-5.786-1.15-9.341-1.915l-62.11 62.684c0.764 3.554 1.4 6.668 1.908 9.344 0.514 2.675 0.767 5.373 0.767 8.103 0 14.999-5.462 27.969-16.384 38.909-10.925 10.943-23.971 16.414-39.142 16.414-15.269 0-28.361-5.471-39.281-16.414-10.921-10.94-16.38-23.94-16.38-39.001 0-2.923 0.159-5.688 0.476-8.299s0.923-5.887 1.817-9.829l-42.234-42.228c-4.070 0.764-7.392 1.338-9.966 1.72-2.579 0.382-5.279 0.573-8.099 0.573-3.232 0-8.659-0.764-16.277-2.292l-86.005 85.857c0.764 3.522 1.401 6.459 1.909 8.81 0.512 2.348 0.769 4.961 0.769 7.834 0 14.923-5.519 27.807-16.558 38.652-11.035 10.842-24.215 16.265-39.541 16.265z"></path>
</svg>
