<!-- Generated by IcoMoon.io -->
<svg version="1.1" xmlns="http://www.w3.org/2000/svg" width="512" height="512" viewBox="0 0 512 512">
<g id="icomoon-ignore">
</g>
<path d="M23.441 466.062h304.118c6.418 0 11.88 2.221 16.385 6.665 4.51 4.448 6.767 9.834 6.767 16.159 0 6.481-2.257 11.952-6.767 16.414-4.505 4.466-9.967 6.7-16.385 6.7h-304.286c-6.572 0-12.093-2.233-16.561-6.7-4.473-4.462-6.71-9.934-6.71-16.414 0-6.325 2.265-11.711 6.795-16.159 4.525-4.444 10.073-6.665 16.646-6.665zM136.655 334.503l-87.037-86c-9.761-9.468-14.748-21.029-14.963-34.683-0.215-13.657 4.595-25.452 14.43-35.38l42.1-42.799 159.663 156.062-43.081 42.8c-9.76 9.625-21.596 14.437-35.507 14.437-13.907 0-25.775-4.813-35.606-14.437zM330.523 213.601l-158.262-157.445 43.234-42.379c10.072-9.357 22.005-13.948 35.794-13.773s25.603 4.997 35.438 14.464l87.029 86.055c9.873 9.698 14.81 21.404 14.81 35.117 0 13.714-4.937 25.382-14.81 35.008l-43.233 42.952zM469.179 463.662l-354.577-349.421 35.796-35 354.226 349.469c4.918 4.85 7.377 10.597 7.377 17.244s-2.459 12.51-7.377 17.59c-4.921 5.080-10.81 7.639-17.663 7.675-6.857 0.042-12.784-2.477-17.782-7.557z"></path>
</svg>
