<!-- Generated by IcoMoon.io -->
<svg version="1.1" xmlns="http://www.w3.org/2000/svg" width="512" height="512" viewBox="0 0 512 512">
<g id="icomoon-ignore">
</g>
<path d="M68.49 499.2c-18.921 0-35.066-6.644-48.432-19.928-13.371-13.286-20.057-29.339-20.057-48.16 0-18.817 6.678-34.876 20.034-48.178 13.355-13.296 29.492-19.945 48.409-19.945 18.921 0 35.066 6.644 48.433 19.928 13.371 13.281 20.056 29.332 20.056 48.154 0 18.822-6.678 34.881-20.033 48.178-13.355 13.3-29.492 19.952-48.409 19.952zM68.46 460.596c8.267 0 15.278-2.86 21.035-8.579 5.757-5.723 8.635-12.695 8.635-20.918s-2.877-15.197-8.629-20.924c-5.752-5.726-12.763-8.589-21.029-8.589s-15.278 2.861-21.035 8.584c-5.757 5.723-8.635 12.695-8.635 20.918 0 8.219 2.877 15.191 8.63 20.918s12.762 8.59 21.029 8.59zM180.155 498.81c-6.468 0-11.209-2.731-14.226-8.194s-3.166-11.317-0.446-17.564c3.135-6.642 5.338-13.471 6.61-20.486 1.276-7.015 1.914-14.172 1.914-21.471 0-28.838-10.037-53.488-30.114-73.947-20.076-20.456-44.623-30.901-73.641-31.336-3.493-0.090-7.056-0.014-10.69 0.226-3.633 0.245-7.191 0.66-10.672 1.247-6.58 1.094-12.406-0.096-17.475-3.57-5.069-3.475-7.605-8.237-7.605-14.284v-67.204c0-11.417 4.087-21.191 12.259-29.321 8.176-8.133 18.004-12.2 29.482-12.2h30.067v-84.079c0-28.799 10.13-53.302 30.39-73.51 20.256-20.211 44.974-30.317 74.157-30.317 21.25 0 40.793 5.723 58.63 17.168 17.832 11.445 30.796 27.013 38.89 46.705l159.647 381.822h34.5c5.541 0 10.288 1.969 14.238 5.906 3.954 3.94 5.93 8.675 5.93 14.203 0 5.675-1.976 10.463-5.93 14.36-3.95 3.899-8.697 5.847-14.238 5.847h-118.258c-5.694 0-10.512-1.964-14.454-5.894s-5.913-8.7-5.913-14.314c0-5.614 1.97-10.368 5.913-14.262 3.942-3.897 8.76-5.847 14.454-5.847h41.151l-156.257-365.288c-5.238-11.721-13.108-21.332-23.611-28.832-10.499-7.501-22.112-11.251-34.839-11.251-17.637 0-32.69 6.208-45.16 18.623s-18.704 27.376-18.704 44.882v84.080h42.439c24.971 0 46.257 8.754 63.858 26.263 17.599 17.505 26.397 38.684 26.397 63.534v167.058c0 11.344-4.059 21.055-12.176 29.13-8.123 8.078-17.883 12.118-29.284 12.118h-47.232z"></path>
</svg>
