<!-- Generated by IcoMoon.io -->
<svg version="1.1" xmlns="http://www.w3.org/2000/svg" width="512" height="512" viewBox="0 0 512 512">
<g id="icomoon-ignore">
</g>
<path d="M472.731 490.659l-60.308-59.855h-262.703c-12.789 0-23.633-4.538-32.533-13.617s-13.349-20.115-13.349-33.112v-44.638h272.365c12.722 0 23.55-4.524 32.483-13.572 8.933-9.044 13.4-20.062 13.4-33.057v-174.43h43.93c12.786 0 23.644 4.539 32.577 13.618 8.938 9.078 13.406 20.113 13.406 33.106v310.723c0 30.29-27.921 26.368-39.269 14.836zM0 345.077v-285.548c0-12.992 4.468-24.029 13.406-33.106 8.933-9.082 19.793-13.624 32.578-13.624h290.098c12.722 0 23.55 4.542 32.483 13.624 8.931 9.078 13.398 20.114 13.398 33.106v192.499c0 12.996-4.466 24.017-13.398 33.061-8.933 9.044-19.761 13.566-32.483 13.566h-235.226l-61.702 62.544c-14.431 14.639-39.154 5.843-39.154-16.122z"></path>
</svg>
