<!-- Generated by IcoMoon.io -->
<svg version="1.1" xmlns="http://www.w3.org/2000/svg" width="512" height="512" viewBox="0 0 512 512">
<g id="icomoon-ignore">
</g>
<path d="M50.81 399.666c16.382 54.106 57.989 66.68 117.805 66.68 6.68 0 11.663 0.738 16.557 4.306 4.894 3.572 7.99 8.274 9.287 14.106 1.246 6.212 0.141 11.835-3.315 16.873-3.463 5.034-8.266 7.899-14.41 8.596-73.487 8.37-150.078-17.162-171.484-95.421-6.944-25.386-9.711-62.668 9.197-94.062 30.352-50.391 81.508-42.247 119.952-77.286 15.815-14.419 9.579-40.726-9.224-46.715-10.698-3.41-26.762-4.024-48.194-1.847-6.555 0.849-12.299-0.518-17.233-4.101-4.937-3.579-7.916-8.467-8.939-14.666-1.247-6.21 0.047-11.766 3.88-16.665 3.835-4.893 8.941-7.667 15.319-8.32 33.374-3.054 56.858-0.446 77.189 8.32 38.954 16.788 53.992 59.789 37.972 96.793-12.202 28.188-40.304 40.823-68.802 51.2-48.090 17.438-81.851 38.4-65.56 92.209zM347.202 362.096l-134.882-75.815 159.55-269.269c4.873-8.218 11.804-13.434 20.791-15.648 8.988-2.209 17.76-1.115 26.314 3.283l75.246 41.946c8.663 4.81 14.198 11.619 16.608 20.426s1.099 17.45-3.928 25.929l-159.7 269.148zM228.708 447.017c-7.232 3.69-14.524 3.469-21.876-0.663-7.351-4.13-11.184-10.132-11.494-18.011l-5.881-105.028 135.842 76.351-96.59 47.351z"></path>
</svg>
