<!-- Generated by IcoMoon.io -->
<svg version="1.1" xmlns="http://www.w3.org/2000/svg" width="512" height="512" viewBox="0 0 512 512">
<g id="icomoon-ignore">
</g>
<path d="M97.436 512c-12.816 0-23.727-4.51-32.733-13.532-9.002-9.022-13.503-19.957-13.503-32.804v-419.226c0-12.873 4.501-23.831 13.503-32.874 9.007-9.043 19.918-13.565 32.733-13.565h317.025c12.846 0 23.78 4.521 32.804 13.565 9.022 9.043 13.534 20.001 13.534 32.874v419.226c0 12.848-4.512 23.783-13.534 32.804-9.024 9.022-19.958 13.532-32.804 13.532h-317.026zM255.929 431.113c33.48 0 62.029-11.826 85.648-35.478 23.618-23.657 35.428-52.262 35.428-85.82 0-33.551-11.801-62.163-35.402-85.832-23.606-23.67-52.15-35.504-85.635-35.504-33.48 0-62.029 11.826-85.647 35.478-23.618 23.655-35.428 52.263-35.428 85.819 0 33.553 11.8 62.163 35.401 85.833 23.606 23.67 52.151 35.504 85.635 35.504zM256.434 379.18c-9.363 0-18.391-1.737-27.082-5.209-8.697-3.469-16.511-8.428-23.445-14.876l98.806-99.026c7.142 6.479 12.339 14.053 15.591 22.72 3.251 8.672 4.877 17.793 4.877 27.365 0 19.251-6.684 35.568-20.054 48.954-13.365 13.381-29.596 20.072-48.694 20.072zM150.938 120.498c6.172 0 11.328-2.090 15.47-6.27 4.137-4.176 6.206-9.329 6.206-15.458 0-6.117-2.109-11.248-6.327-15.394-4.222-4.15-9.34-6.225-15.355-6.225-6.103 0-11.224 2.084-15.361 6.251-4.142 4.168-6.212 9.293-6.212 15.375s2.082 11.222 6.244 15.42c4.159 4.201 9.27 6.302 15.335 6.302zM234.677 120.498c6.103 0 11.226-2.115 15.367-6.347 4.137-4.227 6.207-9.354 6.207-15.382 0-6.117-2.080-11.248-6.238-15.394-4.157-4.15-9.289-6.225-15.392-6.225-6.105 0-11.225 2.084-15.362 6.251-4.141 4.168-6.212 9.293-6.212 15.375s2.082 11.222 6.244 15.42c4.159 4.201 9.287 6.302 15.387 6.302z"></path>
</svg>
