<svg width="500" height="500" viewBox="0 0 500 500" fill="none" xmlns="http://www.w3.org/2000/svg">
<path d="M444.647 137.522C436.091 112.649 422.48 91.3161 399.437 76.7752C388.742 70.0788 377.464 64.4346 365.506 60.0341C328.268 46.3543 289.475 41.7624 247.668 41.6667C207.805 41.8581 166.679 47.1196 127.303 63.0954C93.7597 76.6796 69.2589 98.7778 57.0084 133.217C48.7443 156.559 44.0774 180.379 42.4246 204.964C40.1884 237.968 42.8135 270.494 51.4666 302.541C60.703 336.693 78.1064 364.914 110.969 381.942C112.913 382.994 113.205 384.429 113.497 386.151C115.344 397.343 117.677 408.536 119.038 419.824C123.414 456.272 162.401 468.134 187.777 449.863C205.861 436.852 225.014 425.277 243.682 412.937C245.335 411.884 246.89 411.023 249.029 411.023C260.891 410.928 272.752 410.449 284.614 409.397C315.531 406.718 345.671 400.692 374.547 389.021C409.743 374.767 433.466 350.277 444.939 314.308C451.842 292.592 456.023 270.589 457.481 248.013C460.106 210.417 456.898 173.491 444.647 137.522ZM181.749 175.691C181.555 180.953 182.138 186.119 180.971 191.189C178.735 201.042 170.374 207.451 159.873 206.878C149.276 206.304 141.206 199.416 140.623 189.18C140.039 180.474 140.039 171.482 140.623 162.777C141.206 152.732 149.47 145.27 159.679 144.601C170.082 144.027 178.541 150.245 181.166 160.098C182.332 165.36 181.555 170.621 181.749 175.691ZM295.892 292.018C270.71 316.412 228.515 316.03 203.625 291.444C199.347 287.617 197.694 283.026 197.888 276.138C198.083 270.302 201.972 264.85 208.097 261.788C215.292 258.153 222.195 258.918 228.806 263.989C237.168 270.398 243.779 273.459 250.293 273.459C256.807 273.459 263.224 270.398 271.002 264.18C280.044 257.292 290.058 257.962 297.448 265.998C304.739 274.033 303.962 284.174 295.892 292.018ZM359.769 187.745C359.186 198.65 349.949 207.451 339.06 207.451C328.463 207.451 319.032 199.033 318.545 188.319C317.962 180.092 318.157 171.96 318.545 163.925C319.323 152.445 327.976 144.792 339.643 144.983C351.116 145.175 359.478 153.21 360.061 164.69C359.866 168.708 359.866 172.917 359.866 176.935C359.769 180.474 359.964 184.11 359.769 187.745Z" fill="#A0A0B1"/>
</svg>
