<?xml version="1.0" encoding="utf-8"?>
<!-- Generator: Adobe Illustrator 26.4.1, SVG Export Plug-In . SVG Version: 6.00 Build 0)  -->
<svg version="1.1" id="Layer_1" xmlns="http://www.w3.org/2000/svg" xmlns:xlink="http://www.w3.org/1999/xlink" x="0px" y="0px"
	 viewBox="0 0 500 500" style="enable-background:new 0 0 500 500;" xml:space="preserve">
<style type="text/css">
	.st0{fill:#A0A0B1;}
</style>
<g>
	<path class="st0" d="M485.4,3.6c8.2,3.8,10.8,10.3,10.7,19.2c-0.4,27.5-0.1,55.1-0.2,82.6c0,11.7-10.8,18.9-20.7,13.9
		c-5.7-2.9-8.2-7.7-8.2-14.1c0-22.7-0.1-45.5,0.1-68.2c0-3.6-0.6-4.8-4.6-4.8c-21.8,0.2-43.5,0.1-65.3,0.1
		c-10.7,0-16.2-3.4-18.2-11.1c-1.8-6.9,1.4-12.6,10.2-17.7C421.3,3.6,453.3,3.6,485.4,3.6z"/>
	<path class="st0" d="M3.9,389.3c0.2-0.2,0.6-0.3,0.7-0.5c3.7-7.8,9.8-11.4,16.6-9.8c7.3,1.7,11.5,7.5,11.5,16
		c0,22.6,0.1,45.2-0.1,67.7c0,3.9,1.2,4.6,4.8,4.6c23-0.2,46.1-0.1,69.1,0c7.6,0,13.6,5.4,14.6,12.6c0.9,7.1-3.8,14-11.1,15.7
		c-1.8,0.4-3.8,0.4-5.7,0.4c-27,0-54.1-0.2-81.1,0.2c-8.9,0.1-15.4-2.5-19.2-10.7C3.9,453.5,3.9,421.4,3.9,389.3z"/>
	<path class="st0" d="M110.6,3.6c0.1,0.8,0.8,0.8,1.4,1c6.8,3.2,10.4,9.8,8.9,16.3c-1.6,7.1-7.3,11.5-15,11.6c-20.1,0-40.3,0-60.4,0
		c-4.1,0-9.5-1.8-12,0.7s-0.7,7.9-0.7,12c-0.1,19.8,0,39.7,0,59.5c0,8.5-4.2,14.3-11.6,16c-6.8,1.5-12.8-2-16.5-9.8
		c-0.1-0.2-0.5-0.3-0.7-0.5c0-31.7,0-63.5,0-95.2C5.8,9.3,9.7,5.5,15.4,3.6C47.2,3.6,78.9,3.6,110.6,3.6z"/>
	<path class="st0" d="M89.4,249.8c0-39,0-77.9,0-116.9c0-34.4,23.8-58.4,58.2-58.4c68.2-0.1,136.4-0.1,204.7,0
		c34.4,0,58.1,24,58.1,58.4c0,77.9,0,155.8,0,233.7c0,34.4-23.8,58.4-58.2,58.4c-68.2,0.1-136.4,0.1-204.7,0
		c-34.3,0-58.1-24.1-58.1-58.4C89.4,327.7,89.4,288.8,89.4,249.8z M248.5,357.5c8.3-0.1,15.1-0.7,21.9-1.8
		c21.6-3.7,40.9-12.3,56.7-27.9c5.9-5.9,6-14.5,0.6-20.3s-14.2-6.4-20.2-0.6c-14.5,13.8-32,20.3-51.5,21.4
		c-23.3,1.3-44.7-4.3-62.4-20.5c-7-6.4-15.5-6.5-21.3-0.3s-5.2,14.9,1.6,21.3C195.2,348.9,221.2,356.8,248.5,357.5z M264.3,205.5
		L264.3,205.5c0.1-12,0.1-24,0-36.1c0-9.7-5.9-16.2-14.5-16.2s-14.3,6.6-14.3,16.3c0,22.4,0,44.9,0,67.3c0,10.5-2.6,13.6-13,15.1
		c-7.9,1.2-13.4,7.8-12.9,15.3c0.5,7.9,6.9,13.5,15.3,13.4c21-0.1,38.8-17.5,39.4-38.7C264.6,229.8,264.3,217.7,264.3,205.5z
		 M197.1,177.2c0-3.8,0.2-7.7,0-11.5c-0.4-7.7-6.8-13.9-14.4-13.9c-7.5,0-14.1,6.2-14.3,13.9c-0.2,7.3-0.2,14.7,0,22.1
		c0.2,7.9,6.5,13.9,14.1,14c7.9,0.1,14.3-5.9,14.6-14C197.2,184.3,197.1,180.7,197.1,177.2z M331.6,177.3c0-3.7,0.1-7.4,0-11
		c-0.3-8.1-6.6-14.4-14.4-14.4c-7.7,0-14.2,6.3-14.4,14.3c-0.2,7.2-0.2,14.4,0,21.6c0.2,7.9,6.4,13.9,14.1,14
		c7.9,0.1,14.3-5.9,14.7-14C331.7,184.3,331.6,180.8,331.6,177.3z"/>
	<path class="st0" d="M495.9,437.7c0,14.1,0,28.2,0,42.3c0,10.2-5.8,16.1-16.1,16.1c-28.3,0-56.7,0-85,0c-9.6,0-16.2-5.9-16.2-14.5
		c0.1-8.5,6.6-14.3,16.3-14.3c22.6,0,45.1-0.1,67.7,0.1c3.6,0,4.5-0.8,4.4-4.4c-0.2-22.6-0.1-45.2-0.1-67.8
		c0-9.8,5.8-16.3,14.3-16.4c8.6-0.1,14.5,6.5,14.5,16.2C496,409.2,495.9,423.5,495.9,437.7z"/>
</g>
</svg>
