<!-- Generated by IcoMoon.io -->
<svg version="1.1" xmlns="http://www.w3.org/2000/svg" width="512" height="512" viewBox="0 0 512 512">
<g id="icomoon-ignore">
</g>
<path d="M256.026 512c-35.453 0-68.73-6.724-99.827-20.17-31.097-13.45-58.197-31.712-81.299-54.781-23.105-23.070-41.366-50.144-54.782-81.22-13.412-31.081-20.118-64.348-20.118-99.803 0-35.453 6.723-68.73 20.17-99.827 13.451-31.098 31.712-58.197 54.782-81.298 23.070-23.105 50.144-41.366 81.22-54.782 31.079-13.412 64.347-20.118 99.802-20.118 35.453 0 68.73 6.723 99.827 20.17 31.098 13.451 58.198 31.712 81.298 54.782 23.106 23.070 41.366 50.144 54.783 81.22 13.412 31.079 20.118 64.347 20.118 99.802 0 35.453-6.724 68.73-20.17 99.827-13.45 31.098-31.712 58.198-54.781 81.298-23.070 23.106-50.144 41.366-81.22 54.783-31.081 13.412-64.348 20.118-99.803 20.118zM256 470.781c25.5 0 49.947-4.231 73.337-12.691 23.397-8.462 44.656-20.719 63.778-36.773l-302.341-302.433c-15.825 19.382-28.041 40.728-36.65 64.037-8.605 23.309-12.907 47.668-12.907 73.078 0 59.913 20.819 110.688 62.456 152.325s92.412 62.457 152.326 62.457zM420.796 393.115c15.534-19.091 27.748-40.339 36.642-63.744s13.342-47.862 13.342-73.371c0-59.913-20.819-110.688-62.457-152.326s-92.412-62.456-152.325-62.456c-25.397 0-49.745 4.302-73.046 12.907-23.3 8.608-44.656 20.94-64.070 36.994l301.911 301.995z"></path>
</svg>
