<!-- Generated by IcoMoon.io -->
<svg version="1.1" xmlns="http://www.w3.org/2000/svg" width="32" height="32" viewBox="0 0 32 32">
<title>return</title>
<path d="M26.714 4.859l2.304-2.399c0.259-0.269 0.616-0.422 0.99-0.422 0.758 0 1.372 0.614 1.372 1.372v0 8.156c0 1.137-0.921 2.058-2.058 2.058v0h-7.804c-0.354 0-0.695-0.137-0.95-0.382-0.547-0.525-0.564-1.393-0.039-1.94v0l3.351-3.489c-0.049-0.024-0.091-0.058-0.125-0.103-1.982-2.613-4.802-3.712-8.107-3.712-6.268 0-11.060 5.251-11.060 12.203 0 6.483 5.097 11.84 11.060 11.84 4.929 0 7.487-2.47 10.509-7.118 0.517-0.795 1.499-1.61 2.797-0.966s1.181 2.536 0.679 3.342c-3.476 5.576-7.243 8.702-13.985 8.702-8.408 0-15.028-7.405-15.028-15.801 0-8.775 6.748-16.199 15.028-16.199 5.323 0 8.336 2.161 10.84 4.632l0.227 0.226z"></path>
</svg>
