<svg width="500" height="500" viewBox="0 0 500 500" fill="none" xmlns="http://www.w3.org/2000/svg">
<path d="M208.3 164.6C204.7 160 204.1 156 205.3 150.5C212.7 114.8 208 80.8 189.6 49.2C178.2 29.7 162.6 15 140.4 8.29998C138.6 7.79998 136.7 7.59998 134.8 7.19998C118.3 4.69998 110.6 7.19998 110.6 7.19998C108.9 7.59998 107.2 7.79998 105.5 8.29998C81.6001 15.5 65.2001 31.7 53.5001 52.9C35.7001 85.1 32.2001 119.4 40.5001 155.1C41.0001 157.3 41.0001 158.9 39.5001 160.7C23.1001 180.5 13.2001 203.1 9.30006 228.3C8.70006 233.3 7.60006 246.9 9.70006 273C13.6001 295.7 22.2001 316.6 36.7001 334.8C58.2001 361.8 85.8001 378.1 120.9 379C152.5 379.8 178.8 367.1 200.4 344.5C246.2 296.2 249.7 218.1 208.3 164.6Z" fill="#A0A0B1"/>
<path d="M349.8 162.7C347.6 160 346.6 157.6 347.4 153.8C355.7 117.1 351.4 82.0001 332.4 49.2001C321.1 29.7001 305.4 15.0001 283.2 8.30006C282.3 8.00006 281.4 7.80006 280.4 7.70006C268.5 5.90006 258 6.70006 253.9 7.20006C253.5 7.30006 253 7.30006 252.6 7.40006C252.3 7.40006 252.1 7.50006 252.1 7.50006C237.2 10.9001 225.1 18.8001 214.4 29.4001C212.8 31.0001 212 32.2001 213.5 34.6001C234.1 69.3001 240.9 106.8 235.1 146.5C234.5 150.5 235.4 153.3 237.4 156.5C273.4 214.1 275.3 273.1 243.9 333.2C237.3 345.8 228.5 356.7 218.4 367.1C232.1 374.3 246.3 378.5 261.3 379C297.9 380.1 327.1 364.9 349.7 336.9C390.3 286.9 390.1 212.8 349.8 162.7Z" fill="#A0A0B1"/>
<path d="M481.1 462.8H466.6C466.6 462.6 466.6 462.3 466.6 462C466.8 454.4 466.8 446.8 466.6 439.2C466.5 436.4 467.8 436.2 469.9 436.2C473.2 436.3 476.6 436.3 479.9 436.2C488.8 436.1 495.1 430.2 495.2 422C495.3 413.8 488.9 407.7 480.1 407.6C476.8 407.6 473.4 407.4 470.1 407.7C467 408 466.5 406.8 466.5 404C466.6 391.5 466.6 378.9 466.6 366.4C466.6 356.3 460.8 350.5 450.6 350.5C422.8 350.5 395.1 350.5 367.3 350.5C357.2 350.5 351.4 356.3 351.4 366.4C351.4 379.1 351.3 391.8 351.4 404.5C351.4 406.9 350.8 407.8 348.3 407.7C344.5 407.5 340.7 407.5 336.9 407.7C328.9 408 322.8 414.4 322.8 422.1C322.9 429.7 328.9 435.9 336.7 436.2C340 436.3 343.4 436.4 346.7 436.2C350.2 435.9 351.7 436.7 351.5 440.7C351.1 447.3 351.2 454 351.5 460.7C351.5 461.6 351.5 462.3 351.4 462.9H294.4C294.2 462.2 294.2 461.4 294.2 460.4C294.3 442.9 294.2 425.5 294.3 408C294.3 405.3 293.9 404.4 290.9 405C274.2 408.5 257.5 408.6 240.9 404.9C237.6 404.2 237 405.2 237 408.3C237.1 425.8 237 443.2 237.1 460.7C237.1 461.6 237.1 462.3 236.9 462.8H151.4C151.3 462.3 151.2 461.6 151.2 460.7C151.4 443.1 151.2 425.5 151.3 407.9C151.3 405.1 150.7 404.4 147.9 405C139.8 406.8 131.6 407.5 123.4 407.6C113.7 407.7 104.1 406.4 94.2 404.5C94.2 406.4 94.2 407.9 94.2 409.5C94.2 426.5 94.1 443.5 94.3 460.4C94.3 461.4 94.3 462.1 94.1 462.8H19.1C11.3 462.8 5 469.1 5 476.9V479.4C5 487.2 11.3 493.5 19.1 493.5H481C488.8 493.5 495.1 487.2 495.1 479.4V476.9C495.2 469.1 488.9 462.8 481.1 462.8ZM379.9 461.7C380.1 454.2 380.1 446.8 379.9 439.3C379.8 436.8 380.5 436.1 383 436.1C400.3 436.2 417.6 436.2 434.9 436.1C437.4 436.1 438.1 436.7 438.1 439.2C437.9 446.7 437.9 454.1 438.1 461.6C438.1 462 438.1 462.4 438 462.7H380C380 462.5 379.9 462.1 379.9 461.7Z" fill="#A0A0B1"/>
</svg>
