<svg width="500" height="500" viewBox="0 0 500 500" fill="none" xmlns="http://www.w3.org/2000/svg">
<path d="M241.8 214C241.8 173.2 263.2 137.3 295.3 117C289.1 63.3998 243.5 21.7998 188.3 21.7998H179.6C120 21.7998 71.7999 70.0998 71.7999 129.6V138.3C71.7999 197.8 120 246.1 179.6 246.1H188.3C208.3 246.1 227 240.6 243.1 231.1C242.2 225.5 241.8 219.8 241.8 214Z" fill="#A0A0B1"/>
<path d="M195.4 412.6V383.8C195.4 338 228.9 299.9 272.7 292.7C267 286.6 261.9 279.8 257.7 272.6H89.5C46.3 272.6 11.2 307.7 11.2 350.9V397.5C11.2 440.7 46.3 475.8 89.5 475.8H220.4C204.9 459.3 195.4 437 195.4 412.6Z" fill="#A0A0B1"/>
<path d="M425.4 475.8H287.8C252.8 475.8 224.4 447.4 224.4 412.4V383.6C224.4 348.6 252.8 320.2 287.8 320.2H425.4C460.4 320.2 488.8 348.6 488.8 383.6V412.4C488.8 447.4 460.4 475.8 425.4 475.8Z" fill="#A0A0B1"/>
<path d="M356.6 300C309.2 300 270.8 261.6 270.8 214.2C270.8 166.8 309.2 128.4 356.6 128.4C404 128.4 442.4 166.8 442.4 214.2C442.4 261.5 404 300 356.6 300Z" fill="#A0A0B1"/>
</svg>
