<!-- Generated by IcoMoon.io -->
<svg version="1.1" xmlns="http://www.w3.org/2000/svg" width="512" height="512" viewBox="0 0 512 512">
<g id="icomoon-ignore">
</g>
<path d="M58.34 77.064c3.909 0.072 7.817 0.048 11.864 0.025h0.002c2.076-0.012 4.188-0.025 6.355-0.025v17.466c0.084 12.308 7.845 20.813 19.001 20.885s19.194-8.397 19.278-20.597v-17.767c2.215 0 4.383 0.070 6.511 0.138v0 0 0 0 0h0.001c4.784 0.153 9.36 0.299 13.785-0.365 5.028-0.678 9.787-2.673 13.796-5.781 5.998-5.062 7.077-12.368 4.258-19.758-3.095-8.145-9.429-12.2-17.994-12.523-4.422-0.167-8.853-0.112-13.386-0.057-2.305 0.029-4.636 0.057-7.006 0.057v-13.555c0-11.049-2.495-25.191-19.29-25.191-15.703 0-19.002 14.047-19.002 25.191v13.471c-2.279 0-4.475-0.020-6.615-0.038-4.121-0.037-8.034-0.072-11.943 0.038-11.72 0.408-19.961 8.733-19.721 19.685 0.264 10.677 8.625 18.486 20.105 18.702zM57.681 296.767c-0.816 3.899-2.339 4.798-5.938 4.798-10.389-0.168-20.705-0.24-31.081-0.072-12.668 0.312-23.152-11.084-20.141-23.68 0.014-0.054 0.032-0.108 0.049-0.162v-0c0.041-0.126 0.083-0.252 0.083-0.377 2.333-9.334 8.191-18.784 13.733-27.728 2.379-3.839 4.699-7.583 6.659-11.186 7.63-13.975 15.175-27.999 22.373-42.213 13.447-26.463 34.284-40.030 63.578-41.314 4.686-0.205 9.362-0.605 14.453-1.040h0.004l0.006-0.001 0.010-0.001c2.369-0.202 4.827-0.412 7.419-0.614-0.627 0.935-1.192 1.776-1.712 2.55-1.228 1.832-2.209 3.293-3.195 4.743-24.171 35.519-45.872 72.395-59.979 113.265-2.593 7.536-4.703 15.228-6.322 23.031zM213.746 454.875c37.283-8.281 70.643-25.649 103.032-44.986 9.587-5.709 18.937-11.827 28.461-18.056l0.007-0.005c4.060-2.656 8.151-5.332 12.306-8.007 0.231 1.299 0.344 2.616 0.336 3.935-0.399 3.635-0.716 7.281-1.034 10.925v0.002c-0.635 7.3-1.269 14.597-2.565 21.798-3.419 18.92-13.795 33.745-30.481 43.042-18.377 10.257-36.971 20.189-55.565 30.087-3.599 1.911-7.164 4.466-10.786 7.065h-0c-9.745 6.984-19.891 14.258-32.134 10.086-4.618-1.558-8.605-4.577-11.358-8.601-2.755-4.019-4.127-8.827-3.912-13.7 0.273-5.2 0.229-10.406 0.185-15.606-0.037-4.394-0.075-8.789 0.079-13.183 0.060-1.668 1.956-4.475 3.431-4.795zM490.707 36.745c15.163 69.924 6.19 136.536-27.399 199.719-21.712 40.786-53.189 73.162-88.793 101.689-13.24 10.629-26.912 20.664-40.488 30.63l-0.005 0.003c-6.188 4.541-12.356 9.069-18.454 13.632l-185.552-185.995c2.624-3.754 5.246-7.576 7.892-11.429l0.001-0.002c6.087-8.868 12.289-17.901 18.869-26.656 24.16-32.173 50.047-62.858 82.435-87.174 61.359-46.124 130.407-64.31 206.508-55.721 8.332 0.938 16.664 2.589 24.997 4.241 1.263 0.251 2.53 0.502 3.793 0.75 8.998 1.752 14.262 7.389 16.195 16.314zM304.652 247.533c9.214 3.874 19.104 5.889 29.1 5.929 10.002 0.1 19.925-1.775 29.202-5.518s17.722-9.279 24.854-16.292c7.132-7.012 12.81-15.364 16.709-24.576s5.94-19.102 6.010-29.104c0.141-10.049-1.709-20.028-5.442-29.358s-9.277-17.831-16.312-25.008c-7.034-7.178-15.42-12.894-24.673-16.815s-19.192-5.973-29.242-6.035c-10.050-0.088-20.017 1.817-29.326 5.605s-17.774 9.386-24.904 16.468c-7.131 7.082-12.787 15.507-16.64 24.79s-5.827 19.236-5.808 29.286c-0.089 9.995 1.799 19.911 5.553 29.174s9.302 17.696 16.325 24.809c7.022 7.113 15.381 12.77 24.596 16.644zM278.644 402.702l-169.501-169.969c-1.117 2.294-2.253 4.574-3.388 6.851-2.424 4.865-4.843 9.718-7.049 14.669-8.278 18.629-15.595 37.559-17.671 58.107-0.399 2.981-0.096 6.014 0.885 8.856s2.613 5.418 4.765 7.518l96.374 96.603c4.355 4.368 9.668 6.608 15.726 5.639 8.656-1.224 17.232-2.961 25.684-5.195 19.145-5.506 37.115-13.855 54.174-23.080zM479.268 422.566c4.177-0.024 8.072-0.045 12.002 0.025 12.070 0.204 20.778 8.361 20.731 19.339-0.051 10.974-8.699 18.866-20.923 19.012h-18.772c0 2.313 0.030 4.565 0.064 6.779v0 0 0 0c0.060 4.313 0.12 8.478-0.064 12.629-0.409 8.938-5.986 16.050-13.819 18.308s-16.664-0.61-20.935-7.701c-1.903-3.447-3.029-7.274-3.298-11.204-0.375-4.091-0.298-8.226-0.217-12.685v0 0 0 0 0-0.005c0.038-1.967 0.072-4.002 0.072-6.122-2.103 0-4.151 0.009-6.161 0.013h-0.009c-3.905 0.013-7.663 0.026-11.416-0.013-12.404-0.145-20.681-7.833-20.681-19.084 0-11.255 8.301-19.050 20.621-19.267 3.638-0.047 7.281-0.033 11.193-0.017 2.061 0.008 4.194 0.017 6.442 0.017 0-2.070-0.009-4.095-0.017-6.087-0.013-3.894-0.026-7.669 0.017-11.438 0.141-12.248 8.178-20.849 19.096-20.813 10.913 0.036 18.977 8.817 19.19 20.945 0.055 3.651 0.038 7.297 0.022 11.156v0.010c-0.009 2.009-0.022 4.074-0.022 6.228 2.406 0 4.685-0.013 6.882-0.025zM117.719 394.389c-7.701-7.809-19.349-7.642-27.722 0.539-4.464 4.36-8.833 8.763-13.225 13.19-2.206 2.224-4.418 4.452-6.651 6.686-4.321 4.33-8.645 8.658-12.969 12.985l-0.014 0.013c-11.735 11.745-23.471 23.495-35.144 35.296-13.063 13.196-5.998 33.048 11.192 33.048 13.056 0 25.637-14.010 35.854-25.389 2.756-3.067 5.339-5.947 7.715-8.307 13.539-13.512 27.026-27.084 40.462-40.712 8.013-8.109 8.025-19.721 0.504-27.351zM93.044 473.297c12.86-13.627 26.055-26.964 39.67-39.836 7.161-6.767 18.714-5.35 25.455 1.523s7.941 17.919 1.308 25.036c-9.125 9.757-18.485 19.288-28.082 28.598-0.376 0.367-0.759 0.738-1.149 1.122-6.008 5.879-13.672 13.375-22.278 14.22h-0.756c-15.079 0.781-24.507-19.698-14.167-30.663zM334.748 139.166c-5-0.083-9.967 0.831-14.611 2.686s-8.873 4.616-12.44 8.121c-3.567 3.506-6.401 7.685-8.336 12.298s-2.935 9.561-2.94 14.563c-0.080 4.999 0.837 9.964 2.695 14.606s4.623 8.867 8.131 12.43c3.508 3.563 7.69 6.392 12.303 8.322s9.563 2.923 14.563 2.922c5.002 0.043 9.962-0.909 14.592-2.798s8.841-4.68 12.384-8.21c3.543-3.53 6.35-7.728 8.257-12.353s2.877-9.581 2.853-14.582c0.042-9.996-3.873-19.603-10.889-26.723s-16.565-11.175-26.562-11.28zM27.139 423.119h-0.768c-15.007 0.78-24.495-19.685-14.155-30.613 12.848-13.627 26.043-26.967 39.658-39.826 7.161-6.765 18.714-5.434 25.455 1.452s7.954 17.934 1.308 25.036c-9.117 9.764-18.474 19.301-28.070 28.611-0.386 0.375-0.78 0.759-1.181 1.151-6.003 5.863-13.656 13.337-22.247 14.191z"></path>
</svg>
