<!-- Generated by IcoMoon.io -->
<svg version="1.1" xmlns="http://www.w3.org/2000/svg" width="512" height="512" viewBox="0 0 512 512">
<g id="icomoon-ignore">
</g>
<path d="M235.833 512v-242.432l-210.232-122.208v215.828c0 8.375 2.003 16.13 6.009 23.268 4.006 7.132 9.747 12.828 17.224 17.087l187 108.457zM276.276 512l186.999-108.348c7.336-4.116 13.024-9.795 17.063-17.036 4.041-7.243 6.061-15.053 6.061-23.428v-216.035l-210.123 122.157v242.69zM380.237 162.306l84.628-48.792-185.683-107.23c-7.413-4.189-15.156-6.285-23.233-6.285s-15.748 2.095-23.016 6.285l-60.822 35.259 208.125 120.763zM255.795 234.977l83.365-49.004-208.119-120.866-83.205 48.618 207.959 121.251z"></path>
</svg>
