<?xml version="1.0" encoding="utf-8"?>
<!-- Generator: Adobe Illustrator 26.4.1, SVG Export Plug-In . SVG Version: 6.00 Build 0)  -->
<svg version="1.1" id="Layer_1" xmlns="http://www.w3.org/2000/svg" xmlns:xlink="http://www.w3.org/1999/xlink" x="0px" y="0px"
	 viewBox="0 0 500 500" style="enable-background:new 0 0 500 500;" xml:space="preserve">
<style type="text/css">
	.st0{fill:#030303;}
	.st1{fill:#A0A0B1;}
</style>
<g>
	<g>
		<path class="st0" d="M-1387,424.5c-13.1,14.3-23.6,36.6-14.5,55.5c3.4,7.1,9.6,12.7,16.3,16.7c9.1,5.5,19.6,7,29.1,11.5
			c3.6,1.7,6.6,3.6,9,6.1c1.5,1.5,0.8,0.5,1.7,2.3c1.1,2.3-0.4-1.7,0.4,0.7c0.2,0.7,0.4,1.5,0.5,2.2c-0.4-2.6-0.3,2.9-0.2,1.7
			c0.2-1.4-0.3,1.1-0.3,1.1c-0.3,0.8-0.5,1.6-0.8,2.3c0.5-1.3-1.2,2-1.5,2.5c-1.2,2-1.3,2-2.7,3.6c-13.7,15.7-35.2,24.5-54.9,29.5
			c-11.2,2.8-6.5,20.2,4.8,17.4c20.1-5,39.9-13.8,55.8-27.3c11.8-10,22.5-25.8,15.1-41.5c-8.9-18.9-32.3-18.6-47.9-28.4
			c-2.6-1.6-4.5-3.2-6.6-5.8c1,1.3-0.6-0.9-0.7-1c-0.4-0.7-0.8-1.4-1.2-2.2c-0.8-1.5-0.2-0.4-0.1,0c-0.4-1-0.7-2-0.9-3
			c-0.2-0.7-0.3-1.5-0.4-2.2c0.3,1.9,0.1,0.5,0.1,0.1c0-1.5,0-3,0.1-4.5c0.1-1.7,0-0.2,0,0.2c0.1-0.7,0.3-1.5,0.4-2.2
			c0.3-1.5,0.7-2.9,1.2-4.3c0.2-0.7,0.5-1.4,0.8-2.1c0.5-1.4-0.6,1,0.5-1.2c0.6-1.3,1.2-2.5,1.9-3.8c1.2-2.2,2.5-4.4,4-6.4
			c0.7-1,1.4-1.9,2.1-2.9c-1.8,2.5-0.2,0.2,0.3-0.3c0.5-0.6,0.9-1.1,1.4-1.7C-1366.4,428.7-1379.1,416-1387,424.5L-1387,424.5z"/>
	</g>
</g>
<g>
	<path class="st1" d="M493,80.9c0-1.9,0-3.9-0.1-5.9c-2.4-3.4-5.5-5.2-9.7-5.7c-7.3-0.9-14.7-2.1-22-3.1c-2.9-0.4-4.8-1.4-6.1-4.2
		c-3.2-7.1-6.8-13.9-10.1-20.9c-1.7-3.5-4.1-6-8.3-6c-4.1,0-6.6,2.5-8.3,6c-3.3,7-7.1,13.8-10.1,20.9c-1.3,2.9-3.2,3.9-6,4.2
		c-7.3,0.9-14.7,2.1-22,3.1c-3.9,0.6-7.5,1.5-9.1,5.7c-1.5,4.4,0.6,7.5,3.7,10.5c5.7,5.3,11.1,10.8,16.7,16.1c2,1.9,2.5,3.7,2,6.2
		c-1.5,7.8-2.8,15.6-4.2,23.3c-0.7,3.9-0.4,7.3,3.1,9.8c3.2,2.4,6.5,1.8,9.8,0c7.1-3.9,14.3-7.4,21.3-11.3c2.4-1.3,4.1-1.4,6.5-0.1
		c7.3,4.1,14.7,7.9,22.2,11.8c3.1,1.7,6.1,1.8,9-0.2c3.1-2.1,3.9-5.1,3.3-8.7c-1.4-8.1-2.6-16.3-4.1-24.3c-0.6-2.7,0-4.6,2.1-6.6
		C479.3,94.8,486.6,88.4,493,80.9z M456.9,93.9c-3.9,3.3-4.7,7.2-3.8,11.9c0.8,4.2,1.5,8.6,2.5,13.9c-5.1-2.7-9.2-4.6-13.1-6.7
		c-3.9-2.2-7.7-2.1-11.6,0.1c-4,2.4-8.4,4.4-13.1,6.8c0.9-5.5,1.7-10.4,2.6-15.1c0.8-4-0.2-7.1-3.1-9.9c-3.7-3.4-7-7.2-10.6-11.1
		c4.5-0.7,8.7-1.4,13.1-1.9c5-0.5,8.5-2.6,10.5-7.4c1.7-4.2,3.9-8.1,6.2-12.8c2.4,4.6,4.7,8.6,6.5,13c1.9,4.6,5.3,6.7,10.1,7.2
		c4.4,0.5,8.8,1.3,13.2,1.9C463.2,87.3,460.3,90.9,456.9,93.9z"/>
	<path class="st1" d="M342.9,217.4c-10.4,7.7-20.6,15.8-31,23.5c-5.4,4-10.3,10.8-16.5,11.1c-6.2,0.2-12.6-4.4-19.3-7.1
		c61.4-28.9,75.7-99.3,48.9-146.8c-27.9-49.6-86.9-67.2-135.3-45.6c-25.6,11.3-44.2,29.9-54.8,55.8c-13.8,33.5-10.5,66,8.3,97.2
		c-13.3,0-26.1,0-38.9,0c-3.1,0-5.9,0.6-8.7,2c-24.6,12.1-49.3,24-73.9,36.2c-11.9,5.8-17.6,20-13.1,32.5
		c5.9,16.6,23.5,22.9,40.1,14.3c15.9-8.3,32.1-16.4,47.7-25.1c8.4-4.7,17-2.1,25.7-2.4c-1.1,1.7-2.5,2.7-3.7,3.9
		c-31.8,31.7-63.8,63.4-95.6,95.1c-1.8,1.8-3.5,3.7-5.1,5.7c-7,9.1-6.7,21.9,0.5,30.8c9.9,12.3,26.9,12.8,38.8,1.1
		c10.6-10.4,20.7-21.2,33.2-29.6c4-2.7,8-8,11.9-7.9c4.2,0.1,7.2,6.5,11,9.7c2.6,2.1,2.5,3.5,0,5.9c-14.4,14-28.5,28.3-42.8,42.4
		c-5.9,5.9-9.4,12.7-8.7,21.1c0.9,10.5,6.4,18,16.4,21.8c10.3,3.9,19.6,1.5,27.1-6c24.6-24.6,50-48.4,73.7-73.9
		c23.7-25.5,47-51.4,70.5-77.1c1.5-1.7,2.9-2.8,5.7-2.5c15.7,2.4,31.4,4.4,46.9,6.8c4.1,0.7,7.4-0.2,10.7-2.4
		c13.4-9,26.8-17.9,40.3-26.8c10.8-7.1,19.7-16.4,28.6-25.6c5.4-6.2,7.3-13.9,5.7-22.2C383,212.6,360.5,204.5,342.9,217.4z
		 M298,164.8c-7.9,0-7.9,0-7.9-7.8c0-8.4,0-8.4,8.4-8.4c7.9,0,7.9,0,7.9,7.9C306.4,164.8,306.4,164.8,298,164.8z M264.7,96.1
		c0.7-2,1.1-4.2,1.7-6.4c1.4-5.9,1.5-6,7-3.7c18.2,7.9,30.2,20.7,32.9,41.1c0.5,3.4,0,5.7-3.2,5.7l-8.6-0.1c-0.4,0-0.6,0-0.8,0h-0.4
		c-2.1-0.2-3.1-1.7-3.5-5.1c-1.7-13.7-10.3-21.8-22.4-26.5C264.3,99.9,263.7,98.8,264.7,96.1z M194.7,296
		c-6,5.8-11.9,11.8-17.8,17.7c-0.5,0.5-0.9,0.8-1.5,1.3c-0.7-0.6-1.5-1.2-2.1-1.8c-5.7-5.5-11.1-11.2-16.9-16.7
		c-1.8-1.7-1.9-2.7,0-4.5c5.7-5.4,11.3-11.1,16.9-16.7c1.4-1.5,2.4-2,4.1-0.2c5.5,5.8,11.3,11.4,17.1,17.1
		C195.6,293.5,196.4,294.4,194.7,296z M214.6,235.6c-33.6-6.7-56.3-27.3-67.5-59.8c-16.1-46.9,13-100.5,60.9-113
		c11.6-3.1,23.2-4.1,35.4-2.4c-5.3,17.6-10.5,34.9-15.7,52.2c-1.7,5.4-3.4,10.8-4.8,16.3c-0.7,2.6-1.9,3.3-4.5,3.7
		c-15.4,1.9-26.1,13.6-25.9,28.3c0.1,15,11.1,26.6,26.6,28.1c9.7,0.8,17.7-3.1,23.5-10.7c2.1-2.7,3.5-3.3,6.8-1.8
		c16.9,7.9,33.8,15.6,50.8,23.1c3.2,1.4,3.7,2.2,1.2,5.1C278.3,231.2,249.2,242.4,214.6,235.6z M233,160.5c0,6.5-5.5,12.1-11.9,12.3
		c-6.5,0.1-12.4-5.8-12.4-12.4c0.1-6.4,5.8-12,12.1-12C227.3,148.5,233,154.1,233,160.5z"/>
</g>
</svg>
