<svg width="500" height="500" viewBox="0 0 500 500" fill="none" xmlns="http://www.w3.org/2000/svg">
<path d="M495 186.4C494.9 185.5 494.8 184.6 494.8 183.8C494.7 182.2 494.5 180.7 494.3 179.2C482.7 107.5 423.6 46.7 353.8 34.9C342.5 32.9 330.9 32 319.5 32C319.4 32 319.4 32 319.2 32C303 32 286.9 32 270.7 32C238.6 31.9 205.4 31.9 172.8 32.3C96.1 33.2 25.3 92.1 8.29999 169.5C7.19999 174.3 6.29999 179.2 5.59999 183.7C5.49999 184.5 2.19999 214.2 5.59999 238.1C11.1 273 25.2 303.6 47.6 329.3C76 361.7 111.7 381.3 153.8 387.6C166.8 389.6 180 389.4 192.7 389.4C197.4 389.4 202.1 389.4 206.8 389.4C217.7 389.5 224.6 396.5 224.6 407.6C224.6 420.4 224.7 431.9 224.6 443.7C224.5 453.4 228.2 460.4 235.7 464.7C239.1 466.7 242.6 467.7 246.1 467.7C250.3 467.7 254.6 466.3 258.9 463.5C272.8 454.6 286.6 445.7 300.5 436.8C326.6 420.2 353.4 403 379.9 385.8C407 368.3 426.7 353.1 443.9 336.8C471.1 310.9 487.3 282.2 493.5 248.7C493.9 246.5 494.1 244.4 494.4 242.3C497 216.2 495.6 193.8 495 186.4ZM173.2 147.9C175 147.5 176.8 147.5 178 147.5H190.3C233.4 147.5 277.9 147.5 321.8 147.5C333.5 147.5 342.8 155.9 343.8 167.5C344.8 178.7 337.4 189.1 326.5 191.4C324.3 191.8 322.3 191.8 320.3 191.8H319.8C300.2 191.8 280.5 191.8 260.9 191.8H249.8C242.7 191.8 235.7 191.8 228.6 191.8C221.9 191.8 215.1 191.8 208.4 191.8C198.1 191.8 187.7 191.8 177.4 191.8C166.2 191.7 156.9 183.2 155.9 171.8C154.9 160.3 162.2 150.4 173.2 147.9ZM322 273.9C312 273.9 301.9 273.9 291.9 273.9C284.8 273.9 277.7 273.9 270.7 273.9C263.6 273.9 256.5 273.9 249.3 273.9C242.6 273.9 235.9 273.9 229.2 273.9C212.4 273.9 194.9 274 177.7 273.9C167.4 273.9 159.1 267.1 156.6 256.8C154.3 247.5 158.5 237.6 166.8 232.6C170.2 230.6 174 229.6 178.1 229.6C197.3 229.6 216.6 229.6 236 229.6C264.6 229.6 293.4 229.6 322 229.6C334.6 229.6 344.1 239.1 344.3 251.7C344.2 264.4 334.6 273.9 322 273.9Z" fill="#A0A0B1"/>
</svg>
