<svg width="500" height="500" viewBox="0 0 500 500" fill="none" xmlns="http://www.w3.org/2000/svg">
<g clip-path="url(#clip0_405_1111)">
<path d="M163.538 456.533C189.992 430.067 217.242 402.804 244.094 375.741C245.685 374.149 247.674 372.557 250.061 372.557C252.448 372.557 254.437 374.149 256.028 375.741C277.112 397.033 298.395 418.326 319.678 439.42C334.994 454.742 350.309 470.065 365.625 485.388C372.586 492.353 379.15 494.343 386.908 492.154C389.891 491.159 392.875 489.368 396.057 486.184L418.533 463.697C440.612 441.609 463.486 418.724 485.962 396.237C495.509 386.686 495.311 375.94 485.564 366.189C452.347 332.956 413.76 294.152 375.57 256.144C373.78 254.353 372.189 252.562 372.189 250.174C372.189 247.786 373.78 245.796 375.371 244.204C397.648 222.115 420.324 199.43 442.203 177.54C456.524 163.212 470.845 148.885 485.166 134.557C492.128 127.592 494.117 121.025 491.929 113.264C490.935 110.08 489.145 107.095 485.763 103.712L464.083 82.0217C441.606 59.5351 419.13 37.0485 396.654 14.3629C393.074 10.7809 389.096 8.79097 384.919 7.19899H376.565C370.597 9.78595 366.023 14.5619 361.05 19.5368C360.254 20.3328 359.26 21.3278 358.464 22.1237L341.358 39.2374C313.313 67.296 284.273 96.3495 255.631 125.005C254.238 126.597 252.249 127.99 249.862 127.99C247.476 127.99 245.685 126.398 244.293 125.005C224.204 104.906 204.114 84.6087 184.025 64.51C168.709 49.1873 153.394 33.8645 138.277 18.5418C133.105 13.3679 128.531 9.18896 122.762 7H115.005C108.839 8.98997 104.264 13.3679 99.6895 17.9448C72.8374 45.0084 45.9853 71.8729 20.7244 96.9465L19.531 98.1405C14.5584 103.115 9.78466 107.891 7.1989 114.06V123.413C9.78466 129.383 14.5584 133.96 19.3321 138.935C20.1277 139.731 21.1222 140.726 21.9178 141.522L39.0236 158.635C67.0692 186.694 96.1092 215.747 124.751 244.204C126.144 245.597 127.735 247.587 127.735 249.776C127.735 252.164 126.144 253.955 124.751 255.348C96.1092 283.804 67.0692 312.858 39.0236 340.916L21.9178 358.03C21.1222 358.826 20.1277 359.821 19.3321 360.617C14.3595 365.393 9.78466 369.97 7 376.139V385.492C9.58576 391.661 14.3595 396.436 19.3321 401.411L20.5255 402.605C51.9524 434.047 78.2078 460.115 103.071 485.189C109.834 491.955 116.596 493.945 124.354 491.756C128.332 490.562 131.514 487.776 134.498 484.791L163.538 456.533Z" fill="#A0A0B1"/>
</g>
<defs>
<clipPath id="clip0_405_1111">
<rect width="486" height="486" fill="white" transform="matrix(1 0 0 -1 7 493)"/>
</clipPath>
</defs>
</svg>
