<!-- Generated by IcoMoon.io -->
<svg version="1.1" xmlns="http://www.w3.org/2000/svg" width="512" height="512" viewBox="0 0 512 512">
<title></title>
<g id="icomoon-ignore">
</g>
<path d="M262.838 31.794c131.53 0.747 237.459 107.209 236.926 238.1-0.533 131.106-107.209 237.14-237.779 236.608-131.851-0.642-237.887-107.425-236.927-238.635 0.96-130.785 107.743-236.82 237.78-236.073zM262.518 453.909c101.875-0.106 184.337-82.779 184.444-184.762 0-101.982-82.569-184.549-184.55-184.549-102.089 0.106-184.549 82.674-184.442 184.762 0 101.983 82.781 184.761 184.549 184.548z"></path>
<path d="M26.448 110.851c-10.668 0-20.375-6.081-24.215-16.001-4.267-10.668-2.454-20.695 5.761-29.016 11.948-12.161 24.108-24.215 36.27-36.27 5.334-5.441 10.668-10.88 16.215-16.108 11.094-10.454 26.775-10.561 37.23-0.427 10.561 10.348 10.88 26.562 0.106 37.656-17.389 17.602-34.989 34.989-52.484 52.378-5.227 5.12-11.521 8.001-18.881 7.787z"></path>
<path d="M485.304 110.838c-7.468 0.106-13.656-2.773-18.775-7.894-17.388-17.282-34.776-34.563-51.951-52.058-10.881-11.094-10.881-27.096-0.425-37.55s26.563-10.561 37.656 0.32c17.601 17.282 35.096 34.776 52.377 52.377 8.107 8.32 9.814 18.348 5.548 29.016-4.055 9.921-13.656 15.894-24.43 15.788z"></path>
<path d="M425.854 268.524c0 32.204-9.55 63.683-27.44 90.462-17.892 26.776-43.325 47.645-73.075 59.971-29.753 12.325-62.492 15.547-94.077 9.265-31.585-6.284-60.598-21.791-83.37-44.561-22.772-22.774-38.279-51.785-44.562-83.371s-3.058-64.324 9.266-94.077c12.323-29.753 33.193-55.183 59.971-73.075s58.257-27.442 90.462-27.442v162.827h162.827z"></path>
</svg>
