<!-- Generated by IcoMoon.io -->
<svg version="1.1" xmlns="http://www.w3.org/2000/svg" width="512" height="512" viewBox="0 0 512 512">
<g id="icomoon-ignore">
</g>
<path d="M182.484 257.87l246.721-246.72c7.726-7.594 16.758-11.309 27.094-11.145s19.276 4.051 26.815 11.659c7.548 7.609 11.319 16.541 11.319 26.796s-3.836 19.216-11.502 26.885l-272.861 273.353c-7.903 7.783-17.136 11.674-27.698 11.674s-19.622-3.822-27.176-11.466l-126.198-126.609c-7.5-7.48-11.309-16.339-11.428-26.58-0.114-10.24 3.648-19.221 11.287-26.945 7.495-7.54 16.434-11.309 26.819-11.309 10.39 0 19.42 3.76 27.094 11.28l99.716 99.126zM67.856 512c-10.156 0-18.787-3.569-25.893-10.699-7.106-7.134-10.66-15.791-10.66-25.985 0-10.19 3.553-18.807 10.66-25.853 7.106-7.050 15.737-10.571 25.893-10.571h376.469c10.118 0 18.819 3.569 26.111 10.702 7.296 7.134 10.941 15.795 10.941 25.985s-3.644 18.807-10.941 25.857c-7.293 7.042-15.993 10.563-26.111 10.563h-376.469z"></path>
</svg>
