<svg width="500" height="500" viewBox="0 0 500 500" fill="none" xmlns="http://www.w3.org/2000/svg">
<path d="M249.3 325.3C291.1 325.3 332.8 325.2 374.6 325.4C379.3 325.4 380.8 324.4 380.8 319.4C380.5 297.1 380.6 274.7 380.7 252.4C380.7 228.3 396.6 212.6 420.8 212.5C432.7 212.5 444.6 212.4 456.5 212.5C477 212.7 493.3 227.7 494.6 247.3C495.9 267.2 482.1 284.4 461.9 287.2C457.8 287.8 457 288.9 457 292.7C457.2 315.3 457.1 337.8 457.1 360.4C457.1 383.5 440.5 400.2 417.3 400.4C406.4 400.5 395.6 400.5 384.7 400.3C381.5 400.2 380.3 401.1 380.5 404.4C380.8 409.2 380.7 414 380.5 418.8C380.2 429.8 372 438 361.5 437.9C351.3 437.8 343.2 429.6 343 419C342.9 414.4 342.8 409.8 343 405.2C343.2 401.6 342.5 400.2 338.4 400.2C278.9 400.4 219.3 400.4 159.8 400.2C155.4 400.2 154.6 401.7 154.9 405.5C155.2 410.1 155.1 414.7 154.9 419.3C154.5 429.9 146.3 438 136 437.9C125.8 437.8 117.7 429.7 117.3 419.1C117.3 418.9 117.3 418.7 117.3 418.5C117.2 412.7 119.4 404.6 116.4 401.6C112.6 397.7 104.6 400.6 98.4 400.4C92.6 400.2 86.7 400.4 80.9 400.3C58.4 400.1 42.2 384 42.1 361.6C42 338.6 42 315.6 42.1 292.7C42.1 289.1 41.6 287.7 37.3 287.1C17 284.4 3.00001 266.9 4.70001 246.8C6.30001 227.4 22.5 212.7 42.7 212.5C55 212.4 67.3 212.4 79.7 212.5C101 212.7 117.2 229 117.4 250.4C117.6 273.6 117.6 296.8 117.3 320C117.3 324.3 118.3 325.5 122.7 325.5C164.9 325.2 207.1 325.3 249.3 325.3Z" fill="#A0A0B1"/>
<path d="M249 287.7C219.5 287.7 190.1 287.6 160.7 287.8C156.1 287.8 154.9 286.8 154.9 282.1C154.8 267.5 156.1 252.9 154 238.3C149.2 206.3 123 180.4 90.8 176C81.6 174.7 81.6 174.7 83.5 165.9C96 106 149 62.6 210.1 62.1C236.2 61.9 262.3 61.9 288.4 62.1C350.5 62.7 404.4 108.4 415.5 169.4C416.2 173.5 415.6 174.9 411 175.5C369.6 180.8 343 211.3 343 253.1C343 262.9 342.8 272.7 343.1 282.5C343.2 286.6 342.1 287.7 338 287.6C308.4 287.6 278.7 287.7 249 287.7ZM211.4 118.5C201.2 118.5 192.7 127 192.7 137.2C192.7 147.4 201.1 156 211.2 156.1C221.6 156.2 230.4 147.5 230.3 137.1C230.1 126.9 221.5 118.4 211.4 118.5ZM286.9 156.1C297.1 156 305.5 147.4 305.4 137.2C305.3 127 296.8 118.5 286.6 118.5C276.2 118.5 267.5 127.3 267.8 137.7C268.1 147.9 276.7 156.2 286.9 156.1ZM211.4 193.7C201.2 193.7 192.7 202.2 192.7 212.4C192.6 222.6 201.1 231.2 211.2 231.3C221.6 231.4 230.4 222.7 230.3 212.3C230.1 202.1 221.5 193.6 211.4 193.7ZM305.4 212.2C305.3 202 296.7 193.6 286.5 193.6C276.3 193.6 267.8 202.1 267.8 212.3C267.8 222.7 276.6 231.4 287 231.2C297.2 231.1 305.5 222.4 305.4 212.2Z" fill="#A0A0B1"/>
</svg>
