<!-- Generated by IcoMoon.io -->
<svg version="1.1" xmlns="http://www.w3.org/2000/svg" width="512" height="512" viewBox="0 0 512 512">
<g id="icomoon-ignore">
</g>
<path d="M425.298 322.541c-6.099-14.316-14.248-25.994-24.451-35.034-10.206-9.039-24.448-16.99-42.728-23.852l-145.012-53.133c-4.914-1.741-9.799-2.858-14.656-3.357-4.857-0.502-10.554-0.752-17.093-0.752h-26.051v-73.958c0-7.198 1.561-13.951 4.685-20.26 3.118-6.308 7.629-11.508 13.531-15.599l124.453-88.499c3.941-2.918 8.118-4.995 12.53-6.234 4.413-1.242 8.876-1.863 13.386-1.863 4.616 0 9.142 0.625 13.575 1.875 4.429 1.246 8.584 3.32 12.464 6.222l124.244 88.499c5.825 4.070 10.377 9.288 13.655 15.653 3.277 6.361 4.915 13.096 4.915 20.206v190.085h-67.447zM348.283 157.856c3.563 0 6.646-1.294 9.252-3.884 2.606-2.594 3.909-5.661 3.909-9.202 0-3.475-1.308-6.508-3.927-9.097-2.621-2.589-5.699-3.885-9.233-3.885-3.469 0-6.529 1.303-9.183 3.909-2.656 2.602-3.982 5.626-3.982 9.073 0 3.517 1.318 6.577 3.957 9.178 2.642 2.606 5.712 3.909 9.209 3.909zM299.43 157.856c3.561 0 6.646-1.294 9.252-3.884 2.606-2.594 3.909-5.661 3.909-9.202 0-3.475-1.31-6.508-3.927-9.097-2.623-2.589-5.7-3.885-9.233-3.885-3.469 0-6.531 1.303-9.185 3.909-2.654 2.602-3.981 5.626-3.981 9.073 0 3.517 1.318 6.577 3.957 9.178 2.642 2.606 5.712 3.909 9.209 3.909zM348.276 206.413c3.469 0 6.529-1.296 9.185-3.886 2.654-2.593 3.981-5.661 3.981-9.202 0-3.475-1.308-6.508-3.927-9.098-2.621-2.59-5.699-3.884-9.233-3.884-3.469 0-6.529 1.303-9.183 3.909-2.656 2.602-3.982 5.626-3.982 9.074 0 3.517 1.308 6.577 3.927 9.178 2.617 2.606 5.695 3.91 9.233 3.91zM299.423 206.413c3.469 0 6.531-1.286 9.185-3.854 2.654-2.57 3.982-5.613 3.982-9.129 0-3.447-1.321-6.489-3.964-9.128-2.638-2.638-5.706-3.958-9.203-3.958-3.561 0-6.646 1.313-9.252 3.94-2.604 2.621-3.907 5.671-3.907 9.147 0 3.54 1.308 6.589 3.925 9.147 2.618 2.557 5.696 3.837 9.233 3.837zM306.092 510.289c3.904 1.072 8.005 1.64 12.3 1.705 4.295 0.069 8.479-0.451 12.554-1.56l181.055-53.957c0-23.264-5.904-40.656-17.709-52.18-11.801-11.524-30.212-17.286-55.233-17.286h-107.812c-17.513 0-31.493-0.837-41.934-2.513-10.442-1.68-19.435-3.84-26.978-6.483l-36.231-12.43c-2.833-1.048-4.957-2.924-6.369-5.627s-1.556-5.554-0.428-8.552c1.023-2.991 2.893-5.048 5.612-6.173 2.715-1.12 5.655-1.248 8.818-0.377l36.994 11.707c9.824 3.193 19.14 5.476 27.951 6.846 8.813 1.373 18.878 2.058 30.197 2.058h45.842c2.938 0 5.336-1.015 7.193-3.046 1.851-2.028 2.777-4.399 2.777-7.114 0-10.557-3.965-21.005-11.896-31.343s-18.883-18.041-32.859-23.107l-141.942-52.689c-2.451-0.623-4.915-1.204-7.394-1.742-2.481-0.542-5.133-0.814-7.958-0.814h-48.938v215.826l172.389 48.847zM0.001 458.515c0 10.788 3.882 20.026 11.646 27.719 7.767 7.695 17.093 11.544 27.974 11.544h15.468c10.886 0 20.197-3.849 27.931-11.544 7.735-7.693 11.603-16.931 11.603-27.719v-191.549c0-10.829-3.871-20.103-11.614-27.823-7.743-7.724-17.041-11.587-27.895-11.587h-15.474c-10.854 0-20.172 3.863-27.956 11.587-7.788 7.72-11.682 16.994-11.682 27.823v191.549z"></path>
</svg>
