<!-- Generated by IcoMoon.io -->
<svg version="1.1" xmlns="http://www.w3.org/2000/svg" width="512" height="512" viewBox="0 0 512 512">
<g id="icomoon-ignore">
</g>
<path d="M43.781 409.6c-7.578 0-13.924-2.622-19.037-7.865-5.118-5.24-7.677-11.736-7.677-19.497 0-7.764 2.559-14.307 7.677-19.632 5.113-5.325 11.458-7.987 19.037-7.987h28.329v-124.332c0-43.399 12.552-82.38 37.658-116.943s58.176-56.708 99.213-66.436v1.177c0-13.432 4.564-24.805 13.695-34.117 9.129-9.313 20.186-13.969 33.174-13.969s24.035 4.657 33.145 13.969c9.11 9.313 13.663 20.685 13.663 34.117v-1.177c41.151 9.647 74.312 31.757 99.48 66.329 25.17 34.567 37.755 73.583 37.755 117.049v124.332h28.091c7.411 0 13.752 2.663 19.029 7.987 5.281 5.325 7.921 11.868 7.921 19.632 0 7.76-2.622 14.257-7.863 19.497-5.241 5.243-11.647 7.865-19.214 7.865h-424.076zM255.936 512c-35.973 0-68.203-25.6-68.203-68.267h136.533c0 42.666-32.293 68.267-68.33 68.267z"></path>
</svg>
