<!-- Generated by IcoMoon.io -->
<svg version="1.1" xmlns="http://www.w3.org/2000/svg" width="512" height="512" viewBox="0 0 512 512">
<g id="icomoon-ignore">
</g>
<path d="M255.821 512c-35.362 0-68.559-6.744-99.591-20.236-31.032-13.486-58.2-31.866-81.505-55.145-23.305-23.273-41.586-50.449-54.84-81.528-13.255-31.081-19.883-64.441-19.883-100.079 0-35.096 6.71-68.125 20.132-99.088s31.701-57.996 54.841-81.099c23.139-23.103 50.216-41.35 81.232-54.743 31.012-13.389 64.201-20.084 99.567-20.084 35.363 0 68.56 6.71 99.593 20.132 31.030 13.421 58.132 31.67 81.303 54.744 23.173 23.070 41.52 50.079 55.043 81.025 13.526 30.947 20.289 63.968 20.289 99.064 0 35.635-6.71 69-20.133 100.102-13.42 31.096-31.769 58.297-55.046 81.601-23.273 23.308-50.418 41.688-81.433 55.145-31.010 13.457-64.199 20.187-99.567 20.187zM255.796 450.481c21.087 0 41.527-3.069 61.325-9.211 19.8-6.135 37.675-15.949 53.62-29.445l-271.702-270.772c-12.466 16.461-21.836 34.416-28.109 53.863-6.273 19.452-9.41 39.476-9.41 60.074 0 54.407 18.879 100.589 56.638 138.551 37.758 37.959 83.638 56.94 137.639 56.94zM412.754 369.329c11.523-16.458 20.625-34.389 27.301-53.791 6.679-19.405 10.018-39.586 10.018-60.548 0-53.73-18.878-99.341-56.639-136.832-37.757-37.487-83.638-56.231-137.638-56.231-20.857 0-40.837 3.001-59.941 9.004-19.104 6.007-37.034 15.148-53.791 27.424l270.688 270.975z"></path>
</svg>
