<!-- Generated by IcoMoon.io -->
<svg version="1.1" xmlns="http://www.w3.org/2000/svg" width="512" height="512" viewBox="0 0 512 512">
<g id="icomoon-ignore">
</g>
<path d="M255.779 400.149c9.101 0 16.76-3.107 22.974-9.321 6.218-6.219 9.328-13.88 9.328-22.981 0-8.935-3.11-16.661-9.328-23.178-6.215-6.522-13.873-9.783-22.975-9.783s-16.76 3.26-22.974 9.783c-6.219 6.518-9.328 14.244-9.328 23.178 0 8.94 3.109 16.557 9.328 22.856 6.214 6.298 13.872 9.447 22.974 9.447zM255.779 304.562c7.793 0 14.137-2.445 19.032-7.337 4.892-4.892 7.337-11.235 7.337-19.032v-140.869c0-7.472-2.445-13.767-7.337-18.887-4.896-5.125-11.24-7.687-19.032-7.687s-14.136 2.516-19.032 7.547c-4.892 5.032-7.337 11.331-7.337 18.893v140.798c0 7.462 2.446 13.757 7.337 18.887 4.897 5.125 11.24 7.686 19.032 7.686zM177.991 512c-9.251 0-18.161-1.788-26.732-5.366s-16.14-8.601-22.71-15.070l-108.112-108.113c-6.469-6.57-11.492-14.14-15.070-22.711s-5.366-17.481-5.366-26.731v-155.577c0-9.251 1.788-18.161 5.366-26.732s8.601-16.14 15.070-22.71l108.112-108.113c6.447-6.447 13.976-11.539 22.585-15.274 8.605-3.736 17.558-5.604 26.857-5.604h155.577c9.299 0 18.251 1.868 26.856 5.604 8.61 3.736 16.138 8.827 22.585 15.274l108.113 108.113c6.447 6.447 11.539 13.975 15.274 22.585 3.735 8.605 5.603 17.558 5.603 26.856v155.577c0 9.3-1.868 18.252-5.603 26.857-3.736 8.61-8.827 16.138-15.274 22.585l-108.113 108.113c-6.57 6.469-14.139 11.492-22.71 15.070s-17.481 5.366-26.731 5.366h-155.577z"></path>
</svg>
