<!-- Generated by IcoMoon.io -->
<svg version="1.1" xmlns="http://www.w3.org/2000/svg" width="512" height="512" viewBox="0 0 512 512">
<g id="icomoon-ignore">
</g>
<path d="M420.349 182.738c-21.807 0-40.849-6.608-57.129-19.823-16.284-13.215-26.835-29.987-31.658-50.314h-151.893c-3.958 16.666-12.007 31.023-24.145 43.069-12.143 12.042-26.483 20.042-43.022 24v151.893c20.137 4.823 36.91 15.432 50.319 31.826 13.41 16.392 20.114 35.412 20.114 57.060 0 25.52-8.969 47.112-26.905 64.774-17.937 17.666-39.492 26.499-64.664 26.499-25.521 0-47.128-8.833-64.82-26.499-17.697-17.662-26.546-39.254-26.546-64.774 0-21.647 6.656-40.667 19.968-57.060 13.313-16.394 30.132-27.003 50.459-31.826v-151.893c-20.327-4.822-37.147-15.342-50.459-31.559s-19.968-35.306-19.968-57.268c0-25.106 8.848-46.523 26.546-64.251 17.693-17.728 39.126-26.592 64.297-26.592 21.962 0 41.099 6.673 57.413 20.021 16.314 13.343 26.786 30.148 31.414 50.412h151.893c4.823-20.265 15.375-37.069 31.658-50.412 16.279-13.347 35.322-20.021 57.129-20.021 25.52 0 47.145 8.864 64.873 26.592s26.591 39.352 26.591 64.873c0 25.393-8.863 46.953-26.591 64.681s-39.353 26.592-64.873 26.592zM421.156 512c-25.459 0-47.139-8.825-65.041-26.476-17.904-17.645-26.853-39.101-26.853-64.366 0-25.459 8.95-47.171 26.853-65.14 17.901-17.963 39.582-26.945 65.041-26.945 25.233 0 46.682 8.983 64.344 26.945 17.666 17.969 26.499 39.682 26.499 65.14 0 25.266-8.833 46.721-26.499 64.366-17.662 17.651-39.111 26.476-64.344 26.476z"></path>
</svg>
