<!-- Generated by IcoMoon.io -->
<svg version="1.1" xmlns="http://www.w3.org/2000/svg" width="512" height="512" viewBox="0 0 512 512">
<g id="icomoon-ignore">
</g>
<path d="M256.026 512c-35.453 0-68.73-6.724-99.827-20.17-31.097-13.45-58.197-31.712-81.299-54.781-23.105-23.070-41.366-50.144-54.782-81.22-13.412-31.081-20.118-64.348-20.118-99.803 0-35.453 6.723-68.73 20.17-99.827 13.451-31.098 31.712-58.197 54.782-81.298 23.070-23.105 50.144-41.366 81.22-54.782 31.079-13.412 64.347-20.118 99.802-20.118 35.453 0 68.73 6.723 99.827 20.17 31.098 13.451 58.198 31.712 81.298 54.782 23.106 23.070 41.366 50.144 54.783 81.22 13.412 31.079 20.118 64.347 20.118 99.802 0 35.453-6.724 68.73-20.17 99.827-13.45 31.098-31.712 58.198-54.781 81.298-23.070 23.106-50.144 41.366-81.22 54.783-31.081 13.412-64.348 20.118-99.803 20.118zM256 470.781c25.5 0 49.947-4.231 73.337-12.691 23.397-8.462 44.656-20.719 63.778-36.773l-302.341-302.433c-15.825 19.382-28.041 40.728-36.65 64.037-8.605 23.309-12.907 47.668-12.907 73.078 0 59.913 20.819 110.688 62.456 152.325s92.412 62.457 152.326 62.457zM420.796 393.115c15.534-19.091 27.748-40.339 36.642-63.744s13.342-47.862 13.342-73.371c0-59.913-20.819-110.688-62.457-152.326s-92.412-62.456-152.325-62.456c-25.397 0-49.745 4.302-73.046 12.907-23.3 8.608-44.656 20.94-64.070 36.994l301.911 301.995z"></path>
<path d="M132.732 204.185c-0.699 0.058-1.401 0.167-2.109 0.33-3.526 0.816-6.242 2.876-8.144 6.181-1.906 3.304-2.395 6.752-1.466 10.344s3.013 6.297 6.249 8.115l33.079 19.753c-1.38 4.409-2.547 8.874-3.502 13.401-0.951 4.525-1.667 9.087-2.143 13.683h-38.793c-3.858 0-7.073 1.316-9.644 3.949s-3.858 5.89-3.858 9.77c0 3.878 1.286 7.111 3.858 9.697s5.787 3.878 9.644 3.878h38.793c0.476 4.647 1.191 9.233 2.143 13.757 0.955 4.526 2.122 8.99 3.502 13.395l-32.791 19.254c-3.287 1.913-5.394 4.666-6.323 8.257s-0.44 7.040 1.466 10.344c1.81 3.305 4.453 5.423 7.931 6.358 3.474 0.933 6.856 0.467 10.142-1.401l30.648-17.671c9.098 15.996 20.935 28.997 35.51 39.005 14.574 10.011 30.91 15.015 49.007 15.015 18.096 0 34.433-5.005 49.007-15.015 3.601-2.473 7.038-5.127 10.309-7.966l-182.514-182.434zM389.488 368.47c1.815-3.155 2.219-6.505 1.216-10.050-1.026-3.618-3.111-6.384-6.254-8.297l-32.389-19.007 37.427 37.354zM351.574 330.629c1.452-4.352 2.623-8.808 3.515-13.37 0.906-4.623 1.645-9.281 2.216-13.974h38.652c3.858 0 7.095-1.293 9.712-3.878 2.62-2.586 3.931-5.819 3.931-9.697 0-3.88-1.31-7.136-3.931-9.77-2.618-2.633-5.854-3.949-9.712-3.949h-38.652c-0.571-4.695-1.296-9.34-2.178-13.938-0.883-4.598-2.062-9.145-3.536-13.646l32.719-18.821c3.192-1.819 5.275-4.536 6.25-8.155 0.976-3.613 0.56-7.073-1.248-10.378-1.906-3.209-4.634-5.292-8.183-6.249-3.546-0.958-6.892-0.55-10.034 1.22l-30.721 17.314c-2.524-4.647-5.321-8.921-8.393-12.823-3.072-3.901-6.372-7.72-9.898-11.454 0.572-2.204 0.942-4.324 1.11-6.358 0.166-2.038 0.25-4.18 0.25-6.43 0-7.663-1.346-15.037-4.038-22.122-2.69-7.089-6.344-13.554-10.964-19.396l18.646-18.894c2.715-2.73 4.084-5.913 4.106-9.551 0.026-3.641-1.271-6.873-3.891-9.698-2.81-2.73-6.025-4.13-9.645-4.202s-6.789 1.257-9.504 3.987l-20.429 20.257c-4.858-2.828-9.93-4.983-15.216-6.465-5.288-1.486-10.812-2.228-16.576-2.228-5.715 0-11.205 0.73-16.469 2.189-5.262 1.463-10.274 3.582-15.037 6.357l-20.288-20.326c-2.812-2.635-6.087-3.892-9.826-3.772-3.738 0.118-6.916 1.541-9.537 4.271-2.715 2.73-4.096 5.903-4.144 9.52-0.046 3.615 1.312 6.811 4.072 9.59l18.647 18.46c-4.81 5.938-8.548 12.499-11.214 19.683-0.704 1.894-1.315 3.808-1.833 5.738l161.274 160.958z"></path>
</svg>
