<!-- Generated by IcoMoon.io -->
<svg version="1.1" xmlns="http://www.w3.org/2000/svg" width="512" height="512" viewBox="0 0 512 512">
<g id="icomoon-ignore">
</g>
<path d="M495.466 37.8l0.009 0.007c3.447 3.459 6.899 6.921 10.358 10.383 8.263 8.299 8.225 16.349-0.132 24.686-9.271 9.327-18.571 18.621-27.743 27.785-3.012 3.010-6.011 6.007-8.989 8.986l-67.24-66.952c1.546-1.463 3.148-2.958 4.78-4.48l0.024-0.022 0-0.001c3.247-3.030 6.613-6.17 9.892-9.386 2.839-2.775 5.635-5.599 8.431-8.424l0.003-0.003c3.998-4.037 7.995-8.076 12.121-11.975 3.486-2.983 7.129-5.78 10.913-8.376h6.993c3.712 2.412 7.257 5.075 10.606 7.973 10.111 9.87 20.034 19.825 29.974 29.801zM0 447.975c2.565-3.81 5.37-7.453 8.396-10.909 7.833-8.084 15.792-16.060 23.704-23.988 3.654-3.661 7.297-7.312 10.914-10.959l66.74 66.952c-0.46 0.44-0.944 0.901-1.443 1.378-2.003 1.916-4.281 4.091-6.511 6.305-4.013 3.998-8.011 8.003-12.008 12.014-5.991 6.002-11.98 12.005-18.018 17.974-7.031 6.92-15.562 6.997-22.516 0.098-14.793-14.625-29.489-29.356-44.090-44.185-1.963-2.393-3.693-4.966-5.168-7.683v-6.997zM438.516 253.5c17.483-18.269 25.935-40.344 26.476-65.721-0.503-25.379-9.070-47.74-26.899-66.144-15.471-15.868-31.127-31.551-46.971-47.048-17.669-17.503-41.493-27.386-66.363-27.529s-48.806 9.463-66.676 26.76c-8.758 8.374-17.305 17.023-25.822 25.64-2.953 2.989-5.902 5.973-8.855 8.94-6.916 6.993-6.878 15.619 0 22.574l157.532 157.533c6.935 6.916 15.58 6.897 22.593 0 11.815-11.527 23.591-23.072 34.983-35.003zM133.192 225.586l134.306 134.307c1.738 1.738 3.466 3.462 5.19 5.182l0.014 0.014 0.014 0.014 0.003 0.004c5.164 5.154 10.303 10.281 15.624 15.688 7.108 7.223 7.242 15.753 0.153 22.957l-2.657 2.693c-10.582 10.728-21.171 21.462-32.037 31.887-18.078 17.368-41.4 26.57-68.797 26.57-23.84-0.474-46.585-10.103-63.513-26.899-16.125-15.688-32.019-31.602-47.682-47.74-17.163-17.64-26.788-41.267-26.837-65.879s9.479-48.278 26.568-65.988c7.526-7.895 15.257-15.568 22.984-23.238l0.002-0.002 0.007-0.006c3.156-3.133 6.313-6.266 9.454-9.412 9.913-9.99 17.329-10.029 27.203-0.154zM163.911 212.619l45.127 45.186 21.421-21.727c0.275-0.28 0.553-0.558 0.831-0.836v-0c0.903-0.904 1.805-1.806 2.627-2.775 5.342-6.055 8.199-13.905 8-21.977s-3.441-15.772-9.076-21.555c-5.552-5.892-13.163-9.414-21.248-9.833s-16.019 2.298-22.15 7.584c-6.419 5.693-12.32 11.97-18.119 18.138l-0 0c-2.478 2.637-4.939 5.254-7.412 7.796zM301.949 269.968c8.081 0.3 15.74 3.689 21.397 9.468 5.804 5.64 9.214 13.298 9.526 21.384s-2.501 15.983-7.855 22.053c-5.625 6.253-11.762 12.060-17.788 17.763l-0.003 0.002-0.010 0.010-0.002 0.001c-2.634 2.493-5.247 4.966-7.786 7.447l-44.762-44.781c2.755-2.774 5.511-5.656 8.298-8.569 5.451-5.699 11.022-11.522 16.945-16.925 6.070-5.344 13.959-8.154 22.041-7.854zM97.689 111.126c2.439-0.225 4.781-1.073 6.799-2.462s3.646-3.273 4.728-5.472c2.939-5.284 2.977-10.835-0.884-15.369-4.6-5.455-9.644-10.518-15.081-15.139-4.553-3.843-10.144-3.843-15.369-0.942-2.475 1.243-4.54 3.171-5.947 5.556s-2.097 5.124-1.989 7.891c0.038 8.837 16.887 25.782 27.742 25.936zM409.086 402.58c5.11-2.747 10.586-2.747 14.985 1 5.563 4.726 10.721 9.906 15.427 15.485 3.669 4.419 3.669 9.799 0.807 15.004s-7.337 8.050-11.622 8.050c-10.894-0.077-27.8-17.137-27.8-26.283-0.043-2.762 0.707-5.479 2.161-7.829s3.551-4.233 6.043-5.426zM174.285 78.063c7.972 0.634 15.061-4.38 15.927-12.469 0.726-7.099 0.674-14.255-0.154-21.343-0.503-3.605-2.387-6.873-5.256-9.113s-6.494-3.278-10.113-2.894c-3.611 0.135-7.041 1.618-9.612 4.157s-4.097 5.95-4.278 9.559c-0.141 1.984-0.095 3.977-0.048 5.974v0.001c0.024 0.999 0.048 1.999 0.048 2.998v8.471c0.019 3.684 1.412 7.228 3.906 9.939s5.911 4.394 9.58 4.719zM445.299 322.008c7.577-0.826 15.226-0.826 22.803 0 7.3 0.769 12.065 7.819 11.604 15.043-0.098 3.616-1.553 7.065-4.074 9.656-2.526 2.591-5.935 4.137-9.548 4.329-2.087 0.128-4.185 0.086-6.297 0.043v0 0 0 0c-1.058-0.022-2.116-0.043-3.174-0.043-1.050 0-2.099 0.027-3.149 0.055h-0.005c-2.108 0.055-4.211 0.111-6.297-0.055-3.519-0.26-6.817-1.813-9.257-4.36s-3.853-5.908-3.959-9.434c-0.389-7.646 4.031-14.409 11.353-15.235zM43.571 189.93c7.731 0.855 15.534 0.855 23.265 0 7.281-0.826 11.642-7.684 11.142-15.369-0.141-3.44-1.528-6.712-3.903-9.204s-5.577-4.035-9.007-4.34c-2.203-0.192-4.423-0.128-6.643-0.064-1.11 0.032-2.221 0.064-3.328 0.064-1.050 0-2.102-0.024-3.153-0.047h-0.001c-2.107-0.047-4.216-0.094-6.317 0.047-3.532 0.224-6.858 1.743-9.34 4.267s-3.944 5.875-4.108 9.411c-0.538 7.166 4.169 14.428 11.392 15.235zM326.795 437.105c2.933-2.41 6.7-3.562 10.479-3.208 3.769 0.226 7.309 1.886 9.892 4.642 2.583 2.752 4.014 6.391 3.997 10.166v7.974c0 0.994 0.019 1.988 0.038 2.982 0.038 1.993 0.077 3.985-0.038 5.973-0.096 3.703-1.608 7.226-4.224 9.851-2.615 2.619-6.136 4.142-9.839 4.249-3.704 0.346-7.395-0.785-10.272-3.144s-4.708-5.76-5.097-9.458c-0.72-6.767-0.759-13.588-0.115-20.363 0.384-3.78 2.245-7.252 5.178-9.663z"></path>
</svg>
