<!-- Generated by IcoMoon.io -->
<svg version="1.1" xmlns="http://www.w3.org/2000/svg" width="512" height="512" viewBox="0 0 512 512">
<g id="icomoon-ignore">
</g>
<path d="M61.52 473.6c-17.003 0-31.508-5.849-43.513-17.546s-18.008-25.829-18.008-42.397v-99.384h144.087v6.803c0 5.325 1.856 9.793 5.566 13.406 3.708 3.616 8.294 5.425 13.757 5.425 5.4 0 9.921-1.809 13.563-5.425 3.643-3.612 5.496-8.080 5.561-13.406v-6.803h146.522v6.803c0 5.325 1.853 9.793 5.562 13.406 3.711 3.616 8.3 5.425 13.762 5.425 5.396 0 9.915-1.809 13.558-5.425 3.642-3.612 5.498-8.080 5.567-13.406v-6.803h144.494v99.384c0 16.568-6.043 30.7-18.129 42.397s-26.684 17.546-43.798 17.546h-388.555zM6.168 276.802l56.766-133.695c4.658-9.331 11.511-16.923 20.557-22.775 9.046-5.849 19.126-8.773 30.24-8.773h33.591v-27.768c0-12.513 4.478-23.207 13.436-32.081 8.952-8.873 19.787-13.31 32.505-13.31h124.66c12.717 0 23.555 4.437 32.512 13.31 8.952 8.873 13.428 19.567 13.428 32.081v27.768h33.593c11.118 0 21.198 2.924 30.24 8.773 9.047 5.853 15.899 13.445 20.557 22.775l57.373 133.695h-138.119v-7.394c0-5.19-1.856-9.594-5.567-13.209-3.708-3.617-8.226-5.424-13.558-5.424-5.532 0-10.12 1.808-13.762 5.424-3.642 3.616-5.497 8.019-5.562 13.209v7.394h-146.522v-7.394c0-5.19-1.853-9.594-5.561-13.209-3.71-3.617-8.232-5.424-13.563-5.424-5.529 0-10.114 1.808-13.757 5.424-3.642 3.616-5.498 8.019-5.566 13.209v7.394h-137.919zM193.264 111.559h124.659v-27.804h-124.659v27.804z"></path>
</svg>
