<?xml version="1.0" encoding="utf-8"?>
<!-- Generator: Adobe Illustrator 23.0.1, SVG Export Plug-In . SVG Version: 6.00 Build 0)  -->
<svg version="1.1" id="Layer_1" xmlns="http://www.w3.org/2000/svg" xmlns:xlink="http://www.w3.org/1999/xlink" x="0px" y="0px"
	 viewBox="0 0 500 500" style="enable-background:new 0 0 500 500;" xml:space="preserve">
<style type="text/css">
	.st0{fill:#A0A0B1;}
	.st1{clip-path:url(#SVGID_2_);}
</style>
<g>
	<path class="st0" d="M21.8,410c0.1,17.5,5.7,33.3,15.7,44.5c9.9,11.1,23.8,17.3,39,17.3c58.3,0.2,117.7,0.2,175.1,0.2
		c11.6,0,23.2,0,34.7,0c23,0,46,0,68.9,0c-6.5-11.2-10.9-23.6-13.5-37.9c-2.3-13.3-2.1-26.6-1.9-39.5c0.1-3,0.1-6.1,0.1-9.1
		c0-1.8-0.1-2.6-0.2-2.9c-0.2-0.1-0.9-0.2-2.2-0.2c-39.1,0.1-78.9,0.1-117.3,0.1c-13,0-26.1,0-39.2,0c-51.6,0-105,0-157.5-0.1
		c-1,0-1.6,0.1-1.8,0.1c-0.1,0.3-0.1,0.9-0.1,2c0.3,5.3,0.2,10.6,0.1,15.8C21.8,403.5,21.8,406.8,21.8,410z"/>
	<path class="st0" d="M374.1,431.2c3.4,15.4,12.5,28,25.5,35.3c13.4,7.5,29.2,8.8,44.7,3.5c20.9-7.1,34-27.2,34.1-52.3V74.6
		c-0.1-25.7-21.1-46.7-46.8-46.7h-277c-25.8,0-46.7,20.9-46.7,46.7v171c0,1,0,1.9,0.1,2.8l0,0.2c0,31.9,0,64.8-0.1,97.2
		c0,3.6,0.2,3.8,4.1,3.8c39.3-0.1,79.1-0.1,118.4-0.1c19.7,0,39.2,0,58.6,0c19.7,0,39.3,0,59,0c16.2,0,24.9,8.6,25,25
		c0,4.2,0,8.3,0,12.4c0,8.1,0,16.5,0,24.7C372.7,418.4,372.7,424.9,374.1,431.2z M292.9,180.6c25.1,0,45.6,20.5,45.6,45.6
		c0,10.4-3.6,20.5-10.2,28.6c-5.7,7.1-13.3,12.3-22.1,15l-0.7,0.2v8c0,7-5.7,12.7-12.7,12.7s-12.7-5.7-12.7-12.7v-8l-0.8-0.2
		c-8.7-2.8-16.5-8.1-22.1-15c-6.5-8-10.2-18.2-10.2-28.6c0-7,5.7-12.7,12.7-12.7s12.7,5.7,12.7,12.7c0,11.2,9.1,20.3,20.3,20.3
		s20.3-9.1,20.3-20.3c0-11.2-9.1-20.3-20.3-20.3c-25.1,0-45.6-20.5-45.6-45.6c0-10.4,3.6-20.5,10.2-28.6c5.7-7.1,13.3-12.3,22.1-15
		l0.7-0.2v-8c0-7,5.7-12.7,12.7-12.7s12.7,5.7,12.7,12.7v8l0.8,0.2c8.7,2.8,16.5,8.1,22.1,15c6.5,8,10.2,18.2,10.2,28.6
		c0,7-5.7,12.7-12.7,12.7s-12.7-5.7-12.7-12.7c0-11.2-9.1-20.3-20.3-20.3s-20.3,9.1-20.3,20.3C272.6,171.5,281.7,180.6,292.9,180.6z
		"/>
</g>
<g>
	<defs>
		<rect id="SVGID_1_" x="-562" width="500" height="500"/>
	</defs>
	<clipPath id="SVGID_2_">
		<use xlink:href="#SVGID_1_"  style="overflow:visible;"/>
	</clipPath>
	<g class="st1">
		<path class="st0" d="M-235.4,442c-38.7-6.8-77.2-13.4-115.9-20.4c-20-3.6-40.3-5.7-59.6-12.3c-28.8-9.8-50.1-27.1-57.2-58.1
			c-4-17.1-3.1-34.5-0.2-51.6c11.3-65.1,22.9-130.2,34.3-195.3c-22.1,3.8-44.1,7.6-66.1,12.2c-37.5,7.6-64.2,30.6-61.8,77.1
			c0.9,17,4.8,33.6,7.7,50.2c9.2,52.2,18.3,104.4,27.7,156.6c3.2,18,5.1,36.4,11.5,53.6c8.5,22.7,23.3,38.5,47.6,44
			c14.1,3.1,28.4,2.3,42.5-0.2c43.6-7.6,87.2-15,130.7-23c18.4-3.3,37.1-5.2,54.8-11.5c11.1-4,20.9-9.4,28.6-16.7
			C-218.8,445-227.2,443.5-235.4,442z"/>
		<path class="st0" d="M-397.6,98.1c3.3-15.4,4.7-31.1,9.5-46.3c8.8-28.2,26.3-47.2,56.7-51.1c13.9-1.8,27.9-0.2,41.9,2.5
			c30.2,5.7,60.5,10.4,90.7,16.1c27.1,5,54.5,8.4,81.3,15.1c19.9,5,36.8,14.9,47.2,33.6c4.9,8.8,7.4,18.3,8,28.4
			c1.4,21.4-4,42.1-7.5,63c-5.2,30.5-10.6,60.9-16,91.3c-4.4,25.2-9.1,50.5-13.5,75.7c-3,16.9-5.2,33.9-12.4,49.7
			c-10.7,23.4-28.8,36.4-54.5,39.4c-9.3,1.1-18.2-0.9-27.3-0.3c-14.5-2.6-29.1-5.2-43.7-7.7c-32.2-5.7-64.4-11.1-96.5-17
			c-16.6-3.1-33.5-4.7-49.7-10.2c-24-8.1-41.8-22.6-47.7-48.4c-3.3-14.3-2.6-28.7-0.1-43C-420.2,225.2-408.8,161.7-397.6,98.1z
			 M-316.7,122.1c-11.4-0.1-19.8,7.5-20.6,17.6c-0.8,9.3,6.6,18.1,16.4,19.8c12.1,2.1,24.2,4,36.3,6.2
			c42.2,7.4,84.3,14.7,126.5,22.4c10.3,1.9,20-4.9,22.1-15.1c2-9.3-4.6-19.1-14.6-21.4c-4.1-1-8.5-1.6-12.6-2.4
			c-39.3-7-78.6-13.9-117.8-20.8C-293.5,126-305.8,124-316.7,122.1z M-351.6,223.5c0.1,9.4,5.8,16.4,15.1,18.1
			c33.7,6,67.4,11.8,101.2,17.8c11.6,2.1,21.3-4.1,23.3-14.8c1.9-10.4-5.1-19.8-16.3-21.8c-33.5-6-67.1-11.8-100.6-17.7
			C-341.8,202.8-351.7,210.9-351.6,223.5z"/>
	</g>
</g>
</svg>
