<!-- Generated by IcoMoon.io -->
<svg version="1.1" xmlns="http://www.w3.org/2000/svg" width="512" height="512" viewBox="0 0 512 512">
<g id="icomoon-ignore">
</g>
<path d="M510 263.060l-84.51-183.19c-5.142-11.091-13.344-20.484-23.642-27.074s-22.262-10.103-34.488-10.126h-222.72c-12.22 0.022-24.181 3.532-34.475 10.119-10.293 6.587-18.493 15.974-23.635 27.062l-84.529 183.211c-1.31 2.798-1.992 5.849-2 8.94v133.33c0.018 16.969 6.768 33.236 18.766 45.234 11.998 11.999 28.267 18.748 45.234 18.766h384c16.969-0.018 33.236-6.767 45.234-18.766 11.998-11.998 18.747-28.266 18.766-45.234v-133.33c-0.007-3.090-0.69-6.142-2-8.94zM125.27 97.73c1.713-3.696 4.446-6.826 7.877-9.023s7.418-3.368 11.493-3.376h222.72c4.074 0.009 8.061 1.18 11.493 3.376s6.164 5.327 7.877 9.023l73 158.27h-43.88c-8.036-0.036-15.866 2.538-22.313 7.336-6.447 4.796-11.163 11.558-13.437 19.265l-22.891 76.27c-0.319 1.099-0.988 2.064-1.904 2.75s-2.031 1.053-3.176 1.050h-192.26c-1.149 0.001-2.268-0.372-3.187-1.060s-1.59-1.657-1.913-2.76l-22.89-76.25c-2.274-7.709-6.988-14.47-13.435-19.267-6.448-4.796-14.279-7.37-22.316-7.332h-43.91l73.050-158.27z"></path>
</svg>
