<!-- Generated by IcoMoon.io -->
<svg version="1.1" xmlns="http://www.w3.org/2000/svg" width="32" height="32" viewBox="0 0 32 32">
<title>iframe</title>
<path d="M28.433 3.41c1.24 0 1.69 0.129 2.144 0.372s0.809 0.598 1.052 1.052c0.243 0.453 0.372 0.903 0.372 2.144v18.046c0 1.24-0.129 1.69-0.372 2.144s-0.598 0.809-1.052 1.052c-0.453 0.243-0.903 0.372-2.144 0.372h-24.866c-1.24 0-1.69-0.129-2.144-0.372s-0.809-0.598-1.052-1.052c-0.243-0.453-0.372-0.903-0.372-2.144v-18.046c0-1.24 0.129-1.69 0.372-2.144s0.598-0.809 1.052-1.052c0.453-0.243 0.903-0.372 2.144-0.372h24.866zM27.331 10.492h-3.253c-0.62 0-0.845 0.065-1.072 0.186s-0.405 0.299-0.526 0.526c-0.121 0.227-0.186 0.452-0.186 1.072v0 11.646c0 0.62 0.065 0.845 0.186 1.072s0.299 0.405 0.526 0.526c0.227 0.121 0.452 0.186 1.072 0.186v0h3.253c0.62 0 0.845-0.065 1.072-0.186s0.405-0.299 0.526-0.526c0.121-0.227 0.186-0.452 0.186-1.072v0-11.646c0-0.62-0.065-0.845-0.186-1.072s-0.299-0.405-0.526-0.526c-0.227-0.121-0.452-0.186-1.072-0.186v0zM19.2 18.623h-14.269c-0.62 0-0.845 0.065-1.072 0.186s-0.405 0.299-0.526 0.526c-0.121 0.227-0.186 0.452-0.186 1.072v0 3.253c0 0.62 0.065 0.845 0.186 1.072s0.299 0.405 0.526 0.526c0.227 0.121 0.452 0.186 1.072 0.186v0h14.269c0.62 0 0.845-0.065 1.072-0.186s0.405-0.299 0.526-0.526c0.121-0.227 0.186-0.452 0.186-1.072v0-3.253c0-0.62-0.065-0.845-0.186-1.072s-0.299-0.405-0.526-0.526c-0.227-0.121-0.452-0.186-1.072-0.186v0zM19.2 10.754h-14.269c-0.62 0-0.845 0.065-1.072 0.186s-0.405 0.299-0.526 0.526c-0.121 0.227-0.186 0.452-0.186 1.072v0 3.252c0 0.62 0.065 0.845 0.186 1.072s0.299 0.405 0.526 0.526c0.227 0.121 0.452 0.186 1.072 0.186v0h14.269c0.62 0 0.845-0.065 1.072-0.186s0.405-0.299 0.526-0.526c0.121-0.227 0.186-0.452 0.186-1.072v0-3.252c0-0.62-0.065-0.845-0.186-1.072s-0.299-0.405-0.526-0.526c-0.227-0.121-0.452-0.186-1.072-0.186v0z"></path>
</svg>
