<!-- Generated by IcoMoon.io -->
<svg version="1.1" xmlns="http://www.w3.org/2000/svg" width="32" height="32" viewBox="0 0 32 32">
<title>image</title>
<path d="M27.915 0c2.256 0 4.085 1.829 4.085 4.085v23.83c0 2.256-1.829 4.085-4.085 4.085h-23.83c-2.256 0-4.085-1.829-4.085-4.085v-23.83c0-2.256 1.829-4.085 4.085-4.085h23.83zM22.339 14.785l-14.445 14.492h19.34c1.088 0 1.977-0.85 2.039-1.923l0.003-0.12v-5.219l-6.938-7.231zM27.234 2.723h-22.468c-1.128 0-2.043 0.914-2.043 2.043v0 22.468c0 0.821 0.484 1.528 1.182 1.853l18.433-18.449 6.938 6.99v-12.863c0-1.088-0.85-1.977-1.923-2.039l-0.12-0.003zM10.213 6.128c2.256 0 4.085 1.829 4.085 4.085s-1.829 4.085-4.085 4.085c-2.256 0-4.085-1.829-4.085-4.085s1.829-4.085 4.085-4.085zM10.213 8.851c-0.752 0-1.362 0.61-1.362 1.362s0.61 1.362 1.362 1.362c0.752 0 1.362-0.61 1.362-1.362s-0.61-1.362-1.362-1.362z"></path>
</svg>
