<!-- Generated by IcoMoon.io -->
<svg version="1.1" xmlns="http://www.w3.org/2000/svg" width="32" height="32" viewBox="0 0 32 32">
<title>link</title>
<path d="M14.246 10.286c1.427 0 2.824 0.409 4.026 1.178 0.454 0.289 0.874 0.627 1.253 1.008 0.432 0.433 0.658 1.031 0.619 1.642-0.037 0.511-0.256 0.992-0.619 1.354-0.842 0.792-2.155 0.792-2.997 0-1.249-1.248-3.273-1.248-4.522 0v0l-6.809 6.804c-1.25 1.25-1.25 3.277 0 4.527s3.277 1.25 4.527 0v0l4.026-4.031c0.152-0.153 0.382-0.199 0.581-0.117 1.084 0.441 2.243 0.665 3.413 0.661v0h0.213c0.294-0.002 0.535 0.236 0.536 0.53 0.001 0.143-0.056 0.281-0.158 0.382v0l-5.599 5.599c-1.398 1.399-3.296 2.182-5.274 2.176-4.123-0.003-7.463-3.347-7.461-7.47 0.001-1.976 0.786-3.87 2.181-5.269v0l6.783-6.788c1.398-1.403 3.298-2.19 5.279-2.186zM19.253 2.187c2.916-2.916 7.643-2.916 10.558 0s2.916 7.643-0 10.558v0l-6.788 6.788c-0.955 0.955-2.151 1.633-3.461 1.962v0h-0.059l-0.309 0.064-0.171 0.032-0.368 0.053h-0.181c-0.139 0-0.261 0.027-0.379 0.032v0l-0.32 0.037h-0.405c-0.266-0.011-0.531-0.036-0.795-0.075-0.219-0.037-0.432-0.080-0.645-0.133v0l-0.315-0.085c-0.112-0.032-0.229-0.069-0.341-0.112s-0.229-0.080-0.341-0.128c-0.112-0.048-0.224-0.091-0.336-0.144-0.794-0.368-1.516-0.873-2.133-1.493-0.432-0.433-0.658-1.032-0.619-1.642 0.034-0.515 0.254-1 0.619-1.365 0.842-0.792 2.155-0.792 2.997 0 1.249 1.248 3.273 1.248 4.522 0v0l1.749-1.738 0.043-0.048 5.002-4.996c1.25-1.25 1.25-3.277 0-4.527s-3.277-1.25-4.527 0v0l-4.015 4.010c-0.152 0.153-0.382 0.199-0.581 0.117-1.081-0.442-2.239-0.669-3.407-0.667v0h-0.197c-0.218 0.004-0.416-0.125-0.501-0.325-0.086-0.2-0.042-0.432 0.112-0.587v0z"></path>
</svg>
