<svg version="1.1" xmlns="http://www.w3.org/2000/svg" width="512" height="512" viewBox="0 0 512 512">
<path d="M146.228 208.179v95.641c0 16.384 11.469 23.142 25.805 14.746l24.986-14.746 30.31-17.818 24.986-14.746c6.349-2.253 10.649-8.397 10.649-15.155s-4.3-12.902-10.649-15.155l-24.986-14.746-30.31-17.818-24.986-14.746c-14.336-8.397-25.805-1.843-25.805 14.541zM512 165.375v181.453c0 16.998-16.384 23.348-36.454 14.131l-66.355-30.515v-148.685l66.355-30.516c20.070-9.216 36.454-2.868 36.454 14.131zM341.606 119.296c21.299 0 38.502 17.204 38.502 38.707v196.403c0 21.299-17.204 38.502-38.502 38.502h-303.104c-21.299 0-38.502-17.204-38.502-38.502v-196.608c0-21.299 17.203-38.502 38.502-38.707l303.104 0.204z"></path>
</svg>
