<!-- Generated by IcoMoon.io -->
<svg version="1.1" xmlns="http://www.w3.org/2000/svg" width="32" height="32" viewBox="0 0 32 32">
<title>media</title>
<path d="M30.609 3.478h-22.47c-0.768 0-1.391 0.623-1.391 1.391v0 6.233h8.125v-4.842h9.238v15.026h6.497c0.768 0 1.391-0.623 1.391-1.391v0-15.026c0-0.768-0.623-1.391-1.391-1.391v0zM12.522 8.835h-2.602v-2.574h2.602zM28.911 18.574h-2.616v-2.574h2.588zM28.911 13.746h-2.616v-2.657h2.588zM28.911 8.904h-2.616v-2.643h2.588z"></path>
<path d="M21.315 11.743h-20.271c-0.573 0.008-1.036 0.47-1.043 1.043v14.345c0 0.576 0.467 1.043 1.043 1.043v0h20.271c0.576 0 1.043-0.467 1.043-1.043v0-14.344c-0.008-0.573-0.47-1.036-1.043-1.043h-0.001zM4.397 14.678c0.937 0 1.697 0.76 1.697 1.697s-0.76 1.697-1.697 1.697c-0.937 0-1.697-0.76-1.697-1.697v0c0-0.937 0.76-1.697 1.697-1.697v0zM20.717 26.63h-19.089l4.424-5.203 2.783 2.602 6.358-7.332 5.565 4.967z"></path>
</svg>
