<!-- Generated by IcoMoon.io -->
<svg version="1.1" xmlns="http://www.w3.org/2000/svg" width="32" height="32" viewBox="0 0 32 32">
<title>men</title>
<path d="M10.487 15.178c-0.427-0.679-0.774-1.406-1.037-2.164-0.141 0.046-0.296 0.021-0.415-0.067-0.525-0.735-0.844-1.597-0.925-2.498-0.121-0.613-0.014-1.387 0.305-1.472 0.082-0.023 0.168-0.029 0.253-0.018-0.001-0.057 0.003-0.114 0.011-0.17 0-0.045 0.011-0.091 0.011-0.132 0-0.149-0.027-0.303-0.045-0.45l-0.014-0.094c-0.158-1.181-0.149-2.379 0.027-3.558 0.036-0.329 0.126-0.65 0.265-0.95 0.313-0.507 0.731-0.939 1.226-1.269 0.309-0.249 0.63-0.482 0.963-0.698l0.117-0.073c0.133-0.076 0.261-0.162 0.381-0.257 0.078-0.065 0.152-0.134 0.222-0.207l0.157-0.154c0.853-0.638 1.897-0.965 2.96-0.928 0.93-0.047 1.862-0.006 2.785 0.121 0.532 0.040 1.047 0.208 1.501 0.491h0.421c0.218-0.006 0.437 0.015 0.65 0.062 0.341 0.102 0.659 0.27 0.936 0.495 0.339 0.202 0.603 0.507 0.755 0.872v0.031c0.009 0.035 0.022 0.070 0.040 0.102 0.042 0.050 0.096 0.089 0.157 0.112l0.022 0.011c0.541 0.294 0.964 0.767 1.197 1.338 0.198 0.527 0.307 1.083 0.323 1.646 0.019 0.132 0.019 0.265 0 0.397-0.061 0.324-0.096 0.653-0.107 0.982-0.013 0.327-0.049 0.652-0.107 0.973-0.013 0.069-0.031 0.141-0.043 0.208-0.049 0.196-0.082 0.396-0.099 0.598 0 0.033 0 0.065 0 0.1 0.001 0.133-0.017 0.267-0.052 0.395 0.087-0.012 0.175-0.005 0.26 0.018 0.323 0.083 0.426 0.859 0.305 1.472-0.082 0.9-0.402 1.762-0.925 2.498-0.071 0.060-0.162 0.093-0.255 0.091-0.055-0.001-0.109-0.009-0.163-0.024-0.265 0.758-0.613 1.484-1.038 2.164-4.576 8.239 4.412 6.816 8.127 9.355 3.215 2.193 3.137 7.398-0.181 7.472h-26.92c-3.314-0.071-3.393-5.273-0.179-7.466 3.715-2.538 12.704-1.115 8.127-9.355z"></path>
</svg>
