<!-- Generated by IcoMoon.io -->
<svg version="1.1" xmlns="http://www.w3.org/2000/svg" width="32" height="32" viewBox="0 0 32 32">
<title>menu-livewebinars</title>
<path d="M9.139 13.011v5.978c0 1.024 0.717 1.446 1.613 0.922l1.562-0.922 1.894-1.114 1.562-0.922c0.397-0.141 0.666-0.525 0.666-0.947s-0.269-0.806-0.666-0.947l-1.562-0.922-1.894-1.114-1.562-0.922c-0.896-0.525-1.613-0.115-1.613 0.909zM32 10.336v11.341c0 1.062-1.024 1.459-2.278 0.883l-4.147-1.907v-9.293l4.147-1.907c1.254-0.576 2.278-0.179 2.278 0.883zM21.35 7.456c1.331 0 2.406 1.075 2.406 2.419v12.275c0 1.331-1.075 2.406-2.406 2.406h-18.944c-1.331 0-2.406-1.075-2.406-2.406v-12.288c0-1.331 1.075-2.406 2.406-2.419l18.944 0.013z"></path>
</svg>
