<!-- Generated by IcoMoon.io -->
<svg version="1.1" xmlns="http://www.w3.org/2000/svg" width="32" height="32" viewBox="0 0 32 32">
<title>menu-marketplace</title>
<path d="M8.101 12.095c0.268 1.093 1.656 1.914 3.385 1.914h0.366c1.487 0.122 2.912-0.623 3.659-1.914h0.71c0.269 1.093 1.656 1.914 3.386 1.914h0.366c1.487 0.122 2.911-0.623 3.658-1.914h0.708c0.269 1.093 1.655 1.914 3.385 1.914h0.37c0.553 0.001 1.104-0.085 1.63-0.256v14.872h-16.565v-11.167c-0.013-0.541-0.46-0.97-1.001-0.961h-5.645c-0.541-0.009-0.988 0.42-1.001 0.961v11.169h-3.558v-14.83c0.476 0.144 0.971 0.216 1.469 0.214h0.369c1.487 0.122 2.911-0.623 3.659-1.914h0.648zM25.248 16.498h-4.641c-0.541-0.009-0.988 0.421-1 0.961v5.030c0.012 0.541 0.459 0.971 1 0.961h4.641c0.541 0.010 0.989-0.42 1.002-0.961h-0.001v-5.030c-0.013-0.541-0.46-0.97-1.001-0.961zM9.127 3.374l-1.429 5.127-0.123 1.787c-0.095 1.389-1.785 2.509-3.773 2.509h-0.369c-1.986 0-3.52-1.123-3.43-2.509l0.124-1.787 3.587-5.127h5.412zM15.036 3.374l0.725 5.127-0.122 1.787c-0.094 1.389-1.785 2.509-3.774 2.509h-0.369c-1.989 0-3.525-1.123-3.429-2.509l0.123-1.787 1.43-5.127h5.414zM20.999 3.374l2.884 5.127-0.123 1.787c-0.094 1.389-1.785 2.509-3.774 2.509h-0.369c-1.988 0-3.523-1.123-3.429-2.509l0.123-1.787-0.725-5.127h5.412zM26.962 3.374l5.038 5.127-0.122 1.787c-0.095 1.389-1.784 2.509-3.774 2.509h-0.367c-1.986 0-3.523-1.123-3.428-2.509l0.123-1.787-2.884-5.127h5.413z"></path>
</svg>
