<!-- Generated by IcoMoon.io -->
<svg version="1.1" xmlns="http://www.w3.org/2000/svg" width="32" height="32" viewBox="0 0 32 32">
<title>menu-meetingroom</title>
<path d="M0.015 12.61c0.294-3.315 4.633-5.644 9.714-5.196 5.068 0.448 8.947 3.494 8.665 6.809-0.294 3.315-4.633 5.644-9.714 5.209-0.806-0.064-1.574-0.205-2.317-0.397-1.638 0.717-3.405 1.126-5.209 1.203l1.907-2.611c-2.009-1.305-3.213-3.11-3.046-5.017zM29.863 14.965c1.766 2.125 1.638 4.71-0.064 6.694l2.201 2.982c-1.664-0.077-3.289-0.422-4.825-1.037l-0.23 0.102c-4.121 1.83-9.484 0.87-11.993-2.125-0.358-0.422-0.653-0.896-0.87-1.395 1.881-0.371 3.597-1.344 4.876-2.777 1.28-1.421 1.625-3.469 0.858-5.235 3.737-0.832 7.935 0.243 10.047 2.79z"></path>
</svg>
