<!-- Generated by IcoMoon.io -->
<svg version="1.1" xmlns="http://www.w3.org/2000/svg" width="32" height="32" viewBox="0 0 32 32">
<title>menu-teamwebinars</title>
<path d="M23.798 3.685c0.307 0.026 0.601 0.115 0.857 0.281h0.243c0.128 0 0.243 0.013 0.371 0.038 0.192 0.064 0.371 0.153 0.537 0.281 0.192 0.115 0.345 0.294 0.435 0.499v0.013c0 0.026 0.013 0.038 0.026 0.051 0.026 0.026 0.051 0.051 0.090 0.064h0.013c0.307 0.166 0.55 0.435 0.69 0.767 0.115 0.294 0.179 0.614 0.179 0.933 0.013 0.077 0.013 0.153 0 0.23-0.038 0.179-0.051 0.371-0.064 0.563s-0.026 0.371-0.064 0.55c-0.013 0.038-0.013 0.077-0.026 0.115-0.026 0.115-0.051 0.23-0.051 0.345v0.051c0 0.077-0.013 0.153-0.026 0.23 0.051-0.013 0.102 0 0.153 0.013 0.179 0.051 0.243 0.486 0.179 0.844-0.051 0.511-0.23 1.010-0.524 1.419-0.038 0.038-0.090 0.051-0.141 0.051-0.026 0-0.064 0-0.090-0.013-0.153 0.435-0.345 0.844-0.588 1.227-1.841 3.298 0.141 3.874 2.224 4.436l0.473 0.128c0.729 0.192 1.432 0.422 1.956 0.767 1.841 1.253 1.79 4.219-0.102 4.257h-15.443c-1.892-0.038-1.943-3.004-0.102-4.257 0.486-0.332 1.125-0.537 1.79-0.729l0.307-0.090 0.473-0.128c2.020-0.55 3.861-1.176 2.071-4.385-0.243-0.384-0.447-0.805-0.588-1.227-0.077 0.026-0.166 0.013-0.243-0.038-0.294-0.422-0.486-0.908-0.524-1.419-0.064-0.345-0.013-0.793 0.179-0.844 0.051-0.013 0.102-0.013 0.141-0.013 0-0.038 0-0.064 0-0.102 0-0.026 0-0.051 0-0.077 0-0.089-0.013-0.166-0.026-0.256l-0.013-0.051c-0.090-0.678-0.090-1.355 0.013-2.033 0.026-0.192 0.077-0.371 0.153-0.537 0.179-0.294 0.422-0.537 0.703-0.729 0.179-0.141 0.358-0.268 0.55-0.396l0.064-0.038c0.077-0.038 0.153-0.090 0.217-0.141 0.051-0.038 0.090-0.077 0.128-0.115l0.090-0.090c0.486-0.358 1.087-0.55 1.688-0.524 0.563-0.013 1.087 0 1.624 0.077zM10.132 10.243c0.307 0.013 0.601 0.115 0.857 0.281h0.243c0.128 0 0.256 0.013 0.371 0.038 0.192 0.064 0.371 0.153 0.537 0.281 0.192 0.115 0.345 0.294 0.435 0.499v0.013c0 0.026 0.013 0.038 0.026 0.064 0.026 0.026 0.051 0.051 0.089 0.064h0.013c0.307 0.166 0.55 0.435 0.69 0.767 0.115 0.294 0.179 0.614 0.179 0.933 0.013 0.077 0.013 0.153 0 0.23-0.038 0.179-0.051 0.371-0.064 0.563s-0.026 0.371-0.064 0.55c-0.013 0.038-0.013 0.077-0.026 0.115-0.026 0.115-0.051 0.23-0.051 0.345v0.051c0 0.077-0.013 0.153-0.026 0.23 0.051-0.013 0.102 0 0.153 0.013 0.179 0.051 0.243 0.486 0.179 0.844-0.051 0.511-0.23 1.010-0.524 1.419-0.038 0.038-0.089 0.051-0.141 0.051-0.026 0-0.064 0-0.089-0.013-0.153 0.435-0.345 0.844-0.588 1.227-2.621 4.692 2.518 3.886 4.641 5.331 1.841 1.253 1.79 4.219-0.102 4.257h-15.418c-1.892-0.038-1.943-3.004-0.102-4.257 0.486-0.332 1.125-0.537 1.79-0.729l0.307-0.090 0.473-0.128c2.020-0.55 3.861-1.176 2.071-4.385-0.243-0.384-0.447-0.805-0.588-1.227-0.077 0.026-0.166 0.013-0.243-0.038-0.294-0.422-0.486-0.908-0.524-1.419-0.064-0.345-0.013-0.793 0.179-0.844 0.051-0.013 0.102-0.013 0.141-0.013 0-0.038 0-0.064 0-0.102 0-0.026 0-0.051 0-0.077 0-0.089-0.013-0.166-0.026-0.256l-0.013-0.051c-0.090-0.678-0.090-1.355 0.013-2.033 0.026-0.192 0.077-0.371 0.153-0.537 0.179-0.294 0.422-0.537 0.703-0.729 0.179-0.141 0.358-0.268 0.55-0.396l0.064-0.038c0.090-0.038 0.166-0.089 0.23-0.141 0.038-0.038 0.090-0.077 0.128-0.115l0.090-0.089c0.486-0.358 1.087-0.55 1.687-0.524 0.537-0.038 1.074-0.013 1.598 0.064z"></path>
</svg>
