<!-- Generated by IcoMoon.io -->
<svg version="1.1" xmlns="http://www.w3.org/2000/svg" width="32" height="32" viewBox="0 0 32 32">
<title>menu-media</title>
<path d="M2.987 7.791v14.886c0 1.649 1.337 2.987 2.987 2.987h21.574c0 1.649-1.337 2.987-2.987 2.987h-21.577c-1.649-0.001-2.985-1.338-2.985-2.987v-14.886c0-1.649 1.337-2.987 2.987-2.987zM29.024 3.349c1.643 0.001 2.975 1.333 2.976 2.976v14.905c-0.001 1.643-1.333 2.975-2.976 2.976h-21.597c-1.641-0.003-2.971-1.334-2.973-2.975v-14.906c0.001-1.643 1.333-2.975 2.976-2.976h21.594zM21.721 11.57l-5.139 5.82-3.733-4.107-5.12 6.428 20.998-0.011-7.006-8.13zM10.001 7.452c-0.544 0.666-0.446 1.646 0.219 2.191 0.666 0.544 1.646 0.446 2.191-0.219 0.544-0.666 0.446-1.646-0.219-2.191-0.666-0.544-1.646-0.446-2.191 0.219z"></path>
</svg>
