<!-- Generated by IcoMoon.io -->
<svg version="1.1" xmlns="http://www.w3.org/2000/svg" width="32" height="32" viewBox="0 0 32 32">
<title>menu-webinarsharing</title>
<path d="M3.658 3.77l19.78 0.006c0.888 0 1.608 0.721 1.608 1.609-0 0.836-0.638 1.523-1.454 1.6l-0.155 0.007-19.738-0.007c-0.243 0.006-0.441 0.187-0.477 0.446l-0.006 0.101-0 12.227c-0.006 0.243 0.164 0.45 0.365 0.497l0.076 0.010 23.18 0.001c0.243-0.006 0.441-0.187 0.477-0.446l0.006-0.101v-1.026c0-0.888 0.72-1.608 1.608-1.608 0.836 0 1.523 0.638 1.601 1.453l0.007 0.155-0 0.988c0.047 1.979-1.463 3.634-3.451 3.79l-0.207 0.011-7.666-0.001v2.233l0.093 0.080 1.531 1.311c0.725 0.62 0.536 1.124-0.416 1.124h-10.306c-0.951 0.001-1.14-0.503-0.415-1.124l1.539-1.319v-2.305l-7.625 0c-1.978-0.052-3.555-1.642-3.614-3.562l-0-12.35c-0.047-1.978 1.462-3.633 3.45-3.79l0.207-0.011zM24.681 8.852c0-0.65 0.447-0.898 0.998-0.553v0l2.062 1.287 1.786 1.134 2.061 1.287c0.25 0.107 0.413 0.353 0.413 0.625s-0.162 0.518-0.413 0.625v0l-2.061 1.287-1.786 1.119-2.062 1.287c-0.551 0.345-0.998 0.098-0.998-0.548v0l-0-1.761-7.378 0v-4.037l7.378-0.001z"></path>
</svg>
