<!-- Generated by IcoMoon.io -->
<svg version="1.1" xmlns="http://www.w3.org/2000/svg" width="32" height="32" viewBox="0 0 32 32">
<title>menu-admin</title>
<path d="M23.665 14.123c0.452 0.012 0.903 0.047 1.351 0.107v1.414c0.422 1.003 1.568 1.484 2.579 1.084l1.013-1.004c0.674 0.428 1.253 0.988 1.701 1.648l-1.047 1.048c-0.167 0.961-0.348 1.955 1.11 2.589h1.513c0.152 0.913 0.152 1.844 0 2.757h-1.486c-1.563 0.685-1.316 1.67-1.12 2.606l1.021 1.021c-0.466 0.63-1.029 1.183-1.666 1.638l-1.031-1.030c-1.181-0.163-2.136 0.072-2.588 1.156v1.368c-0.91 0.158-1.84 0.151-2.748-0.018v-1.36c-0.526-1.093-1.319-1.288-2.577-1.156l-0.961 0.961c-0.629-0.483-1.186-1.053-1.656-1.692l0.922-0.924c0.344-1.151 0.24-2.095-1.112-2.57h-1.297c-0.145-0.913-0.143-1.844 0.006-2.757h1.334c0.969-0.498 1.723-1.134 1.068-2.616l-0.905-0.903c0.458-0.636 1.011-1.197 1.638-1.666l0.95 0.947c0.494 0.197 1.046 0.187 1.532-0.027s0.866-0.615 1.055-1.112v-1.37c0.459-0.101 0.929-0.149 1.399-0.142zM14.582 1.475c0.438 0.034 0.861 0.172 1.234 0.404h0.347c0.179-0.005 0.359 0.012 0.534 0.050 0.281 0.083 0.543 0.221 0.77 0.406 0.278 0.165 0.495 0.415 0.619 0.713l0.006 0.026c0.007 0.029 0.018 0.057 0.033 0.082 0.035 0.041 0.079 0.073 0.129 0.092l0.017 0.009c0.445 0.241 0.793 0.629 0.985 1.097 0.164 0.431 0.253 0.887 0.265 1.348 0.015 0.106 0.013 0.215-0.005 0.32-0.051 0.266-0.080 0.535-0.087 0.805-0.011 0.268-0.041 0.534-0.089 0.798-0.009 0.058-0.023 0.114-0.034 0.171-0.041 0.16-0.068 0.324-0.081 0.489v0.082c-0 0.108-0.015 0.216-0.045 0.32 0.071-0.010 0.144-0.005 0.214 0.014 0.268 0.069 0.351 0.704 0.253 1.206-0.068 0.738-0.33 1.444-0.759 2.047-0.059 0.048-0.132 0.074-0.208 0.073-0.045-0.001-0.091-0.008-0.135-0.019-0.218 0.621-0.504 1.215-0.854 1.772-0.207 0.366-0.394 0.743-0.56 1.13-0.533 0.413-1.013 0.889-1.431 1.417-2.553 3.313-2.553 7.93 0 11.243h-13.612c-2.727-0.051-2.791-4.31-0.15-6.114 0.648-0.441 1.492-0.737 2.382-0.992l0.384-0.107 0.387-0.105c3.105-0.829 6.269-1.552 3.531-6.463-0.352-0.556-0.639-1.15-0.854-1.772-0.117 0.037-0.244 0.017-0.343-0.054-0.431-0.602-0.694-1.309-0.759-2.047-0.1-0.503-0.015-1.137 0.25-1.206 0.068-0.019 0.138-0.024 0.208-0.016-0.002-0.046 0.001-0.093 0.009-0.139 0-0.037 0.009-0.075 0.009-0.107-0.006-0.122-0.025-0.247-0.037-0.367l-0.011-0.079c-0.13-0.968-0.123-1.949 0.022-2.915 0.029-0.269 0.101-0.532 0.214-0.779 0.259-0.412 0.603-0.765 1.009-1.034 0.251-0.193 0.512-0.396 0.791-0.574 0.036-0.018 0.066-0.038 0.099-0.058 0.11-0.063 0.214-0.134 0.312-0.214 0.065-0.052 0.126-0.108 0.184-0.168 0.043-0.043 0.084-0.084 0.129-0.126 0.702-0.523 1.562-0.791 2.436-0.759 0.765-0.038 1.531-0.005 2.29 0.099zM23.777 19.521c-0.492 0.003-0.975 0.129-1.406 0.366-0.687 0.377-1.195 1.012-1.414 1.764s-0.129 1.561 0.248 2.247c0.784 1.43 2.578 1.956 4.010 1.174v0.001c1.434-0.787 1.959-2.587 1.175-4.022-0.49-0.887-1.396-1.458-2.398-1.524l-0.216-0.006z"></path>
</svg>
