<!-- Generated by IcoMoon.io -->
<svg version="1.1" xmlns="http://www.w3.org/2000/svg" width="32" height="32" viewBox="0 0 32 32">
<title>menu-logout</title>
<path d="M8.613 5.442c0.915 0.947 0.889 2.457-0.058 3.373-4.224 4.082-4.372 10.804-0.332 15.068 4.038 4.264 10.757 4.483 15.063 0.49 4.306-3.996 4.591-10.713 0.641-15.060-0.886-0.975-0.814-2.483 0.161-3.369s2.483-0.814 3.369 0.161c5.71 6.282 5.297 15.991-0.927 21.766-6.224 5.771-15.935 5.456-21.771-0.707-5.839-6.163-5.625-15.88 0.48-21.779 0.947-0.915 2.457-0.889 3.373 0.058zM15.894 0c1.257-0.019 2.302 0.938 2.412 2.171l0.009 0.178 0.14 9.223c0.020 1.317-1.032 2.401-2.349 2.421-1.257 0.019-2.302-0.938-2.412-2.171l-0.009-0.178-0.14-9.223c-0.020-1.317 1.031-2.401 2.349-2.421z"></path>
</svg>
