<!-- Generated by IcoMoon.io -->
<svg version="1.1" xmlns="http://www.w3.org/2000/svg" width="32" height="32" viewBox="0 0 32 32">
<title>menu-moderatorlogin</title>
<path d="M16.070 0c2.662 0 4.813 2.163 4.813 4.813v13.952c0 2.662-2.163 4.813-4.813 4.813h-0.154c-2.65 0-4.813-2.15-4.813-4.8v-7.68h2.688c0.435 0 0.781-0.358 0.781-0.781v-0.026c0-0.205-0.077-0.41-0.23-0.55-0.154-0.154-0.346-0.23-0.55-0.23h-2.688v-0.794h2.688c0.435 0 0.781-0.358 0.781-0.781v-0.026c0-0.435-0.358-0.781-0.781-0.781h-2.688v-0.806h2.688c0.205 0 0.41-0.077 0.55-0.23 0.154-0.154 0.23-0.346 0.23-0.55v-0.026c0-0.435-0.358-0.781-0.781-0.781h-2.688c0.051-2.637 2.189-4.736 4.813-4.736h0.154zM23.149 11.738c0.589 0 1.062 0.435 1.126 1.011l0.013 0.128v5.965c0 4.211-3.213 7.68-7.309 8.102v2.803h1.715c0.627 0 1.126 0.512 1.126 1.126 0 0.589-0.435 1.062-1.011 1.126h-5.824c-0.627 0-1.126-0.512-1.126-1.126 0-0.589 0.435-1.062 1.011-1.126l0.128-0.013h1.715v-2.842c-3.878-0.538-6.886-3.814-7.002-7.808v-6.208c0-0.627 0.512-1.126 1.126-1.126 0.589 0 1.062 0.435 1.126 1.011l0.013 0.128v5.965c0 3.174 2.509 5.76 5.658 5.875h0.525c3.174 0 5.76-2.509 5.875-5.658v-6.182c-0.013-0.653 0.499-1.152 1.114-1.152z"></path>
</svg>
