<!-- Generated by IcoMoon.io -->
<svg version="1.1" xmlns="http://www.w3.org/2000/svg" width="32" height="32" viewBox="0 0 32 32">
<title>menu-dashboard</title>
<path d="M16 0c8.837 0 16 7.163 16 16s-7.163 16-16 16c-8.837 0-16-7.163-16-16s7.163-16 16-16zM16 3.79c-6.743 0-12.21 5.466-12.21 12.21s5.466 12.21 12.21 12.21c6.743 0 12.21-5.466 12.21-12.21s-5.466-12.21-12.21-12.21zM22.87 9.255c0.493 0.494 0.526 1.273 0.098 1.805l-0.099 0.11-3.654 3.652c0.134 0.367 0.208 0.763 0.208 1.177 0 1.889-1.531 3.42-3.42 3.42s-3.42-1.531-3.42-3.42c0-1.889 1.531-3.42 3.42-3.42 0.479 0 0.935 0.099 1.349 0.277l3.603-3.6c0.529-0.528 1.386-0.528 1.914 0.001zM16.002 14.745c-0.693 0-1.254 0.562-1.254 1.254s0.562 1.254 1.254 1.254c0.693 0 1.254-0.561 1.254-1.254s-0.561-1.254-1.254-1.254z"></path>
</svg>
