<!-- Generated by IcoMoon.io -->
<svg version="1.1" xmlns="http://www.w3.org/2000/svg" width="32" height="32" viewBox="0 0 32 32">
<title>menu-account</title>
<path d="M28.683 6.243c5.385 7.005 4.075 17.049-2.926 22.439-7.005 5.385-17.049 4.075-22.439-2.926-5.385-7.005-4.075-17.049 2.926-22.439 7.005-5.385 17.049-4.075 22.439 2.926zM15.168 5.134c-0.826-0.029-1.636 0.228-2.293 0.728-0.042 0.041-0.081 0.080-0.122 0.121-0.058 0.057-0.107 0.112-0.172 0.162-0.093 0.075-0.191 0.142-0.295 0.202l-0.092 0.057c-0.266 0.169-0.509 0.361-0.747 0.548-0.383 0.258-0.706 0.596-0.948 0.99-0.109 0.236-0.179 0.489-0.207 0.747-0.137 0.926-0.144 1.866-0.021 2.794l0.011 0.074c0.014 0.115 0.030 0.236 0.035 0.353 0 0.033-0.005 0.068-0.009 0.107-0.007 0.044-0.009 0.089-0.009 0.133-0.066-0.008-0.132-0.002-0.195 0.016-0.248 0.065-0.33 0.674-0.236 1.154 0.061 0.705 0.308 1.382 0.715 1.96 0.091 0.070 0.211 0.090 0.32 0.053 0.203 0.595 0.472 1.165 0.803 1.699 2.266 4.136 0.238 5.17-2.273 5.899l-0.39 0.11c-0.196 0.054-0.394 0.108-0.592 0.161l-0.395 0.108c-0.066 0.018-0.131 0.037-0.197 0.055l-0.389 0.113c-0.772 0.233-1.497 0.504-2.064 0.896-0.227 0.156-0.437 0.335-0.628 0.534 5.3 5.907 14.275 6.685 20.512 1.778v0.004c0.684-0.535 1.322-1.126 1.906-1.769-0.195-0.203-0.409-0.386-0.641-0.547-0.708-0.49-1.662-0.792-2.647-1.065l-0.395-0.108c-2.901-0.786-5.812-1.505-3.257-6.171 0.329-0.535 0.598-1.105 0.803-1.699 0.041 0.012 0.083 0.018 0.125 0.019 0.073 0.001 0.143-0.025 0.199-0.073 0.405-0.58 0.651-1.256 0.714-1.96 0.093-0.48 0.013-1.089-0.237-1.154-0.066-0.019-0.134-0.024-0.202-0.015 0.027-0.101 0.041-0.205 0.042-0.31v-0.079c0.012-0.158 0.038-0.316 0.077-0.47 0.011-0.053 0.025-0.107 0.034-0.164 0.044-0.253 0.072-0.508 0.082-0.764 0.007-0.259 0.035-0.516 0.082-0.771 0.016-0.103 0.016-0.208 0-0.311-0.011-0.442-0.095-0.879-0.25-1.293-0.178-0.447-0.506-0.818-0.928-1.051l-0.016-0.009c-0.047-0.018-0.089-0.049-0.121-0.089-0.015-0.024-0.025-0.051-0.031-0.079l-0.006-0.024c-0.116-0.285-0.321-0.525-0.584-0.684-0.214-0.176-0.46-0.309-0.725-0.39-0.165-0.036-0.333-0.052-0.502-0.048h-0.328c-0.35-0.222-0.749-0.355-1.163-0.388-0.714-0.1-1.436-0.131-2.157-0.095z"></path>
</svg>
