<!-- Generated by IcoMoon.io -->
<svg version="1.1" xmlns="http://www.w3.org/2000/svg" width="32" height="32" viewBox="0 0 32 32">
<title>mobile</title>
<path d="M22.177 0c1.537 0 2.783 1.246 2.783 2.783v26.435c0 1.537-1.246 2.783-2.783 2.783h-12.355c-1.537 0-2.783-1.246-2.783-2.783v-26.435c0-1.537 1.246-2.783 2.783-2.783h12.355zM16 28.16c-0.707 0-1.28 0.573-1.28 1.28s0.573 1.28 1.28 1.28c0.707 0 1.28-0.573 1.28-1.28s-0.573-1.28-1.28-1.28zM22.344 4.174h-12.522c-0.768 0-1.391 0.623-1.391 1.391v0 19.478c0 0.768 0.623 1.391 1.391 1.391v0h12.522c0.768 0 1.391-0.623 1.391-1.391v0-19.478c0-0.768-0.623-1.391-1.391-1.391v0zM18.922 1.391h-5.677c-0.353 0-0.64 0.287-0.64 0.64s0.287 0.64 0.64 0.64v0h5.677c0.353 0 0.64-0.287 0.64-0.64s-0.287-0.64-0.64-0.64v0z"></path>
</svg>
