<!-- Generated by IcoMoon.io -->
<svg version="1.1" xmlns="http://www.w3.org/2000/svg" width="32" height="32" viewBox="0 0 32 32">
<title>music</title>
<path d="M29.092 0h-19.576c0 0-0 0-0 0-1.609 0-2.914 1.3-2.922 2.907v19.576c0 1.614 1.308 2.922 2.922 2.922v0h19.576c1.608-0.008 2.908-1.313 2.908-2.922 0 0 0-0 0-0v0-19.576c-0.008-1.603-1.305-2.9-2.907-2.908h-0.001zM25.043 7.485h-4.55v9.28c-0.107 2.112-1.845 3.784-3.974 3.784-2.198 0-3.979-1.782-3.979-3.979s1.782-3.979 3.979-3.979c0.003 0 0.006 0 0.010 0h-0c0 0 0 0 0 0 1.039 0 1.984 0.402 2.687 1.059l-0.002-0.002v-8.737h5.83z"></path>
<path d="M4.174 29.050c-0.004 0-0.009 0-0.014 0-0.676 0-1.224-0.548-1.224-1.224 0-0 0-0 0-0v0-20.786h-2.936v20.786c0 2.305 1.869 4.174 4.174 4.174v0h20.87v-2.95z"></path>
</svg>
