<!-- Generated by IcoMoon.io -->
<svg version="1.1" xmlns="http://www.w3.org/2000/svg" width="32" height="32" viewBox="0 0 32 32">
<title>mute</title>
<path d="M19.589 1.017v29.966h-1.775l-10.105-8.017h-7.708v-13.29h7.708l10.255-8.659h1.625zM22.621 10.323l0.075 0.001c0.174 0.011 0.339 0.080 0.485 0.206v0l0.054 0.051 3.558 3.586 3.61-3.579c0.113-0.146 0.274-0.216 0.456-0.224v0l0.069-0c0.243 0.009 0.491 0.116 0.69 0.288 0.191 0.165 0.32 0.419 0.364 0.685 0.033 0.204 0.028 0.355-0.067 0.517v0l-0.052 0.066-3.657 3.638 3.588 3.595c0.159 0.126 0.204 0.296 0.19 0.511v0l-0.007 0.073c-0.032 0.276-0.165 0.548-0.363 0.728-0.197 0.178-0.45 0.283-0.703 0.283-0.201 0-0.389-0.071-0.544-0.221v0l-0.037-0.041-3.534-3.551-3.558 3.534c-0.138 0.158-0.324 0.247-0.524 0.257v0l-0.076-0c-0.25-0.013-0.494-0.135-0.697-0.337-0.19-0.189-0.306-0.42-0.329-0.656-0.018-0.183 0.021-0.36 0.128-0.516v0l0.055-0.066 3.591-3.593-3.631-3.645c-0.126-0.137-0.183-0.322-0.175-0.52v0l0.006-0.075c0.028-0.245 0.152-0.483 0.352-0.674 0.206-0.197 0.443-0.311 0.685-0.32v0z"></path>
</svg>
