<!-- Generated by IcoMoon.io -->
<svg version="1.1" xmlns="http://www.w3.org/2000/svg" width="32" height="32" viewBox="0 0 32 32">
<title>name-circle</title>
<path d="M16 0c8.837 0 16 7.163 16 16s-7.163 16-16 16c-8.837 0-16-7.163-16-16s7.163-16 16-16zM15.98 20.741c-4.561 0-7.814 0.949-9.758 2.846 2.506 3.108 5.759 4.663 9.758 4.663s7.237-1.554 9.714-4.663c-1.915-1.897-5.153-2.846-9.714-2.846zM16 6.588c-3.119 0-5.647 2.528-5.647 5.647s2.528 5.647 5.647 5.647c3.119 0 5.647-2.528 5.647-5.647s-2.528-5.647-5.647-5.647z"></path>
</svg>
