<?xml version="1.0" encoding="utf-8"?>
<!-- Generator: Adobe Illustrator 26.4.1, SVG Export Plug-In . SVG Version: 6.00 Build 0)  -->
<svg version="1.1" id="Layer_1" xmlns="http://www.w3.org/2000/svg" xmlns:xlink="http://www.w3.org/1999/xlink" x="0px" y="0px"
	 viewBox="0 0 500 500" style="enable-background:new 0 0 500 500;" xml:space="preserve">
<style type="text/css">
	.st0{clip-path:url(#SVGID_00000003106195516865527020000015808628818006993052_);}
	.st1{fill:#A0A0B1;}
</style>
<g>
	<defs>
		<rect id="SVGID_1_" x="2.4" y="2.4" width="495.2" height="495.2"/>
	</defs>
	<clipPath id="SVGID_00000098920237696376810340000006173609906800991631_">
		<use xlink:href="#SVGID_1_"  style="overflow:visible;"/>
	</clipPath>
	<g style="clip-path:url(#SVGID_00000098920237696376810340000006173609906800991631_);">
		<path class="st1" d="M249.9,2.4C113.1,2.6,2.5,113.2,2.4,249.9c0,136.7,110.6,247.4,247.4,247.7c136.7,0.2,248.4-111.5,247.8-248
			C496.9,112.4,386.5,2.2,249.9,2.4z M321.8,117.3c15.5,0,28.1,16.1,28.1,36.2c0,20-12.6,36.2-28.1,36.2s-28.1-16.1-28.1-36.2
			C293.7,133.4,306.4,117.3,321.8,117.3z M172.9,117.3c15.5,0,28.1,16.1,28.1,36.2c0,20-12.7,36.2-28.1,36.2
			c-15.5,0-28.1-16.1-28.1-36.2C144.8,133.4,157.4,117.3,172.9,117.3z M392.9,303.4c-2.9,51.4-29.1,87.1-76.4,105.4
			c-46,17.8-93,17.1-137.8-4.6c-42.1-20.4-64.3-55.2-66.1-102.3c-0.4-10.8,4.6-16.9,15.2-18.9c41.2-8,82.8-11,124.7-11
			c41.7,0,83.1,2.9,124.1,10.8C388.9,285.1,393.6,290.7,392.9,303.4z"/>
	</g>
</g>
</svg>
