<?xml version="1.0" encoding="utf-8"?>
<!-- Generator: Adobe Illustrator 26.4.1, SVG Export Plug-In . SVG Version: 6.00 Build 0)  -->
<svg version="1.1" id="Layer_1" xmlns="http://www.w3.org/2000/svg" xmlns:xlink="http://www.w3.org/1999/xlink" x="0px" y="0px"
	 viewBox="0 0 500 500" style="enable-background:new 0 0 500 500;" xml:space="preserve">
<style type="text/css">
	.st0{clip-path:url(#SVGID_00000110433168404669030610000004164920195787933344_);}
	.st1{fill:#A0A0B1;}
</style>
<g>
	<path class="st1" d="M249.7,2c-137,0-248,111-248,248s111,248,248,248s248-111,248-248S386.6,2,249.7,2z M321.9,125.6
		c15.5,0,28.1,12.6,28.1,28.1c0,15.5-12.6,28.1-28.1,28.1s-28.1-12.6-28.1-28.1C293.9,138.2,306.4,125.6,321.9,125.6z M172.3,125.6
		c15.5,0,28.1,12.6,28.1,28.1c0,15.5-12.6,28.1-28.1,28.1c-15.5,0-28.1-12.6-28.1-28.1C144.2,138.2,156.8,125.6,172.3,125.6z
		 M348.8,360.8c-7.5,2.1-14-2.6-16.6-9.4c-0.1-0.3-0.9-2.3-0.9-2.3c-0.3-0.6-0.5-1.2-0.8-1.7c-0.9-1.8-1.8-3.5-2.7-5.3
		c-1-1.7-2-3.4-3.1-5.1c-0.6-0.9-1.2-1.8-1.9-2.7c-0.1-0.2-1.1-1.5-1.1-1.6c-3.4-4.5-9.6-10.7-15-14.9c0.3,0.3-2.1-1.5-2.1-1.5
		c-0.7-0.5-1.5-1-2.2-1.5c-1.3-0.9-2.7-1.7-4-2.5c-3-1.8-6-3.4-9.1-4.8c-2.7-1.2-5-2.1-9.2-3.5c-3.4-1.1-6.9-2-10.4-2.7
		c-13.5-2.9-29.7-2.6-43.5,0.8c-4,1-7.9,2.2-11.7,3.6c-3.3,1.2-4,1.5-7.7,3.5c-6.2,3.2-13,7.7-16.7,10.8c-2.7,2.3-5.4,4.8-7.8,7.5
		c-1.2,1.3-2.4,2.6-3.6,4c-0.5,0.6-1.1,1.3-1.6,1.9c-0.1,0.2-0.2,0.4-0.4,0.6c-2,2.9-4,5.9-5.7,9c-0.9,1.6-1.7,3.1-2.5,4.7
		c-0.4,0.8-0.8,1.6-1.1,2.4c0.2-0.5,0.8-2.1-0.2,0.5c-2.7,6.8-8.9,11.5-16.6,9.4c-6.5-1.8-12.2-9.8-9.4-16.6
		c7.7-19.2,19.8-35.1,36.3-47.6c29.4-22.4,69.6-28.6,105.1-19.2c34.8,9.3,63,34,75.9,67.7C360.9,351.1,355.4,359,348.8,360.8z"/>
	<path class="st1" d="M177.2,333C177.5,332.7,177.7,332.3,177.2,333L177.2,333z"/>
</g>
</svg>
