<?xml version="1.0" encoding="utf-8"?>
<!-- Generator: Adobe Illustrator 26.4.1, SVG Export Plug-In . SVG Version: 6.00 Build 0)  -->
<svg version="1.1" id="Layer_1" xmlns="http://www.w3.org/2000/svg" xmlns:xlink="http://www.w3.org/1999/xlink" x="0px" y="0px"
	 viewBox="0 0 500 500" style="enable-background:new 0 0 500 500;" xml:space="preserve">
<style type="text/css">
	.st0{clip-path:url(#SVGID_00000137830209736707106580000010996031334580321723_);}
	.st1{fill:#A0A0B1;}
</style>
<path class="st1" d="M250.3,2c-137,0-248,111-248,248s111,248,248,248s248-111,248-248S387.2,2,250.3,2z M322.6,125.6
	c15.5,0,28.1,12.6,28.1,28.1c0,15.5-12.6,28.1-28.1,28.1c-15.5,0-28.1-12.6-28.1-28.1C294.5,138.2,307.1,125.6,322.6,125.6z
	 M172.9,125.6c15.5,0,28.1,12.6,28.1,28.1c0,15.5-12.6,28.1-28.1,28.1c-15.5,0-28.1-12.6-28.1-28.1
	C144.8,138.2,157.4,125.6,172.9,125.6z M359.5,313.4c0,7.6-6.2,13.8-13.8,13.8H154.9c-7.6,0-13.8-6.2-13.8-13.8v0
	c0-7.6,6.2-13.8,13.8-13.8h190.9C353.3,299.6,359.5,305.7,359.5,313.4L359.5,313.4z"/>
</svg>
