<!-- Generated by IcoMoon.io -->
<svg version="1.1" xmlns="http://www.w3.org/2000/svg" width="32" height="32" viewBox="0 0 32 32">
<title>non-eye</title>
<path d="M30.37 3.43l1.63 2.519-5.399 4.040c1.65 1.556 3.076 3.337 4.235 5.294l0.47 0.777-0.47 0.778c-1.754 2.963-4.122 5.522-6.946 7.506-2.418 1.675-5.288 2.583-8.235 2.606-2.954-0.022-5.833-0.922-8.266-2.585l-5.622 4.207-1.766-1.621 5.364-4.153c-1.953-1.694-3.609-3.708-4.895-5.959l-0.47-0.778 0.47-0.777c1.754-2.963 4.122-5.522 6.946-7.506 2.418-1.676 5.29-2.584 8.238-2.606 2.947 0.023 5.818 0.931 8.235 2.606l0.447 0.324 6.034-4.671zM21.161 14.059l-1.116 0.835c0.239 0.568 0.371 1.192 0.371 1.847 0 1.263-0.502 2.475-1.395 3.369s-2.105 1.395-3.369 1.395c-1.142 0-2.19-0.402-3.011-1.072l-1.115 0.835c1.089 0.993 2.537 1.598 4.126 1.598 1.624 0 3.182-0.645 4.331-1.794s1.794-2.707 1.794-4.331c0-0.962-0.222-1.872-0.617-2.682zM15.653 10.616c-3.383 0-6.125 2.742-6.125 6.125 0 0.867 0.18 1.691 0.505 2.439l1.121-0.868c-0.172-0.492-0.265-1.020-0.265-1.57 0-2.631 2.133-4.764 4.764-4.764 0.979 0 1.889 0.295 2.646 0.802l1.121-0.868c-1.039-0.811-2.346-1.295-3.766-1.295z"></path>
</svg>
