<!-- Generated by IcoMoon.io -->
<svg version="1.1" xmlns="http://www.w3.org/2000/svg" width="32" height="32" viewBox="0 0 32 32">
<title>note-circle</title>
<path d="M16 0c8.837 0 16 7.163 16 16s-7.163 16-16 16c-8.837 0-16-7.163-16-16s7.163-16 16-16zM18.537 7.471h-5.077l0.001 0.458-0.011 0.186c-0.043 0.367-0.209 0.695-0.457 0.943-0.289 0.289-0.688 0.468-1.129 0.468s-0.84-0.179-1.129-0.468c-0.248-0.248-0.414-0.576-0.457-0.943v0l-0.011-0.186-0.001-0.458-1.858 0.001c-0.485 0-0.878 0.663-0.878 1.48v0 13.982c0 0.817 0.393 1.48 0.878 1.48v0h15.185c0.485 0 0.878-0.663 0.878-1.48v0-13.982c0-0.817-0.393-1.48-0.878-1.48v0l-1.86-0.001 0.001 0.458-0.011 0.186c-0.043 0.367-0.209 0.695-0.457 0.943-0.289 0.289-0.688 0.468-1.129 0.468s-0.84-0.179-1.129-0.468c-0.248-0.248-0.414-0.576-0.457-0.943v0l-0.011-0.186-0.001-0.458zM21.872 11.148c0.377 0 0.683 0.442 0.683 0.987v0 9.321l-0.009 0.16c-0.053 0.469-0.335 0.826-0.674 0.826v0h-11.81l-0.111-0.013c-0.325-0.076-0.572-0.483-0.572-0.974v0-9.321l0.009-0.16c0.053-0.469 0.335-0.827 0.674-0.827v0zM18.128 16.941h-6.138c-0.384 0-0.696 0.311-0.696 0.696v0 0.491c0 0.384 0.311 0.696 0.696 0.696v0h6.138c0.384 0 0.696-0.311 0.696-0.696v0-0.491c0-0.384-0.311-0.696-0.696-0.696v0zM20.010 13.176h-8.020c-0.384 0-0.696 0.311-0.696 0.696v0 0.491c0 0.384 0.311 0.696 0.696 0.696v0h8.020c0.384 0 0.696-0.311 0.696-0.696v0-0.491c0-0.384-0.311-0.696-0.696-0.696v0zM11.865 5.647c-0.63 0-1.141 0.511-1.141 1.141v0 1.141c0 0.63 0.511 1.141 1.141 1.141s1.141-0.511 1.141-1.141v0-1.141c0-0.63-0.511-1.141-1.141-1.141zM20.135 5.647c-0.63 0-1.141 0.511-1.141 1.141v0 1.141c0 0.63 0.511 1.141 1.141 1.141s1.141-0.511 1.141-1.141v0-1.141c0-0.63-0.511-1.141-1.141-1.141z"></path>
</svg>
