<!-- Generated by IcoMoon.io -->
<svg version="1.1" xmlns="http://www.w3.org/2000/svg" width="512" height="512" viewBox="0 0 512 512">
<g id="icomoon-ignore">
</g>
<path d="M54.695 435.63c-6.277 0-11.533-2.207-15.767-6.62-4.239-4.411-6.358-9.882-6.358-16.414 0-6.536 2.12-12.048 6.358-16.53 4.235-4.483 9.491-6.723 15.767-6.723h23.464v-181.086c0-36.561 10.397-69.385 31.192-98.472 20.794-29.091 73.786-63.195 107.777-71.385 0-18.116 13.274-38.4 38.746-38.4s38.844 20.285 38.844 38.4c34.084 8.122 87.15 42.201 107.998 71.308 20.846 29.104 31.27 61.954 31.27 98.549v181.086h23.268c6.147 0 11.402 2.24 15.767 6.723 4.37 4.483 6.556 9.994 6.556 16.53 0 6.533-2.168 12.004-6.507 16.414-4.337 4.413-9.644 6.62-15.921 6.62h-402.454zM256.069 512c-35.079 0-75.351-10.245-75.351-51.76h150.556c0 41.462-40.133 51.76-75.205 51.76zM20.619 207.030c-6.191 0-11.313-2.284-15.368-6.852-4.055-4.564-5.761-10.005-5.119-16.325 2.828-30.714 10.882-59.411 24.163-86.091s30.52-49.896 51.716-69.651c4.534-4.385 9.851-6.322 15.951-5.81 6.097 0.512 10.978 3.384 14.644 8.616 3.605 5.232 4.838 10.994 3.701 17.284s-3.984 11.68-8.537 16.171c-15.983 15.417-29.041 33.252-39.176 53.505-10.131 20.253-16.474 42.276-19.026 66.066-0.696 6.626-3.163 12.13-7.402 16.51-4.243 4.385-9.425 6.577-15.547 6.577zM491.323 207.030c-6.149 0-11.353-2.192-15.613-6.577-4.26-4.381-6.736-9.884-7.431-16.51-2.555-23.79-8.878-45.812-18.972-66.066s-23.104-38.088-39.030-53.505c-4.688-4.492-7.601-9.882-8.74-16.171-1.137-6.289 0.128-12.050 3.794-17.284 3.604-5.233 8.45-8.105 14.541-8.616 6.087-0.512 11.476 1.425 16.166 5.81 21.058 19.755 38.231 42.972 51.512 69.651s21.404 55.376 24.366 86.091c0.507 6.379-1.272 11.835-5.34 16.369-4.063 4.538-9.147 6.808-15.252 6.808z"></path>
</svg>
