<!-- Generated by IcoMoon.io -->
<svg version="1.1" xmlns="http://www.w3.org/2000/svg" width="32" height="32" viewBox="0 0 32 32">
<title>outlook</title>
<path d="M19.296 2.332v27.335l-19.296-3.702v-20.531l19.296-3.102zM32 11.98v12.891h-11.186v-6.445l11.186-6.445zM8.844 10.372c-2.22 0-4.020 2.52-4.020 5.628s1.8 5.628 4.020 5.628c2.22 0 4.020-2.52 4.020-5.628s-1.8-5.628-4.020-5.628zM8.844 11.98c0.644 0 1.212 0.431 1.629 1.070 0.492 0.755 0.783 1.802 0.783 2.95s-0.291 2.195-0.783 2.95c-0.417 0.639-0.984 1.070-1.629 1.070s-1.212-0.431-1.629-1.070c-0.492-0.755-0.783-1.802-0.783-2.95s0.291-2.195 0.783-2.95c0.417-0.639 0.984-1.070 1.629-1.070zM32 7.4v1.548l-11.186 6.455v-8.003h11.186z"></path>
</svg>
