<!-- Generated by IcoMoon.io -->
<svg version="1.1" xmlns="http://www.w3.org/2000/svg" width="32" height="32" viewBox="0 0 32 32">
<title>pencil</title>
<path d="M12.907 26.597l-6.409-3.682c-0.513-0.293-0.69-0.948-0.393-1.456l0.342-0.592 8.273 4.75-0.341 0.589c-0.299 0.51-0.956 0.682-1.471 0.39zM15.233 24.729l-8.269-4.748 10.423-17.958 8.275 4.748-10.428 17.958zM26.174 5.882l-8.269-4.748 0.347-0.6c0.296-0.512 0.953-0.686 1.465-0.39l6.415 3.682c0.512 0.293 0.688 0.944 0.392 1.456l-0.35 0.6z"></path>
<path d="M5.515 31.97c-0.261-0.151-0.168-0.896-0.168-0.896l0.295-2.885 0.15-1.442 0.146-1.442 0.15-1.442 0.146-1.442 0.151-1.439 2.069 1.183 2.064 1.189 1.037 0.592 3.1 1.784-8.271 5.937c0 0-0.602 0.455-0.868 0.304z"></path>
</svg>
