<!-- Generated by IcoMoon.io -->
<svg version="1.1" xmlns="http://www.w3.org/2000/svg" width="32" height="32" viewBox="0 0 32 32">
<title>peoples</title>
<path d="M21.050 21.69l-2.671-1.391c-0.249-0.122-0.417-0.373-0.417-0.664 0-0.001 0-0.002 0-0.004v0-0.849l0.209-0.264c0.334-0.468 0.613-1.007 0.808-1.584l0.013-0.044c0.388-0.175 0.654-0.559 0.654-1.005 0-0.004-0-0.008-0-0.011v0.001-1.169c-0.001-0.283-0.106-0.541-0.279-0.739l0.001 0.001v-1.489c0.005-0.057 0.007-0.124 0.007-0.191 0-0.623-0.224-1.193-0.595-1.636l0.003 0.004c-0.635-0.628-1.509-1.015-2.473-1.015-0.109 0-0.217 0.005-0.323 0.015l0.014-0.001c-0.093-0.009-0.2-0.014-0.309-0.014-0.964 0-1.838 0.388-2.474 1.016l0-0c-0.368 0.438-0.592 1.009-0.592 1.632 0 0.067 0.003 0.134 0.008 0.2l-0.001-0.009v1.489c-0.172 0.196-0.277 0.454-0.278 0.737v1.127c0.004 0.352 0.165 0.666 0.416 0.875l0.002 0.002c0.207 0.792 0.547 1.485 0.999 2.089l-0.011-0.016v0.918c0 0.001 0 0.002 0 0.004 0 0.28-0.156 0.523-0.386 0.648l-0.004 0.002-2.504 1.391c-0.792 0.441-1.319 1.271-1.322 2.226v1.183h12.911v-1.127c0.001-0.023 0.001-0.050 0.001-0.078 0-0.986-0.567-1.84-1.392-2.253l-0.015-0.007z"></path>
<path d="M12.856 20.090c-0.159-0.798-0.678-1.45-1.376-1.788l-0.015-0.007-2.685-1.391c-0.241-0.121-0.403-0.366-0.403-0.649 0-0.002 0-0.004 0-0.005v0-0.904l0.195-0.278c0.336-0.468 0.618-1.007 0.821-1.583l0.014-0.045c0.385-0.178 0.649-0.558 0.654-1.001v-1.128c-0.006-0.282-0.11-0.539-0.28-0.739l0.001 0.002v-1.53c0.005-0.057 0.007-0.124 0.007-0.192 0-0.609-0.213-1.168-0.568-1.608l0.004 0.005c-0.632-0.62-1.499-1.003-2.455-1.003-0.115 0-0.229 0.006-0.342 0.016l0.014-0.001c-0.093-0.009-0.202-0.014-0.312-0.014-0.961 0-1.833 0.382-2.471 1.002l0.001-0.001c-0.359 0.432-0.578 0.993-0.578 1.605 0 0.067 0.003 0.133 0.008 0.199l-0.001-0.009v1.53c-0.173 0.193-0.278 0.45-0.278 0.731 0 0.002 0 0.005 0 0.007v-0 1.113c-0 0.002-0 0.005-0 0.008 0 0.351 0.162 0.663 0.415 0.867l0.002 0.002c0.2 0.775 0.525 1.453 0.958 2.049l-0.012-0.017v0.932c-0.002 0.277-0.151 0.519-0.372 0.652l-0.003 0.002-2.407 1.363c-0.82 0.417-1.375 1.248-1.391 2.21l-0 0.002v1.197h10.087c0.166-0.153 0.353-0.287 0.556-0.396l0.015-0.007z"></path>
<path d="M32 20.55c0-0.001 0-0.001 0-0.002 0-0.98-0.56-1.829-1.377-2.245l-0.014-0.007-2.671-1.391c-0.246-0.12-0.413-0.367-0.417-0.653v-0.905l0.209-0.278c0.338-0.467 0.616-1.007 0.809-1.586l0.012-0.042c0.393-0.171 0.664-0.554 0.668-1.001v-1.127c0-0.002 0-0.004 0-0.006 0-0.281-0.106-0.538-0.279-0.732l0.001 0.001v-1.53c0.003-0.043 0.004-0.094 0.004-0.144 0-0.633-0.233-1.211-0.619-1.654l0.003 0.003c-0.638-0.62-1.51-1.002-2.471-1.002-0.11 0-0.219 0.005-0.326 0.015l0.014-0.001c-0.098-0.010-0.212-0.015-0.327-0.015-0.956 0-1.823 0.383-2.456 1.004l0.001-0.001c-0.367 0.44-0.589 1.011-0.589 1.634 0 0.057 0.002 0.113 0.005 0.168l-0-0.008v1.53c-0.173 0.193-0.278 0.45-0.278 0.731 0 0.002 0 0.005 0 0.007v-0 1.113c-0 0.002-0 0.005-0 0.008 0 0.351 0.162 0.663 0.415 0.867l0.002 0.002c0.219 0.776 0.557 1.453 1 2.048l-0.012-0.017v0.932c-0.008 0.279-0.161 0.52-0.386 0.652l-0.004 0.002-2.504 1.391c-0.692 0.378-1.18 1.054-1.292 1.851l-0.002 0.013 2.143 1.071c0.227 0.122 0.423 0.256 0.603 0.408l-0.005-0.004h10.143z"></path>
</svg>
