<!-- Generated by IcoMoon.io -->
<svg version="1.1" xmlns="http://www.w3.org/2000/svg" width="32" height="32" viewBox="0 0 32 32">
<title>persion-eye</title>
<path d="M18.816 28.192c-1.397-1.397-2.261-3.328-2.261-5.46 0-4.265 3.457-7.722 7.722-7.722s7.722 3.457 7.722 7.722c0 4.265-3.457 7.722-7.722 7.722-0 0-0.001 0-0.001 0h0c-0.006 0-0.013 0-0.020 0-2.126 0-4.050-0.865-5.44-2.262l-0-0zM24.521 19.394c-1.608 0.074-3.058 0.693-4.182 1.677l0.008-0.007c-0.61 0.496-1.145 1.044-1.612 1.647l-0.017 0.023c0.495 0.666 1.041 1.248 1.645 1.763l0.015 0.012c1.11 1.027 2.574 1.687 4.19 1.776l0.017 0.001c1.973 0 3.857-1.195 5.6-3.552-1.782-2.226-3.687-3.349-5.66-3.349v0zM16.632 28.077h-14.49c-0.005 0-0.010 0-0.016 0-0.968 0-1.779-0.667-2-1.567l-0.003-0.014c-0.078-0.293-0.123-0.63-0.123-0.977 0-0.521 0.101-1.018 0.284-1.473l-0.009 0.027c0.341-0.908 0.937-1.656 1.701-2.174l0.016-0.010c0.993-0.566 2.144-1.005 3.364-1.257l0.076-0.013c1.924-0.504 3.742-0.974 4.32-2.353 0.417-0.988 0.127-2.342-0.889-4.135-0.336-0.516-0.632-1.108-0.858-1.734l-0.019-0.060c-0.036 0.012-0.078 0.019-0.122 0.019-0.087 0-0.167-0.028-0.231-0.076l0.001 0.001c-0.426-0.578-0.708-1.286-0.781-2.055l-0.001-0.017c-0.103-0.506-0.011-1.149 0.259-1.22 0.043-0.013 0.093-0.020 0.144-0.020 0.025 0 0.049 0.002 0.073 0.005l-0.003-0c-0-0.004-0-0.009-0-0.014 0-0.044 0.004-0.088 0.010-0.13l-0.001 0.005c-0-0.009-0.001-0.018-0.001-0.028s0-0.020 0.001-0.030l-0 0.001c0.001-0.008 0.001-0.017 0.001-0.026s-0-0.019-0.001-0.028l0 0.001c-0.003-0.103-0.012-0.201-0.028-0.297l0.002 0.012c0-0.029-0.008-0.058-0.011-0.086l-0.013-0.078c-0.060-0.418-0.094-0.902-0.094-1.393 0-0.549 0.043-1.089 0.126-1.615l-0.008 0.058c0.034-0.292 0.113-0.558 0.231-0.802l-0.006 0.015c0.271-0.424 0.618-0.775 1.024-1.044l0.013-0.008c0.237-0.189 0.505-0.38 0.783-0.558l0.039-0.023 0.099-0.060c0.124-0.070 0.229-0.14 0.329-0.217l-0.006 0.005c0.068-0.056 0.129-0.112 0.187-0.171l0-0 0.139-0.128c0.655-0.481 1.476-0.77 2.365-0.772h0.14c0.2-0.013 0.413-0.013 0.623-0.013 0.608 0 1.205 0.043 1.79 0.125l-0.068-0.008c0.474 0.036 0.906 0.183 1.281 0.415l-0.012-0.007h0.417c0 0 0.001 0 0.002 0 0.173 0 0.342 0.019 0.505 0.054l-0.016-0.003c0.303 0.090 0.567 0.231 0.795 0.414l-0.004-0.003c0.285 0.167 0.506 0.416 0.635 0.714l0.004 0.010v0.025c0.008 0.032 0.020 0.060 0.034 0.087l-0.001-0.002c0.037 0.042 0.084 0.074 0.137 0.093l0.002 0.001 0.018 0.008c0.455 0.246 0.808 0.632 1.007 1.099l0.006 0.015c0.162 0.403 0.262 0.87 0.278 1.359l0 0.006c0.008 0.050 0.012 0.107 0.012 0.165s-0.004 0.115-0.013 0.171l0.001-0.006c-0.048 0.24-0.081 0.52-0.090 0.807l-0 0.009c-0.012 0.295-0.045 0.572-0.096 0.843l0.006-0.036c0 0.029-0.013 0.060-0.019 0.090s-0.013 0.056-0.018 0.082c-0.039 0.142-0.069 0.311-0.084 0.484l-0.001 0.011v0.077c0 0.002 0 0.005 0 0.008 0 0.114-0.016 0.224-0.047 0.327l0.002-0.008h0.071c0.001 0 0.001 0 0.002 0 0.052 0 0.103 0.007 0.151 0.020l-0.004-0.001c0.27 0.068 0.36 0.712 0.257 1.22-0.076 0.785-0.358 1.492-0.79 2.082l0.008-0.012c-0.056 0.047-0.128 0.075-0.208 0.075-0 0-0.001 0-0.001 0h0c-0.050-0.001-0.098-0.008-0.143-0.020l0.004 0.001c-0.248 0.687-0.544 1.279-0.899 1.83l0.021-0.035c-0.456 0.737-0.809 1.595-1.010 2.51l-0.010 0.055c-1.385 1.616-2.228 3.731-2.228 6.044 0 2.002 0.632 3.856 1.707 5.374l-0.020-0.029zM22.117 22.789c0-1.253 1.015-2.268 2.268-2.268s2.268 1.015 2.268 2.268c0 1.253-1.015 2.268-2.268 2.268v0c-0.001 0-0.003 0-0.004 0-1.25 0-2.265-1.011-2.269-2.261v-0zM23.251 22.789c0 0.626 0.508 1.134 1.134 1.134s1.134-0.508 1.134-1.134c0-0.626-0.508-1.134-1.134-1.134v0c-0.001 0-0.003 0-0.004 0-0.627 0-1.135 0.508-1.135 1.135 0 0.002 0 0.004 0 0.006v-0z"></path>
</svg>
