<!-- Generated by IcoMoon.io -->
<svg version="1.1" xmlns="http://www.w3.org/2000/svg" width="32" height="32" viewBox="0 0 32 32">
<title>persion-hourglass</title>
<path d="M18.532 28.381c-1.427-1.428-2.31-3.4-2.31-5.578 0-4.357 3.532-7.889 7.889-7.889s7.889 3.532 7.889 7.889c0 4.357-3.532 7.889-7.889 7.889h-0c-0.006 0-0.014 0-0.022 0-2.172 0-4.138-0.884-5.557-2.311l-0-0zM20.855 27.713h7.249v-1.156h-0.71c-0.004-0.786-0.157-1.534-0.432-2.221l0.014 0.041c-0.372-0.644-0.898-1.162-1.53-1.513l-0.020-0.010c0.649-0.333 1.176-0.826 1.54-1.427l0.010-0.017c0.267-0.613 0.423-1.327 0.423-2.077 0-0.083-0.002-0.165-0.006-0.247l0 0.012h0.71v-1.287h-7.249v1.287h0.657c0.034 0.762 0.175 1.48 0.41 2.154l-0.016-0.053c0.406 0.668 0.934 1.222 1.558 1.644l0.018 0.012c-0.648 0.379-1.178 0.892-1.565 1.505l-0.011 0.019c-0.255 0.556-0.403 1.205-0.403 1.889 0 0.102 0.003 0.204 0.010 0.305l-0.001-0.014h-0.657zM16.99 28.418h-14.799c-0.005 0-0.011 0-0.017 0-0.989 0-1.819-0.683-2.044-1.602l-0.003-0.014c-0.081-0.302-0.128-0.65-0.128-1.008 0-0.529 0.102-1.033 0.286-1.496l-0.010 0.027c0.349-0.926 0.959-1.687 1.738-2.216l0.016-0.010c1.016-0.583 2.194-1.036 3.443-1.297l0.079-0.014c1.966-0.515 3.822-1.002 4.415-2.403 0.427-1.010 0.129-2.392-0.909-4.224-0.343-0.527-0.646-1.133-0.877-1.772l-0.020-0.062c-0.037 0.012-0.079 0.020-0.124 0.020-0.088 0-0.17-0.029-0.236-0.077l0.001 0.001c-0.435-0.59-0.723-1.314-0.797-2.099l-0.001-0.017c-0.104-0.518-0.013-1.174 0.264-1.252 0.044-0.013 0.094-0.020 0.146-0.020 0.025 0 0.050 0.002 0.075 0.005l-0.003-0c-0-0.004-0-0.008-0-0.012 0-0.045 0.004-0.089 0.010-0.132l-0.001 0.005c-0.001-0.009-0.001-0.019-0.001-0.029s0-0.021 0.001-0.031l-0 0.001c0.001-0.008 0.001-0.018 0.001-0.027s-0-0.019-0.001-0.028l0 0.001c-0.002-0.105-0.012-0.206-0.028-0.305l0.002 0.012c0-0.029-0.008-0.060-0.013-0.089l-0.013-0.079c-0.062-0.428-0.097-0.923-0.097-1.426 0-0.561 0.044-1.112 0.128-1.649l-0.008 0.060c0.034-0.299 0.115-0.571 0.236-0.821l-0.007 0.015c0.279-0.43 0.635-0.786 1.051-1.057l0.014-0.008c0.24-0.19 0.513-0.383 0.794-0.563l0.040-0.024 0.1-0.067c0.127-0.070 0.235-0.14 0.337-0.217l-0.007 0.005c0.069-0.058 0.132-0.117 0.191-0.18l0.001-0.001 0.139-0.131c0.668-0.491 1.506-0.787 2.414-0.789h0.14c0.214-0.012 0.431-0.012 0.646-0.012 0.621 0 1.232 0.044 1.829 0.128l-0.069-0.008c0.484 0.037 0.926 0.187 1.309 0.425l-0.012-0.007h0.417c0.177 0 0.35 0.019 0.517 0.056l-0.016-0.003c0.31 0.091 0.58 0.234 0.813 0.421l-0.005-0.004c0.291 0.17 0.517 0.424 0.649 0.729l0.004 0.010v0.026c0.009 0.033 0.021 0.061 0.036 0.088l-0.001-0.002c0.037 0.043 0.084 0.076 0.137 0.095l0.002 0.001 0.018 0.008c0.464 0.251 0.824 0.643 1.028 1.119l0.006 0.015c0.163 0.411 0.264 0.888 0.278 1.385l0 0.006c0.008 0.051 0.013 0.109 0.013 0.168s-0.005 0.118-0.013 0.175l0.001-0.006c-0.049 0.246-0.082 0.533-0.092 0.826l-0 0.008c-0.012 0.301-0.045 0.585-0.098 0.862l0.006-0.037c0 0.031-0.012 0.061-0.020 0.092s-0.012 0.057-0.018 0.085c-0.039 0.146-0.070 0.318-0.085 0.495l-0.001 0.012v0.081c0 0.004 0 0.008 0 0.012 0 0.115-0.016 0.226-0.047 0.331l0.002-0.008c0.011-0.001 0.023-0.001 0.036-0.001s0.025 0 0.038 0.001l-0.002-0c0.054 0 0.106 0.008 0.156 0.022l-0.004-0.001c0.278 0.070 0.369 0.728 0.263 1.252-0.077 0.802-0.365 1.525-0.807 2.128l0.008-0.012c-0.057 0.048-0.131 0.077-0.212 0.077-0 0-0.001 0-0.001 0h0c-0.053-0.005-0.102-0.015-0.149-0.032l0.004 0.001c-0.253 0.702-0.556 1.307-0.919 1.87l0.022-0.036c-0.466 0.753-0.827 1.63-1.032 2.564l-0.010 0.056c-1.416 1.651-2.278 3.813-2.278 6.177 0 2.044 0.645 3.937 1.742 5.488l-0.020-0.030z"></path>
</svg>
