<!-- Generated by IcoMoon.io -->
<svg version="1.1" xmlns="http://www.w3.org/2000/svg" width="32" height="32" viewBox="0 0 32 32">
<title>persion-plus</title>
<path d="M24.2 15c4.308 0 7.8 3.492 7.8 7.8s-3.492 7.8-7.8 7.8c-4.308 0-7.8-3.492-7.8-7.8s3.492-7.8 7.8-7.8zM14.853 1.517c0.446 0.033 0.877 0.175 1.257 0.411h0.352c0.183-0.005 0.366 0.013 0.544 0.052 0.286 0.085 0.552 0.226 0.784 0.414 0.284 0.169 0.505 0.425 0.632 0.73v0.026c0.007 0.030 0.019 0.058 0.033 0.085 0.035 0.042 0.080 0.075 0.132 0.094l0.018 0.009c0.453 0.246 0.807 0.642 1.003 1.12 0.166 0.441 0.257 0.907 0.271 1.378 0.016 0.11 0.016 0.222 0 0.332-0.051 0.272-0.081 0.547-0.089 0.823-0.011 0.274-0.041 0.546-0.089 0.815-0.011 0.058-0.026 0.118-0.036 0.175-0.041 0.164-0.069 0.332-0.083 0.501v0.084c0.001 0.112-0.014 0.223-0.044 0.331 0.073-0.010 0.147-0.005 0.218 0.015 0.271 0.070 0.357 0.72 0.256 1.233-0.069 0.754-0.336 1.476-0.774 2.092-0.059 0.051-0.135 0.078-0.213 0.076-0.046-0.001-0.092-0.008-0.136-0.020-0.222 0.635-0.514 1.243-0.87 1.813-0.59 1.062-0.911 1.932-1.020 2.652-1.371 1.633-2.197 3.74-2.197 6.040 0 2.010 0.631 3.872 1.705 5.4l-14.379-0c-2.776-0.059-2.842-4.416-0.15-6.253 0.681-0.465 1.573-0.771 2.511-1.038l0.404-0.112c0.135-0.037 0.271-0.073 0.407-0.11l0.407-0.109c2.978-0.802 5.712-1.721 3.077-6.466-0.357-0.569-0.649-1.177-0.868-1.813-0.118 0.039-0.248 0.018-0.348-0.056-0.44-0.615-0.707-1.338-0.774-2.092-0.101-0.513-0.012-1.161 0.256-1.233 0.069-0.019 0.141-0.024 0.212-0.015-0.001-0.048 0.002-0.095 0.009-0.143 0-0.038 0.009-0.076 0.009-0.111 0-0.124-0.023-0.254-0.038-0.377l-0.012-0.079c-0.133-0.989-0.125-1.993 0.023-2.98 0.030-0.276 0.106-0.544 0.222-0.795 0.262-0.424 0.612-0.787 1.027-1.063 0.259-0.208 0.528-0.404 0.806-0.584l0.098-0.061c0.112-0.064 0.218-0.136 0.319-0.216 0.065-0.054 0.127-0.112 0.186-0.173l0.132-0.129c0.714-0.534 1.589-0.808 2.479-0.777 0.779-0.039 1.56-0.005 2.332 0.102zM24.017 17.4c-0.489 0-0.89 0.332-0.89 0.734v3.583h-3.595c-0.401 0-0.733 0.402-0.733 0.891s0.332 0.891 0.733 0.891h3.595v3.566c0 0.402 0.401 0.734 0.89 0.734s0.89-0.332 0.89-0.734v-3.566h3.56c0.401 0 0.733-0.402 0.733-0.891s-0.332-0.891-0.733-0.891h-3.56v-3.583c0-0.402-0.401-0.734-0.89-0.734z"></path>
</svg>
