<!-- Generated by IcoMoon.io -->
<svg version="1.1" xmlns="http://www.w3.org/2000/svg" width="32" height="32" viewBox="0 0 32 32">
<title>phone-circle</title>
<path d="M16 0c8.837 0 16 7.163 16 16s-7.163 16-16 16c-8.837 0-16-7.163-16-16s7.163-16 16-16zM17.236 11.243c-0.35 1.522 0.277 1.949 0.869 2.23l0.167 0.077c0.795 0.361 1.339 0.617-1.036 3.266-2.812 3.137-3.505 2.467-4.014 1.607l-0.086-0.149c-0.226-0.398-0.437-0.791-0.818-0.836-1.262-0.148-7.372 0.705-3.96 5.189s9.852-1.568 12.655-4.968c2.804-3.4 4.869-8.787 1.566-9.917s-4.477-0.269-5.344 3.5z"></path>
</svg>
