<!-- Generated by IcoMoon.io -->
<svg version="1.1" xmlns="http://www.w3.org/2000/svg" width="512" height="512" viewBox="0 0 512 512">
<g id="icomoon-ignore">
</g>
<path d="M212.274 299.726h-168.826c-12.083 0-22.345-4.229-30.787-12.688-8.441-8.457-12.662-18.745-12.662-30.86 0-12.112 4.221-22.366 12.662-30.762 8.441-8.39 18.703-12.587 30.787-12.587h168.826v-168.826c0-12.039 4.229-22.381 12.688-31.027 8.457-8.652 18.744-12.977 30.86-12.977 12.112 0 22.366 4.325 30.762 12.977 8.39 8.646 12.587 18.988 12.587 31.027v168.826h168.825c12.039 0 22.381 4.229 31.027 12.688 8.651 8.457 12.978 18.744 12.978 30.86 0 12.112-4.327 22.366-12.978 30.762-8.646 8.39-18.988 12.587-31.027 12.587h-168.825v168.825c0 12.083-4.229 22.346-12.688 30.786-8.457 8.441-18.745 12.662-30.86 12.662-12.112 0-22.366-4.221-30.762-12.662-8.39-8.441-12.587-18.704-12.587-30.786v-168.825z"></path>
</svg>
