<!-- Generated by IcoMoon.io -->
<svg version="1.1" xmlns="http://www.w3.org/2000/svg" width="32" height="32" viewBox="0 0 32 32">
<title>preview_email</title>
<path d="M0 22.203v-11.213c0-0.387 0.147-0.744 0.393-1.028l9.49 6.999c0.766 0.563 2.162 0.556 2.914 0.005l9.512-6.968c0.227 0.277 0.363 0.62 0.363 0.991v2.977l-0.001-0.004c-1.849 1.039-3.216 2.613-3.73 3.253-0.228 0.277-0.228 0.684 0 0.978 0.514 0.641 1.881 2.215 3.73 3.254l0.001 0.755c0 0.918-0.821 1.663-1.832 1.663h-19.007c-1.011 0-1.831-0.746-1.831-1.663z"></path>
<path d="M9.971 15.23l-8.82-6.504c0.311-0.359 0.796-0.591 1.338-0.591h17.666c0.558 0 1.055 0.245 1.365 0.625l-8.841 6.475c-0.698 0.513-1.996 0.518-2.708-0.004z"></path>
<path d="M26.041 15.79c-1.058 0-1.917 0.86-1.917 1.917 0 1.059 0.859 1.919 1.917 1.919s1.918-0.86 1.918-1.919c0-1.057-0.86-1.917-1.918-1.917zM25.896 17.139c-0.238 0-0.437 0.197-0.437 0.436h-0.634c0.013-0.594 0.49-1.071 1.072-1.071v0.635z"></path>
<path d="M31.861 17.311c-0.649-0.807-2.963-3.439-5.82-3.439s-5.171 2.631-5.819 3.439c-0.186 0.224-0.186 0.555 0 0.793 0.647 0.806 2.962 3.439 5.819 3.439s5.171-2.633 5.82-3.439c0.185-0.225 0.185-0.555 0-0.793zM26.041 20.485c-1.534 0-2.777-1.242-2.777-2.778 0-1.533 1.243-2.776 2.777-2.776s2.777 1.243 2.777 2.776c0 1.535-1.243 2.778-2.777 2.778z"></path>
</svg>
