<!-- Generated by IcoMoon.io -->
<svg version="1.1" xmlns="http://www.w3.org/2000/svg" width="512" height="512" viewBox="0 0 512 512">
<title></title>
<g id="icomoon-ignore">
</g>
<path fill="#000" d="M397.88 482.87h-368.75v-368.75c0-8.171-6.394-14.565-14.565-14.565s-14.565 6.394-14.565 14.565v363.537c0 20.514 7.17 34.341 34.342 34.341h363.537c8.171 0 14.565-6.395 14.565-14.565s-6.395-14.565-14.565-14.565v0zM482.87 29.131v368.75c0 8.171 6.395 14.565 14.565 14.565s14.565-6.395 14.565-14.565v-363.537c0-22.787-11.547-34.342-34.341-34.342h-363.537c-8.171 0-14.565 6.394-14.565 14.565s6.394 14.565 14.565 14.565h368.75zM227.9 302.935v16.951h-16.951v-16.951h16.951zM227.9 201.227v16.951h-16.951v-16.951h16.951zM329.608 201.227v16.951h-16.951v-16.951h16.951zM193.998 336.705h50.855v-50.721h-50.853v50.721zM193.998 235.131h50.855v-50.853h-50.853v50.853zM295.705 235.131h50.853v-50.853h-50.853v50.853zM261.802 269.033v84.757h-84.755v-84.755h84.755zM329.608 336.837v16.951h-16.951v-16.951h16.951zM363.511 336.837v16.951h-16.951v-16.951h16.951zM363.511 269.033v50.853h-50.853v-16.951h-16.951v50.853h-16.951v-84.757h50.853v16.951h16.951v-16.951h16.951zM261.802 167.325v84.755h-84.755v-84.755h84.755zM363.511 167.325v84.755h-84.757v-84.755h84.755z"></path>
</svg>
