<?xml version="1.0" encoding="UTF-8"?>
<svg xmlns="http://www.w3.org/2000/svg" xmlns:xlink="http://www.w3.org/1999/xlink" width="32px" height="32px" viewBox="0 0 32 32" version="1.1">
<g id="surface1">
<path style=" stroke:none;fill-rule:nonzero;fill:rgb(0%,0%,0%);fill-opacity:1;" d="M 16.460938 0.339844 C 19.832031 0.421875 22.828125 1.421875 25 4.152344 C 27.699219 7.546875 27.296875 12.238281 24.121094 15.1875 C 23.160156 16.078125 22.085938 16.800781 20.984375 17.492188 C 20.59375 17.734375 20.222656 18.003906 19.839844 18.253906 C 18.816406 18.9375 18.265625 19.527344 18.304688 20.839844 C 18.355469 22.546875 17.453125 23.820312 15.589844 23.820312 C 13.101562 23.820312 12.308594 23.054688 12.03125 21.503906 C 11.886719 18.894531 11.980469 17.332031 13.796875 15.441406 C 14.617188 14.597656 15.578125 13.9375 16.574219 13.335938 C 17.375 12.851562 18.175781 12.363281 18.875 11.726562 C 19.417969 11.226562 19.871094 10.667969 19.980469 9.902344 C 20.191406 8.363281 19.476562 7.25 17.957031 6.839844 C 16.789062 6.527344 15.601562 6.558594 14.464844 6.976562 C 13.050781 7.640625 12.601562 8.210938 11.910156 8.972656 C 10.003906 11.527344 8.519531 12.0625 6.644531 10.664062 C 5.476562 9.792969 4.890625 8.613281 5.375 7.199219 C 6.265625 4.621094 8.960938 1.644531 13.722656 0.601562 C 14.625 0.414062 15.539062 0.339844 16.460938 0.339844 Z M 16.460938 0.339844 "/>
<path style=" stroke:none;fill-rule:nonzero;fill:rgb(0%,0%,0%);fill-opacity:1;" d="M 11.769531 28.21875 C 11.8125 27.628906 11.78125 27.035156 11.921875 26.453125 C 12.101562 25.695312 12.699219 25.125 13.453125 25.011719 C 14.574219 24.84375 15.699219 24.832031 16.824219 25.003906 C 17.636719 25.125 18.257812 25.714844 18.394531 26.535156 C 18.585938 27.691406 18.597656 28.859375 18.394531 30.015625 C 18.238281 30.898438 17.605469 31.4375 16.710938 31.558594 C 15.660156 31.699219 14.617188 31.707031 13.566406 31.558594 C 12.679688 31.429688 12.078125 30.875 11.902344 29.996094 C 11.796875 29.402344 11.800781 28.8125 11.769531 28.21875 Z M 11.769531 28.21875 "/>
</g>
</svg>
