<!-- Generated by IcoMoon.io -->
<svg version="1.1" xmlns="http://www.w3.org/2000/svg" width="32" height="32" viewBox="0 0 32 32">
<title>question</title>
<path d="M16 0c-8.837 0-16 7.163-16 16s7.163 16 16 16c8.837 0 16-7.163 16-16s-7.163-16-16-16zM16 2.61c7.395 0 13.39 5.995 13.39 13.39s-5.995 13.39-13.39 13.39c-7.395 0-13.39-5.995-13.39-13.39s5.995-13.39 13.39-13.39zM16.208 20.059c-0.707 0-1.242 0.17-1.606 0.51s-0.545 0.823-0.545 1.448c0 0.625 0.19 1.106 0.571 1.443s0.907 0.505 1.58 0.505c0.653 0 1.167-0.17 1.545-0.51s0.566-0.819 0.566-1.438c0-0.619-0.182-1.099-0.545-1.443s-0.885-0.515-1.565-0.515zM16.79 8.589c-1.689 0-3.314 0.406-4.877 1.217l-0.425 0.231 1.417 2.773c1.373-0.727 2.573-1.091 3.599-1.091 0.415 0 0.751 0.083 1.009 0.25s0.387 0.393 0.387 0.678c0 0.36-0.121 0.68-0.362 0.958s-0.637 0.591-1.188 0.938c-0.693 0.435-1.176 0.882-1.448 1.341-0.233 0.393-0.366 0.863-0.4 1.408l-0.008 0.279v0.877h3.13v-0.52c0-0.292 0.090-0.545 0.27-0.76s0.627-0.552 1.341-1.015c0.843-0.537 1.456-1.106 1.84-1.708s0.576-1.314 0.576-2.136c0-1.149-0.432-2.056-1.295-2.722s-2.053-0.999-3.569-0.999z"></path>
</svg>
