<!-- Generated by IcoMoon.io -->
<svg version="1.1" xmlns="http://www.w3.org/2000/svg" width="32" height="32" viewBox="0 0 32 32">
<title>reload</title>
<path d="M2.432 14.397c-0.963-0.298-1.641-1.15-1.727-2.141l-0.009-0.214c0-4.329 4.593-12.042 14.717-12.042 5.065 0 9.331 2.247 12.796 6.742v-2.703c0-0.855 0.693-1.548 1.548-1.548s1.548 0.693 1.548 1.548v9.288h-9.37c-0.791 0-1.432-0.641-1.432-1.432s0.641-1.432 1.432-1.432h2.725c-1.937-3.523-5.019-5.284-9.247-5.284-4.891 0-8.145 2.392-9.763 7.177l-0.135 0.416c-0.403 1.301-1.784 2.028-3.084 1.626zM16.587 32c-5.065 0-9.331-2.247-12.796-6.742v2.703c0 0.855-0.693 1.548-1.548 1.548s-1.548-0.693-1.548-1.548v-9.288h9.37c0.791 0 1.432 0.641 1.432 1.432s-0.641 1.432-1.432 1.432h-2.725c1.937 3.523 5.019 5.284 9.247 5.284 4.891 0 8.145-2.392 9.763-7.177l0.135-0.416c0.403-1.301 1.784-2.028 3.084-1.626 0.963 0.298 1.641 1.15 1.727 2.141l0.009 0.214c0 4.329-4.593 12.042-14.717 12.042z"></path>
</svg>
