<!-- Generated by IcoMoon.io -->
<svg version="1.1" xmlns="http://www.w3.org/2000/svg" width="512" height="512" viewBox="0 0 512 512">
<g id="icomoon-ignore">
</g>
<path d="M142.1 511.998c-7.375 0-13.701-2.355-18.981-7.065s-7.919-10.834-7.919-18.368v-460.236c0-7.848 2.659-14.198 7.978-19.051s11.684-7.279 19.097-7.279c1.786 0 7.876 2.825 18.272 8.473l224.281 220.237c3.812 3.744 6.761 8.013 8.845 12.81 2.087 4.805 3.128 9.715 3.128 14.728 0 5.022-1.042 9.928-3.128 14.715-2.084 4.787-5.033 9.052-8.845 12.795l-224.296 220.309c-2.625 2.588-5.458 4.554-8.499 5.901-3.041 1.354-6.351 2.032-9.932 2.032z"></path>
</svg>
