<!-- Generated by IcoMoon.io -->
<svg version="1.1" xmlns="http://www.w3.org/2000/svg" width="32" height="32" viewBox="0 0 32 32">
<title>save</title>
<path d="M0 27.943v-23.885c0-2.24 1.818-4.057 4.060-4.057h19.996l7.945 7.945v19.998c0 2.24-1.818 4.057-4.059 4.057h-23.882c-2.24 0-4.060-1.817-4.060-4.057zM19.11 26.373c2.020-1.716 2.265-4.749 0.549-6.767s-4.747-2.265-6.766-0.551c-2.020 1.716-2.264 4.749-0.547 6.767s4.747 2.265 6.766 0.551zM25.51 12.271v-6.144c0-0.807-0.655-1.46-1.461-1.46h-16.097c-0.807 0-1.462 0.653-1.462 1.46v6.144c0 0.807 0.655 1.463 1.462 1.463h16.097c0.807 0 1.461-0.657 1.461-1.463z"></path>
</svg>
