<?xml version="1.0" encoding="utf-8"?>
<!-- Generator: Adobe Illustrator 23.0.1, SVG Export Plug-In . SVG Version: 6.00 Build 0)  -->
<svg version="1.1" id="Layer_1" xmlns="http://www.w3.org/2000/svg" xmlns:xlink="http://www.w3.org/1999/xlink" x="0px" y="0px"
	 viewBox="0 0 500 500" style="enable-background:new 0 0 500 500;" xml:space="preserve">
<style type="text/css">
	.st0{fill:#A0A0B1;}
</style>
<path class="st0" d="M481.4,438.8L407,363.6c19.7-26.3,32.9-55.7,39-87.7c6.5-33.1,5-68-4.2-100.7c-9.2-32.9-26-63.5-48.8-88.5
	c-24.1-26.6-53.8-46.2-88.4-58.4c-29.1-10.3-59.6-14.2-90.5-11.6c-29.4,2.5-57.8,10.9-84.3,25.1C103.4,56,80.5,75,62,98.3
	c-19.3,24.2-33,51.9-40.9,82.3c-7.4,29.1-8.7,58.7-3.9,88c4.6,28.3,14.7,55.2,30,79.8c15.2,24.6,34.7,45.5,58,62.4
	c24.1,17.4,51.1,29.4,80.4,35.7c6.1,1.3,11.8,2.4,17.6,3.3c9.7,1.5,19.6,1.7,29.7,1.9h0.4c47.5-0.5,90.5-14.9,127.9-42.6
	c24.7,24.9,49.4,49.9,74.2,74.8c1.5,1.5,2.8,2.8,4.4,4.1c8.4,6.9,20.3,6.9,28.4-0.3c4.5-4,8.7-8.4,13-12.8
	C493.1,463.1,493.1,450.6,481.4,438.8z M232.8,395.5h-0.5c-43.3-0.2-83.9-17.1-114.5-47.5c-30.5-30.4-47.2-70.9-47.1-114.1
	c0-43.4,17-84.2,47.8-114.8c30.5-30.4,70.8-47.1,113.5-47.1c0.2,0,0.5,0,0.7,0c43.4,0.2,84.1,17.2,114.6,47.8
	c30.5,30.6,47.1,71.3,47,114.5c-0.2,43.4-17.1,83.9-47.6,114.3C316.2,378.9,275.8,395.5,232.8,395.5z"/>
</svg>
