<!-- Generated by IcoMoon.io -->
<svg version="1.1" xmlns="http://www.w3.org/2000/svg" width="32" height="32" viewBox="0 0 32 32">
<title>search-right</title>
<path d="M32 12.736c0 3.516-1.426 6.7-3.731 9.005s-5.489 3.731-9.005 3.731c-2.502 0-4.856-0.745-6.833-2.010l-0.366-0.243-8.102 8.102c-0.453 0.453-1.047 0.68-1.642 0.68s-1.189-0.227-1.642-0.68c-0.453-0.453-0.68-1.019-0.68-1.642 0-0.545 0.174-1.046 0.52-1.467l0.159-0.175 8.097-8.097c-1.426-2.045-2.248-4.519-2.248-7.204 0-3.505 1.428-6.692 3.737-9.002 2.305-2.305 5.486-3.734 8.999-3.734 3.502 0 6.687 1.432 8.995 3.741s3.741 5.494 3.741 8.995zM29.504 12.736c0-2.817-1.153-5.376-3.009-7.231s-4.415-3.009-7.231-3.009c-2.82 0-5.383 1.148-7.239 3.005-1.852 1.852-3.001 4.408-3.001 7.235 0 2.831 1.144 5.391 2.997 7.243s4.413 2.997 7.243 2.997c2.82 0 5.383-1.148 7.239-3.005 1.852-1.852 3.001-4.408 3.001-7.235z"></path>
</svg>
