<!-- Generated by IcoMoon.io -->
<svg version="1.1" xmlns="http://www.w3.org/2000/svg" width="32" height="32" viewBox="0 0 32 32">
<title>search</title>
<path d="M12.736 0c3.516 0 6.7 1.426 9.005 3.731s3.731 5.489 3.731 9.005c0 2.502-0.745 4.856-2.010 6.833l-0.243 0.366 8.102 8.102c0.453 0.453 0.68 1.047 0.68 1.642s-0.227 1.189-0.68 1.642c-0.453 0.453-1.019 0.68-1.642 0.68-0.545 0-1.046-0.174-1.467-0.52l-0.175-0.159-8.097-8.097c-2.045 1.426-4.519 2.248-7.204 2.248-3.505 0-6.692-1.428-9.002-3.737-2.305-2.305-3.734-5.486-3.734-8.999 0-3.502 1.432-6.687 3.741-8.995s5.494-3.741 8.995-3.741zM12.736 2.496c-2.817 0-5.376 1.153-7.231 3.009s-3.009 4.415-3.009 7.231c0 2.82 1.148 5.383 3.005 7.239 1.852 1.852 4.408 3.001 7.235 3.001 2.831 0 5.391-1.144 7.243-2.997s2.997-4.413 2.997-7.243c0-2.82-1.148-5.383-3.005-7.239-1.852-1.852-4.408-3.001-7.235-3.001z"></path>
</svg>
