<!-- Generated by IcoMoon.io -->
<svg version="1.1" xmlns="http://www.w3.org/2000/svg" width="512" height="512" viewBox="0 0 512 512">
<g id="icomoon-ignore">
</g>
<path fill="#000" d="M393.224 75.453c-15.777 0-28.466 12.705-28.466 28.466s12.705 28.466 28.466 28.466c15.777 0 28.466-12.705 28.466-28.466s-12.705-28.466-28.466-28.466zM402.024 12.569l3.488 19.457c4.305 0.816 8.608 1.84 12.705 3.488l12.897-15.153 15.361 8.8-6.752 18.849c3.28 2.864 6.56 5.937 9.216 9.216l18.849-6.752 8.8 15.361-15.153 12.897c1.44 4.097 2.656 8.4 3.488 12.705l19.457 3.488v17.825l-19.249 3.488c-0.816 4.513-1.84 8.8-3.488 12.897l14.945 12.497-8.8 15.361-18.225-6.56c-2.864 3.488-6.144 6.752-9.632 9.632l6.56 18.017-15.361 9.008-12.289-14.545c-4.305 1.632-8.8 2.864-13.313 3.68l-3.488 18.641-17.617 0.416-3.28-18.433c-4.704-0.816-9.216-2.048-13.729-3.68l-12.081 14.337-15.361-8.8 6.353-17.617c-3.68-3.072-6.961-6.352-9.825-10.032l-17.825 6.352-8.8-15.361 14.545-12.289c-1.632-4.305-2.864-8.8-3.488-13.521l-18.849-3.488v-17.617l18.849-3.488c0.816-4.513 2.048-9.008 3.68-13.313l-14.545-12.497 8.8-15.361 18.225 6.56c2.864-3.488 6.144-6.56 9.632-9.425l-6.56-18.433 15.361-8.8 12.705 15.153c4.096-1.44 8.401-2.656 12.897-3.488l3.488-19.457c0 0 17.409 0 17.409 0zM452.62 249.944c-10.24 0-18.641 8.4-18.641 18.641s8.401 18.641 18.641 18.641 18.641-8.401 18.641-18.641c-0.208-10.449-8.401-18.641-18.641-18.641zM458.348 209.19l2.256 12.705c2.864 0.416 5.536 1.232 8.192 2.256l8.401-9.825 10.033 5.728-4.305 12.289c2.256 1.84 4.305 3.888 5.937 5.936l12.081-4.512 5.728 10.032-9.825 8.4c1.024 2.656 1.84 5.537 2.256 8.193l12.897 2.256v11.68l-12.497 2.256c-0.416 2.864-1.232 5.728-2.256 8.401l9.825 8.192-5.728 10.033-11.873-4.305c-1.84 2.256-3.888 4.305-6.353 6.353l4.305 11.68-10.033 5.728-7.985-9.425c-2.864 1.024-5.728 1.84-8.8 2.464l-2.256 12.081h-11.68l-2.048-12.081c-3.072-0.416-5.937-1.232-8.8-2.464l-7.985 9.425-10.033-5.728 4.096-11.473c-2.256-1.84-4.512-4.096-6.353-6.56l-11.473 4.096-5.728-10.033 9.425-7.985c-1.024-2.864-1.84-5.728-2.256-8.8l-12.289-2.256v-11.68l12.289-2.256c0.608-2.864 1.232-5.936 2.464-8.608l-9.425-7.984 5.728-10.032 11.873 4.304c1.84-2.256 3.888-4.304 6.144-6.144l-4.305-11.873 10.033-5.728 8.192 9.825c2.656-1.024 5.536-1.632 8.401-2.256l2.256-12.705h11.473v0.416zM182.875 259.577c-15.153 0-29.698 5.937-40.355 16.801-10.656 10.656-16.801 25.185-16.801 40.354 0 31.538 25.602 57.139 57.139 57.139s57.139-25.601 57.139-57.139v0c0-15.153-5.936-29.698-16.801-40.355-10.656-10.656-25.185-16.801-40.355-16.801zM200.492 133.825l7.168 39.123c8.608 1.632 17.201 3.888 25.393 6.96l25.601-30.514 30.93 17.825-13.521 37.683c6.752 5.536 12.897 11.873 18.641 18.433l37.474-13.729 17.825 30.93-30.306 25.81c3.072 8.192 5.329 16.801 6.961 25.394l38.914 6.752v35.634l-38.498 6.961c-1.44 8.8-3.888 17.617-6.961 26.017l29.906 25.185-17.825 30.93-36.45-13.105c-5.728 6.961-12.289 13.521-19.249 19.457l13.105 36.258-30.93 17.825-24.577-29.090c-8.608 3.28-17.617 5.937-26.834 7.377l-6.752 37.282-35.426 0.208-6.56-37.075c-9.216-1.632-18.433-3.888-27.233-7.377l-24.37 28.674-30.93-17.825 12.897-35.426c-7.168-5.937-13.921-12.705-19.873-19.873l-35.634 12.705-17.825-30.93 29.090-24.37c-3.28-8.8-5.537-17.825-7.169-26.834l-37.474-6.56v-35.634l37.474-6.752c1.632-9.009 4.096-18.017 7.377-26.625l-29.282-24.786 17.825-30.93 36.45 13.313c5.728-6.96 12.289-13.313 19.249-18.849l-13.313-36.867 30.93-17.825 25.393 30.306c8.4-3.072 16.993-5.12 25.809-6.752l6.752-39.123 35.842-0.208z"></path>
</svg>
