<!-- Generated by IcoMoon.io -->
<svg version="1.1" xmlns="http://www.w3.org/2000/svg" width="32" height="32" viewBox="0 0 32 32">
<title>sichtbar</title>
<path d="M16 32c8.837 0 16-7.163 16-16s-7.163-16-16-16c-8.837 0-16 7.163-16 16s7.163 16 16 16zM15.999 10.223c-3.218 0-6.338 2.052-8.783 5.778 2.445 3.725 5.564 5.775 8.783 5.775s6.339-2.052 8.784-5.779c-2.446-3.724-5.565-5.776-8.784-5.776v0.002zM15.999 24.090c-2.19-0.016-4.324-0.691-6.125-1.936-2.091-1.455-3.829-3.361-5.086-5.577l-0.347-0.578 0.347-0.577c1.295-2.201 3.043-4.102 5.129-5.577 1.785-1.245 3.906-1.92 6.082-1.936 2.176 0.017 4.295 0.692 6.080 1.936 2.086 1.474 3.834 3.375 5.129 5.577l0.347 0.577-0.347 0.578c-1.295 2.202-3.043 4.102-5.129 5.577-1.785 1.244-3.904 1.919-6.080 1.936zM15.998 19.466c-1.915 0-3.467-1.552-3.467-3.467s1.552-3.467 3.467-3.467c1.915 0 3.467 1.552 3.467 3.467 0 0.919-0.365 1.801-1.015 2.451s-1.532 1.015-2.451 1.015z"></path>
</svg>
