<!-- Generated by IcoMoon.io -->
<svg version="1.1" xmlns="http://www.w3.org/2000/svg" width="32" height="32" viewBox="0 0 32 32">
<title>speaker</title>
<path d="M19.601 1.008v29.985h-1.776l-10.112-8.022h-7.713v-13.298h7.713l10.261-8.664h1.626zM27.401 5.124c3.078 2.255 4.599 5.942 4.599 10.942 0 5.024-1.539 8.585-4.67 10.532-0.53 0.33-1.228 0.167-1.557-0.363s-0.167-1.228 0.363-1.557c2.384-1.482 3.603-4.302 3.603-8.611 0-4.333-1.237-7.332-3.674-9.117-0.504-0.369-0.613-1.077-0.244-1.58s1.077-0.613 1.58-0.244zM23.365 8.844c2.365 1.462 3.552 3.891 3.552 7.134 0 3.265-1.208 5.625-3.621 6.891-0.553 0.29-1.237 0.077-1.527-0.476s-0.077-1.237 0.476-1.527c1.608-0.844 2.41-2.411 2.41-4.889 0-2.5-0.824-4.186-2.479-5.21-0.531-0.328-0.696-1.025-0.367-1.556s1.025-0.696 1.556-0.367z"></path>
</svg>
