<!-- Generated by IcoMoon.io -->
<svg version="1.1" xmlns="http://www.w3.org/2000/svg" width="32" height="32" viewBox="0 0 32 32">
<title>speaker-up</title>
<path d="M20.174 1.391v29.217h-3.219l-9.016-7.817h-4.46c-1.921 0-3.478-1.557-3.478-3.478v-6.001c0-1.921 1.557-3.478 3.478-3.478h4.46l9.17-8.443h3.065zM27.5 5.774c3.012 2.153 4.5 5.672 4.5 10.445 0 4.796-1.506 8.195-4.57 10.053-0.519 0.315-1.201 0.16-1.524-0.347s-0.164-1.172 0.355-1.487c2.333-1.415 3.525-4.107 3.525-8.22 0-4.136-1.211-6.999-3.595-8.703-0.493-0.352-0.6-1.028-0.239-1.509s1.054-0.585 1.547-0.233zM24.549 9.216c2.182 1.492 3.277 3.968 3.277 7.276 0 3.33-1.115 5.737-3.341 7.028-0.51 0.296-1.141 0.079-1.409-0.485s-0.071-1.261 0.439-1.557c1.484-0.861 2.224-2.459 2.224-4.986 0-2.55-0.76-4.27-2.288-5.314-0.49-0.335-0.642-1.046-0.339-1.587s0.946-0.709 1.436-0.374z"></path>
</svg>
