<!-- Generated by IcoMoon.io -->
<svg version="1.1" xmlns="http://www.w3.org/2000/svg" width="32" height="32" viewBox="0 0 32 32">
<title>speaker-down</title>
<path d="M22 2v28h-3.085l-8.64-7.491h-4.275c-1.841 0-3.333-1.492-3.333-3.333v-5.751c0-1.841 1.492-3.333 3.333-3.333h4.275l8.788-8.091h2.938zM26.193 9.499c2.091 1.429 3.141 3.803 3.141 6.972 0 3.191-1.068 5.498-3.202 6.735-0.489 0.284-1.093 0.075-1.35-0.465s-0.068-1.209 0.421-1.492c1.422-0.825 2.131-2.356 2.131-4.778 0-2.444-0.728-4.092-2.193-5.092-0.47-0.321-0.615-1.002-0.325-1.521s0.907-0.68 1.376-0.359z"></path>
</svg>
