<!-- Generated by IcoMoon.io -->
<svg version="1.1" xmlns="http://www.w3.org/2000/svg" width="32" height="32" viewBox="0 0 32 32">
<title>support</title>
<path d="M16 0c7.701 0 13.944 6.243 13.944 13.944s-6.243 13.944-13.944 13.944v0h-3.291c-0.778 0.765-1.556 1.39-5.094 4.112 0-1.675-0.446-6.034-0.446-7.265-3.121-2.557-5.112-6.442-5.112-10.791 0-7.701 6.243-13.944 13.944-13.944zM16.021 18.964c-0.74 0-1.301 0.194-1.681 0.582s-0.571 0.94-0.571 1.654c0 0.715 0.199 1.264 0.598 1.648s0.95 0.577 1.655 0.577c0.683 0 1.222-0.194 1.617-0.582s0.592-0.936 0.592-1.643c0-0.707-0.19-1.256-0.571-1.648s-0.927-0.588-1.639-0.588zM16.822 4.462c-4.378 0-5.745 1.357-7.283 4.384 1.040 0.278 2.45 0.653 4.23 1.125 0.516-0.921 0.992-1.649 2.231-1.649 0.548 0 1.075 0.175 1.58 0.524 0.389 0.492 0.584 0.867 0.584 1.125 0 0.489-0.146 0.923-0.437 1.301s-0.769 0.803-1.434 1.274c-0.837 0.591-1.419 1.197-1.748 1.82s-0.492 1.387-0.492 2.291v1.191h3.778v-0.706c0-0.397 0.109-0.741 0.326-1.031s0.757-0.75 1.618-1.377c1.017-0.729 1.758-1.502 2.221-2.319s0.695-1.783 0.695-2.9c0-1.56-0.521-2.792-1.563-3.696s-2.478-1.357-4.308-1.357z"></path>
</svg>
