<!-- Generated by IcoMoon.io -->
<svg version="1.1" xmlns="http://www.w3.org/2000/svg" width="512" height="512" viewBox="0 0 512 512">
<g id="icomoon-ignore">
</g>
<path d="M272.783 104.166c7.73 0.931 15.394 1.855 22.907 3.406 76.617 15.844 134.167 74.77 157.063 143.532 15.863 47.624 17.238 100.533 1.95 148.368-25.664 80.301-136.802 94.023-211.975 90.763-64.843-2.825-148.674-16.606-180.139-77.602-18.314-35.517-16.177-83.25-10.797-121.496 11.159-79.267 64.629-155.374 148.664-179.68 6.578-1.905 13.263-3.47 20.024-4.689 6.546-1.18 13.17-1.933 19.91-2.701l0.006-0.001c3.099-0.353 6.221-0.708 9.371-1.109v-25.644c-10.641-2.702-18.461-8.526-22.249-18.491-5.79-15.248 5.516-32.559 21.761-36.634 4.036-1.011 8.267-1.127 12.359-0.338 13.404 2.527 24.505 14.15 24.505 27.595 0.010 14.031-10.856 23.656-24.163 27.969v25.388c3.61 0.499 7.214 0.933 10.803 1.367zM247.103 436.284c2.851 1.101 5.907 1.662 8.99 1.652 6.145-0.053 12.021-2.368 16.364-6.447s6.803-9.595 6.851-15.36c0-2.892-0.608-5.755-1.79-8.426s-2.913-5.098-5.096-7.139c-2.183-2.042-4.774-3.659-7.625-4.76s-5.904-1.663-8.988-1.654c-6.147 0.050-12.025 2.365-16.37 6.443s-6.806 9.596-6.855 15.363c0 2.893 0.608 5.757 1.791 8.428s2.916 5.098 5.1 7.14c2.184 2.042 4.776 3.659 7.628 4.76zM305.14 373.891c33.026 15.588 72.243 6.292 92.745-22.045v0.036c10.241-14.14 12.476-30.103 12.603-46.708-0.18-2.224-0.322-4.454-0.463-6.683v-0.002l-0-0.007-0-0.003c-0.312-4.914-0.624-9.827-1.343-14.682-10.426-70.529-68.445-121.826-139.39-126.799-46.031-3.232-86.467 9.195-119.572 39.547-36.093 33.090-50.316 74.193-47.573 121.066 2.421 41.561 42.439 71.803 88.264 61.591 9.285-2.060 18.168-6.411 26.661-10.688 19.975-10.057 40.817-11.952 62.178-6.026 6.696 1.851 13 5.010 19.284 8.158 2.2 1.102 4.397 2.202 6.607 3.245zM43.855 254.887c-1.192 4.137-2.384 8.273-3.359 12.446-3.806 16.072-5.974 32.449-6.473 48.906-0.194 7.931 0.303 15.841 0.8 23.746 0.528 8.399 1.054 16.794 0.753 25.206-0.107 2.959-0.488 6.237-2.822 8.243-2.128 1.795-5.301 2.051-7.986 1.218-24.611-7.62-25.324-49.584-24.611-68.496 1.083-28.712 10.28-59.658 30.918-79.175 7.029-6.621 19.096-9.232 18.207 2.748-0.651 8.588-3.039 16.875-5.426 25.159zM511.854 306.183c-1.075-28.712-10.283-59.659-30.907-79.175-7.031-6.649-19.106-9.259-18.219 2.748 0.652 8.594 3.038 16.879 5.427 25.161 1.19 4.135 2.385 8.271 3.358 12.444 3.81 16.078 5.974 32.461 6.464 48.925 0.213 7.974-0.29 15.928-0.789 23.877-0.529 8.356-1.058 16.707-0.75 25.075 0.107 2.967 0.478 6.246 2.82 8.243 2.078 1.832 5.299 2.051 7.988 1.218 24.618-7.638 25.285-49.602 24.61-68.514zM248.713 287.985c5.926 5.101 8.806 5.092 14.869-0.074 4.418-3.798 10.203-5.888 16.195-5.854s11.75 2.19 16.119 6.038c4.276 3.945 6.777 9.277 6.988 14.9s-1.885 11.106-5.854 15.324c-10.807 11.466-24.669 16.925-40.788 17.401-16.138-0.412-29.815-5.853-40.73-16.971-4.185-4.144-6.464-9.666-6.344-15.373s2.631-11.14 6.988-15.125c8.991-8.334 23.069-8.454 32.559-0.266zM213.040 247.339c0-1.472 0.014-2.944 0.028-4.415 0.028-2.942 0.056-5.882-0.028-8.819-0.371-11.906-10.631-21.513-23.020-21.614-6.061 0.011-11.888 2.201-16.281 6.119s-7.018 9.267-7.334 14.946c-0.342 9.159-0.371 18.262 0 27.375 0.488 11.714 11.481 21.138 23.801 20.937 5.981-0.176 11.666-2.481 15.901-6.445s6.703-9.293 6.905-14.904c0.114-3.002 0.085-6.030 0.056-9.064-0.013-1.371-0.026-2.744-0.026-4.115zM298.853 234.224c0.312-11.934 10.486-21.587 22.854-21.779 6.158-0.025 12.086 2.195 16.532 6.19s7.063 9.458 7.298 15.231c0.283 8.81 0.263 17.649 0 26.459-0.205 5.771-2.788 11.243-7.204 15.263s-10.325 6.278-16.48 6.296c-12.545-0.128-22.757-9.901-23-22.108-0.046-2.839-0.030-5.678-0.015-8.518 0.008-1.419 0.015-2.839 0.015-4.258s-0.012-2.84-0.024-4.261-0.048-5.683 0.024-8.516z"></path>
</svg>
