<!-- Generated by IcoMoon.io -->
<svg version="1.1" xmlns="http://www.w3.org/2000/svg" width="32" height="32" viewBox="0 0 32 32">
<title>tablet</title>
<path d="M26.769 0c0.768 0 1.391 0.623 1.391 1.391v29.217c0 0.768-0.623 1.391-1.391 1.391h-21.537c-0.768 0-1.391-0.623-1.391-1.391v-29.217c0-0.768 0.623-1.391 1.391-1.391h21.537zM16 28.16c-0.353 0-0.64 0.287-0.64 0.64s0.287 0.64 0.64 0.64c0.353 0 0.64-0.287 0.64-0.64s-0.287-0.64-0.64-0.64zM24.849 2.56h-17.697c-0.768 0-1.391 0.623-1.391 1.391v0 21.537c0 0.768 0.623 1.391 1.391 1.391v0h17.697c0.768 0 1.391-0.623 1.391-1.391v0-21.537c0-0.768-0.623-1.391-1.391-1.391v0z"></path>
</svg>
