<!-- Generated by IcoMoon.io -->
<svg version="1.1" xmlns="http://www.w3.org/2000/svg" width="32" height="32" viewBox="0 0 32 32">
<title>tags</title>
<path d="M12.886 0.87l17.837 10.819c1.151 0.698 1.604 2.207 1.027 3.422l-2.515 5.301c-0.172-0.614-0.492-1.195-0.959-1.688v0l-14.555-15.355c-0.755-0.739-1.771-1.156-2.832-1.156v0l-5.152-0 5.225-1.597c0.639-0.195 1.335-0.103 1.924 0.254zM10.56 3.225c0.706 0 1.382 0.286 1.868 0.79l14.696 15.248c0.948 0.984 0.939 2.527-0.020 3.501l-7.838 7.953c-0.989 1.003-2.618 1.029-3.639 0.056-0.013-0.013-0.026-0.025-0.039-0.038l-14.845-14.767c-0.476-0.474-0.743-1.113-0.743-1.778v-10.963h10.56zM4.554 5.915c-1.118 0-2.024 0.906-2.024 2.024s0.906 2.024 2.024 2.024c1.118 0 2.024-0.906 2.024-2.024s-0.906-2.024-2.024-2.024z"></path>
</svg>
