<svg width="500" height="500" viewBox="0 0 500 500" fill="none" xmlns="http://www.w3.org/2000/svg">
<path d="M448.831 170.067C449.456 173.203 447.58 175.011 445.579 176.941C420.937 200.575 368.402 251.703 343.885 275.338C302.482 315.131 261.079 354.924 219.676 394.838C213.672 400.626 209.67 400.144 204.166 394.838C159.886 352.151 100.096 294.873 55.6907 252.306C49.4364 246.277 49.4364 243.504 55.6907 237.595C75.8293 218.181 96.0929 199.008 115.981 179.473C121.985 173.564 126.739 174.65 131.617 179.473C152.006 199.008 187.78 233.254 208.169 252.789C208.794 253.392 209.419 253.995 209.92 254.718C211.046 256.647 212.171 256.286 213.422 254.839C214.048 254.115 214.798 253.512 215.549 252.789C257.452 212.513 327.249 144.865 369.027 104.469C374.031 99.6457 380.285 100.007 384.913 104.59C404.926 124.366 425.44 143.78 445.704 163.315C447.705 165.003 449.582 166.932 448.831 170.067Z" fill="#A0A0B1"/>
</svg>
