<!-- Generated by IcoMoon.io -->
<svg version="1.1" xmlns="http://www.w3.org/2000/svg" width="32" height="32" viewBox="0 0 32 32">
<title>timezone-circle</title>
<path d="M16 0c8.837 0 16 7.163 16 16s-7.163 16-16 16c-8.837 0-16-7.163-16-16s7.163-16 16-16zM16 7.111c-4.909 0-8.889 3.98-8.889 8.889s3.98 8.889 8.889 8.889c4.909 0 8.889-3.98 8.889-8.889s-3.98-8.889-8.889-8.889zM16 8.541c2.008 0 3.826 0.827 5.143 2.165s2.13 3.185 2.13 5.226c0 2.041-0.814 3.889-2.13 5.226s-3.134 2.165-5.143 2.165c-2.008 0-3.826-0.827-5.143-2.165s-2.13-3.185-2.13-5.226c0-2.041 0.814-3.889 2.13-5.226s3.134-2.165 5.143-2.165zM15.098 9.565c-0.595 0-0.881 0.505-0.881 1.128v0 6.416l0.002 0.065c0.023 0.41 0.257 0.778 0.615 0.955v0l4.292 2.133c0.625 0.279 0.988 0.075 1.201-0.476s-0.057-1.096-0.576-1.353v0l-3.771-2.039-0-5.701-0.002-0.062c-0.031-0.594-0.304-1.066-0.88-1.066z"></path>
</svg>
