<!-- Generated by IcoMoon.io -->
<svg version="1.1" xmlns="http://www.w3.org/2000/svg" width="32" height="32" viewBox="0 0 32 32">
<title>time</title>
<path d="M16 0c8.837 0 16 7.163 16 16s-7.163 16-16 16c-8.837 0-16-7.163-16-16s7.163-16 16-16zM16 2.574c-3.615 0-6.888 1.489-9.257 3.896s-3.834 5.733-3.834 9.407c0 3.674 1.465 6.999 3.834 9.407s5.642 3.896 9.257 3.896c3.615 0 6.888-1.489 9.257-3.896s3.834-5.733 3.834-9.407c0-3.674-1.465-6.999-3.834-9.407s-5.642-3.896-9.257-3.896zM14.377 4.417c1.036 0 1.528 0.85 1.583 1.919l0.003 0.111 0 10.262 6.788 3.67c0.935 0.463 1.422 1.444 1.037 2.435s-1.037 1.358-2.162 0.856l-7.725-3.84c-0.644-0.319-1.067-0.98-1.107-1.719l-0.003-0.117v-11.548c0-1.122 0.514-2.031 1.586-2.031z"></path>
</svg>
