<!-- Generated by IcoMoon.io -->
<svg version="1.1" xmlns="http://www.w3.org/2000/svg" width="512" height="512" viewBox="0 0 512 512">
<g id="icomoon-ignore">
</g>
<path d="M199.6 42.060c-6.185 0-11.391-2.067-15.617-6.2-4.221-4.133-6.333-9.159-6.333-15.075 0-5.784 2.111-10.694 6.333-14.73 4.226-4.037 9.431-6.054 15.617-6.054h112.907c6.048 0 11.181 2.033 15.409 6.097 4.221 4.069 6.332 9.011 6.332 14.828 0 5.917-2.111 10.918-6.332 15.003-4.227 4.088-9.361 6.133-15.409 6.133h-112.907zM255.924 512c-31.242 0-60.672-5.731-88.29-17.195-27.622-11.463-51.764-27.099-72.427-46.911-20.663-19.808-36.955-42.968-48.876-69.472-11.925-26.51-17.887-54.759-17.887-84.739 0-30.050 7.101-56.704 19.035-83.183s28.23-49.641 48.888-69.487c20.662-19.843 44.803-35.505 72.421-46.989s57.049-17.225 88.296-17.225c28.163 0 54.204 4.323 78.123 12.969 23.922 8.642 45.71 20.815 65.363 36.52l18.651-17.903c4.324-4.149 9.495-6.242 15.517-6.278 6.024-0.032 11.304 2.076 15.838 6.327 4.394 4.383 6.591 9.415 6.591 15.094s-2.196 10.696-6.591 15.051l-18.551 17.806c15.166 16.912 27.736 36.722 37.706 59.43 9.973 22.713 13.827 47.59 13.827 77.856 0 29.992-5.976 58.252-17.925 84.773-11.95 26.519-28.26 49.678-48.933 69.481-20.671 19.803-44.805 35.433-72.408 46.89-27.597 11.457-57.051 17.183-88.365 17.183zM255.56 135.578v158.819h167.68c-2.85 83.584-80.211 161.18-167.239 161.18-88.68 0-167.32-80.569-167.32-165.942 0-84.647 77.769-153.829 166.88-154.057zM256 122.778c-96.050 0-180.706 74.407-180.706 166.857 0 91.861 84.041 178.742 180.706 178.742s180.704-86.88 180.704-178.742c0-92.291-77.719-166.857-180.704-166.857z"></path>
</svg>
