<!-- Generated by IcoMoon.io -->
<svg version="1.1" xmlns="http://www.w3.org/2000/svg" width="512" height="512" viewBox="0 0 512 512">
<g id="icomoon-ignore">
</g>
<path d="M108.668 512c-14.43 0-26.715-5.115-36.857-15.347-10.136-10.23-15.205-22.625-15.205-37.189v-380.557h-5.034c-7.316 0-13.473-2.535-18.47-7.607-5.002-5.072-7.503-11.317-7.503-18.737s2.501-13.64 7.503-18.66c4.998-5.016 11.154-7.524 18.469-7.524h113.526c0-7.476 2.499-13.739 7.496-18.793 5.002-5.058 11.161-7.587 18.477-7.587h129.637c7.314 0 13.474 2.55 18.476 7.649 4.997 5.099 7.495 11.342 7.495 18.73h113.746c7.317 0 13.474 2.535 18.471 7.607 5.002 5.072 7.503 11.317 7.503 18.737s-2.501 13.64-7.503 18.66c-4.997 5.016-11.154 7.524-18.471 7.524h-5.033v380.557c0 14.564-5.069 26.959-15.204 37.189-10.142 10.233-22.428 15.347-36.859 15.347h-294.662zM199.021 402.706c6.899 0 12.677-2.375 17.331-7.13 4.655-4.752 6.982-10.575 6.982-17.474v-218.457c0-6.898-2.359-12.722-7.078-17.475-4.714-4.757-10.493-7.136-17.338-7.136-6.941 0-12.745 2.379-17.413 7.136-4.673 4.752-7.010 10.578-7.010 17.475v218.457c0 6.899 2.362 12.723 7.084 17.474 4.728 4.754 10.542 7.13 17.441 7.13zM313.267 402.706c6.853 0 12.623-2.375 17.31-7.13 4.69-4.752 7.038-10.575 7.038-17.474v-218.457c0-6.898-2.368-12.722-7.106-17.475-4.731-4.757-10.534-7.136-17.406-7.136-6.876 0-12.667 2.379-17.372 7.136-4.711 4.752-7.065 10.578-7.065 17.475v218.457c0 6.899 2.391 12.723 7.168 17.474 4.774 4.754 10.586 7.13 17.433 7.13z"></path>
</svg>
