<!-- Generated by IcoMoon.io -->
<svg version="1.1" xmlns="http://www.w3.org/2000/svg" width="32" height="32" viewBox="0 0 32 32">
<title>uncheck</title>
<path d="M23.086 2c3.818 0 6.914 3.095 6.914 6.914v14.173c0 3.818-3.095 6.914-6.914 6.914h-14.173c-3.818 0-6.914-3.095-6.914-6.914v-14.173c0-3.818 3.095-6.914 6.914-6.914h14.173zM23.086 3.728l-14.311 0.002c-1.377 0.036-2.62 0.609-3.528 1.517-0.938 0.938-1.519 2.235-1.519 3.666v0 14.173l0.002 0.138c0.036 1.377 0.609 2.62 1.517 3.528 0.938 0.938 2.235 1.519 3.666 1.519v0l14.311-0.002c1.377-0.036 2.62-0.609 3.528-1.517 0.938-0.938 1.519-2.235 1.519-3.666v0-14.173l-0.002-0.138c-0.036-1.377-0.609-2.62-1.517-3.528-0.938-0.938-2.235-1.519-3.666-1.519v0z"></path>
</svg>
