<!-- Generated by IcoMoon.io -->
<svg version="1.1" xmlns="http://www.w3.org/2000/svg" width="32" height="32" viewBox="0 0 32 32">
<title>unsubscribes</title>
<path d="M0.292 13.177l11.364 7.76c0.649 0.443 1.506 0.437 2.148-0.017l5.472-3.867c1.41 1.426 3.343 2.335 5.487 2.416l0 5.967c0 1.040-0.843 1.882-1.882 1.882h-20.706c-1.040 0-1.882-0.843-1.882-1.882v-12.259zM18.569 16.238l-5.183 3.663c-0.431 0.304-1.006 0.307-1.439 0.006v0l-11.947-8.284 16.925 0c0.064 1.73 0.666 3.322 1.644 4.614zM25.098 4.682c3.812 0 6.902 2.971 6.902 6.636s-3.090 6.636-6.902 6.636c-3.812 0-6.902-2.971-6.902-6.636s3.090-6.636 6.902-6.636zM28.863 10.329h-6.902v1.569h6.902v-1.569z"></path>
</svg>
