<!-- Generated by IcoMoon.io -->
<svg version="1.1" xmlns="http://www.w3.org/2000/svg" width="32" height="32" viewBox="0 0 32 32">
<title>up-circle</title>
<path d="M16 0c8.837 0 16 7.163 16 16s-7.163 16-16 16c-8.837 0-16-7.163-16-16s7.163-16 16-16zM16 2.574c-3.615 0-6.888 1.489-9.257 3.896s-3.834 5.733-3.834 9.407c0 3.674 1.465 6.999 3.834 9.407s5.642 3.896 9.257 3.896c3.615 0 6.888-1.489 9.257-3.896s3.834-5.733 3.834-9.407c0-3.674-1.465-6.999-3.834-9.407s-5.642-3.896-9.257-3.896zM16.353 7.718l0.165 0.064 7.396 7.173c0.283 0.291 0.433 0.679 0.433 1.067 0 0.384-0.143 0.764-0.435 1.056-0.293 0.293-0.677 0.44-1.062 0.44-0.321 0-0.641-0.102-0.908-0.305l-0.154-0.134-4.284-4.283v10.066c0 0.421-0.169 0.794-0.438 1.064s-0.642 0.438-1.064 0.438-0.794-0.169-1.064-0.438c-0.231-0.231-0.388-0.538-0.428-0.886l-0.010-0.177v-10.066l-4.284 4.283c-0.293 0.293-0.659 0.44-1.062 0.44s-0.769-0.147-1.062-0.44c-0.293-0.293-0.44-0.678-0.44-1.062 0-0.321 0.102-0.641 0.306-0.909l0.134-0.154 6.848-6.846c0.331-0.331 0.908-0.541 1.412-0.39z"></path>
</svg>
