<!-- Generated by IcoMoon.io -->
<svg version="1.1" xmlns="http://www.w3.org/2000/svg" width="32" height="32" viewBox="0 0 32 32">
<title>voicer</title>
<path d="M18.003 23.346l-4.174-2.101c-0.383-0.197-0.64-0.59-0.64-1.042 0-0 0-0.001 0-0.001v0-1.475l0.32-0.417c0.519-0.733 0.957-1.575 1.272-2.475l0.022-0.072c0.604-0.281 1.016-0.883 1.016-1.582 0-0.002 0-0.003 0-0.005v0-1.753c-0.024-0.453-0.216-0.857-0.515-1.155l-0-0v-2.337c0.009-0.099 0.014-0.215 0.014-0.332 0-0.969-0.353-1.856-0.937-2.539l0.004 0.005c-1-0.966-2.363-1.561-3.865-1.561-0.153 0-0.304 0.006-0.454 0.018l0.020-0.001c-0.142-0.013-0.306-0.020-0.472-0.020-1.504 0-2.868 0.597-3.87 1.566l0.002-0.001c-0.58 0.678-0.932 1.565-0.932 2.534 0 0.117 0.005 0.233 0.015 0.347l-0.001-0.015v2.337c-0.274 0.305-0.442 0.71-0.445 1.154v1.754c-0 0.004-0 0.009-0 0.014 0 0.557 0.26 1.053 0.664 1.374l0.004 0.003c0.322 1.213 0.849 2.272 1.547 3.195l-0.017-0.023v1.391c-0.003 0.438-0.24 0.82-0.593 1.026l-0.006 0.003-3.923 2.157c-1.235 0.69-2.056 1.988-2.059 3.478v1.865h20.188v-1.781c0-0.005 0-0.011 0-0.017 0-1.533-0.88-2.861-2.162-3.507l-0.023-0.010z"></path>
<path d="M23.805 8.042l-0.431-0.445c-0.201-0.19-0.473-0.306-0.772-0.306s-0.571 0.117-0.773 0.307l0.001-0.001-0.459 0.459c-0.195 0.196-0.316 0.467-0.316 0.765s0.121 0.569 0.316 0.765l-0-0 0.459 0.445c0.947 0.965 1.531 2.289 1.531 3.75s-0.584 2.784-1.532 3.75l0.001-0.001-0.459 0.445c-0.193 0.2-0.311 0.472-0.311 0.772s0.119 0.572 0.312 0.773l-0-0 0.459 0.445c0.195 0.198 0.466 0.322 0.765 0.322s0.571-0.123 0.765-0.321l0-0 0.445-0.445c1.47-1.468 2.379-3.497 2.379-5.739s-0.909-4.271-2.379-5.739l-0-0z"></path>
<path d="M27.826 3.715l-0.598-0.612c-0.197-0.199-0.47-0.323-0.772-0.323s-0.575 0.123-0.772 0.323l-0 0-0.64 0.612c-0.194 0.202-0.313 0.477-0.313 0.779s0.119 0.577 0.313 0.78l-0-0 0.626 0.612c2.013 2.024 3.257 4.815 3.257 7.896s-1.244 5.871-3.257 7.896l0.001-0.001-0.626 0.584c-0.194 0.203-0.315 0.476-0.32 0.778v0.001c0 0.001 0 0.003 0 0.004 0 0.303 0.122 0.577 0.32 0.775l-0-0 0.626 0.612c0.197 0.199 0.47 0.323 0.772 0.323s0.575-0.123 0.772-0.323l0-0 0.626-0.612c2.551-2.58 4.127-6.128 4.127-10.045 0-3.924-1.581-7.478-4.142-10.060l0.001 0.001z"></path>
</svg>
