<!-- Generated by IcoMoon.io -->
<svg version="1.1" xmlns="http://www.w3.org/2000/svg" width="32" height="32" viewBox="0 0 32 32">
<title>volume-max</title>
<path d="M14.769 5.538v20.923q0 0.5-0.365 0.865t-0.865 0.365-0.865-0.365l-6.404-6.404h-5.038q-0.5 0-0.865-0.365t-0.365-0.865v-7.385q0-0.5 0.365-0.865t0.865-0.365h5.038l6.404-6.404q0.365-0.365 0.865-0.365t0.865 0.365 0.365 0.865zM22.154 16q0 1.462-0.817 2.721t-2.163 1.798q-0.192 0.096-0.481 0.096-0.5 0-0.865-0.356t-0.365-0.875q0-0.404 0.231-0.683t0.558-0.481 0.654-0.442 0.558-0.692 0.231-1.087-0.231-1.087-0.558-0.692-0.654-0.442-0.558-0.481-0.231-0.683q0-0.519 0.365-0.875t0.865-0.356q0.288 0 0.481 0.096 1.346 0.519 2.163 1.788t0.817 2.731zM27.077 16q0 2.942-1.635 5.433t-4.327 3.625q-0.25 0.096-0.481 0.096-0.519 0-0.885-0.365t-0.365-0.865q0-0.75 0.75-1.135 1.077-0.558 1.462-0.846 1.423-1.038 2.221-2.606t0.798-3.337-0.798-3.337-2.221-2.606q-0.385-0.288-1.462-0.846-0.75-0.385-0.75-1.135 0-0.5 0.365-0.865t0.865-0.365q0.25 0 0.5 0.096 2.692 1.135 4.327 3.625t1.635 5.433zM32 16q0 4.423-2.442 8.125t-6.5 5.452q-0.25 0.096-0.5 0.096-0.5 0-0.865-0.365t-0.365-0.865q0-0.692 0.75-1.135 0.135-0.077 0.433-0.202t0.433-0.202q0.885-0.481 1.577-0.981 2.365-1.75 3.692-4.365t1.327-5.558-1.327-5.558-3.692-4.365q-0.692-0.5-1.577-0.981-0.135-0.077-0.433-0.202t-0.433-0.202q-0.75-0.442-0.75-1.135 0-0.5 0.365-0.865t0.865-0.365q0.25 0 0.5 0.096 4.058 1.75 6.5 5.452t2.442 8.125z"></path>
</svg>
