<!-- Generated by IcoMoon.io -->
<svg version="1.1" xmlns="http://www.w3.org/2000/svg" width="32" height="32" viewBox="0 0 32 32">
<title>webinaris</title>
<path d="M9.438 4.066l-0.012 0.006-0.302 0.187-0.384 0.244-0.287 0.187-0.139 0.093-0.125 0.086c-0.019 0.014-0.038 0.027-0.056 0.040-0.751 0.536-1.473 1.166-2.151 1.92-2.129 2.372-3.399 5.481-3.399 9.528 0 4.005 1.73 7.355 4.721 9.789 2.585 2.104 5.94 3.32 8.68 3.286 2.762-0.035 6.119-1.315 8.701-3.466 3.001-2.501 4.733-5.909 4.733-9.976 0-8.412-6.657-14.103-15.364-13.358l-0.293 0.028v5.934l9.563 6.327c0.751 0.497 0.767 1.581 0.049 2.103l-0.049 0.034-10.139 6.71c-0.843 0.558-1.967-0.023-2.006-1.015l-0.001-0.054v-6.086c0-0.709 0.578-1.284 1.291-1.284 0.694 0 1.261 0.545 1.29 1.228l0.001 0.056 0 3.689 6.517-4.313-8.524-5.64c-0.343-0.227-0.555-0.601-0.574-1.007l-0.001-0.061v-7.747c0-0.63 0.46-1.167 1.086-1.267 10.906-1.747 19.738 5.25 19.738 15.723 0 4.858-2.091 8.972-5.656 11.943-3.030 2.525-6.959 4.024-10.327 4.066-3.359 0.042-7.301-1.387-10.348-3.866-3.569-2.904-5.668-6.969-5.668-11.776 0-4.698 1.515-8.409 4.055-11.238 0.811-0.903 1.674-1.656 2.572-2.297 0.052-0.037 0.108-0.076 0.168-0.117l0.185-0.125 0.185-0.122 0.421-0.271 0.284-0.177 0.109-0.064-0.006 0.006-0.009 0.006c0.586-0.404 1.391-0.259 1.797 0.324 0.395 0.566 0.268 1.337-0.277 1.751l-0.045 0.033z"></path>
</svg>
